<svg xmlns="http://www.w3.org/2000/svg" viewBox="0 0 236.61 158.28"><g id="Capa_2" data-name="Capa 2"><g id="OBJECTS"><path d="M200.45,79.14c0,3.72-6.14,7-6.65,10.54s4.46,8.5,3.43,12-7.84,4.91-9.36,8.22,1.88,9.4-.1,12.47-8.9,2.48-11.3,5.25-.83,9.53-3.6,11.93-9.23-.12-12.32,1.87-3.46,8.91-6.8,10.44-8.81-2.72-12.35-1.68-5.82,7.56-9.48,8.08-7.66-5.1-11.38-5.1-7.79,5.61-11.37,5.1-6-7.06-9.48-8.08-9,3.2-12.35,1.68-3.74-8.47-6.81-10.44-9.55.52-12.32-1.87S67,130.36,64.62,127.6s-9.32-2.17-11.31-5.26,1.44-9.11-.1-12.46-8.32-4.68-9.36-8.22,4-8.32,3.44-12-6.65-6.82-6.65-10.54,6.14-7,6.65-10.54-4.46-8.5-3.44-12,7.85-4.92,9.36-8.23-1.87-9.39.1-12.46,8.91-2.49,11.31-5.25.83-9.53,3.59-11.93,9.24.11,12.33-1.87S84,8,87.34,6.43s8.81,2.73,12.35,1.69S105.51.56,109.17,0s7.66,5.11,11.37,5.11S128.34-.48,131.92,0s6,7.07,9.48,8.09,9-3.2,12.35-1.69,3.73,8.47,6.8,10.45,9.56-.53,12.32,1.87,1.2,9.16,3.6,11.93,9.32,2.16,11.3,5.25-1.43,9.12.1,12.46,8.33,4.69,9.36,8.23-3.95,8.31-3.43,12S200.45,75.42,200.45,79.14Z" style="fill:#448aff"/><path d="M236.61,123a92.29,92.29,0,0,0-43.09,0V79.86a92.29,92.29,0,0,1,43.09,0q-7.19,9-14.52,19.26Q229.41,110.45,236.61,123Z" style="fill:#ff5722"/><path d="M193.52,96.6V123a116.47,116.47,0,0,1,13.87-17.1A51,51,0,0,0,193.52,96.6Z" style="fill:#ff2015"/><path d="M0,123a92.29,92.29,0,0,1,43.09,0V79.86A92.29,92.29,0,0,0,0,79.86c4.78,6,9.64,12.45,14.51,19.26C9.64,106.67,4.78,114.62,0,123Z" style="fill:#ff5722"/><path d="M43.09,98.25V123a116.47,116.47,0,0,0-13.87-17.1A43.67,43.67,0,0,1,43.09,98.25Z" style="fill:#ff2015"/><path d="M207.39,105.85a381.57,381.57,0,0,0-178.17,0V62.76a381.57,381.57,0,0,1,178.17,0Z" style="fill:#fe9900"/><path d="M120.54,139.54A60.4,60.4,0,1,1,181,79.14,60.47,60.47,0,0,1,120.54,139.54Z" style="fill:#512da8"/></g></g></svg>