<svg id="Layer_1" data-name="Layer 1" xmlns="http://www.w3.org/2000/svg" viewBox="0 0 1655.15 742.56"><rect x="172.05" y="192.42" width="1326" height="391" style="fill:#e3342f"/><path d="M64.6,45.84C124,43.8,183.65,46,243.1,45c-.18,5.34-.08,10.68-.1,16-54.89-.4-109.12,2.4-164,2,0,49.12-.12,98.22-.1,147.34H60c-.18-52.1.12-104.21,0-156.32C59.8,50.65,62.08,47.79,64.6,45.84Z" transform="translate(-59.95 -44.58)" style="fill:#e3342f"/><path d="M383.66,45.25C563.83,46,746.78,42.66,927,46.35V59H311q0-6.84,0-13.68C335.19,44.75,359.55,45.69,383.66,45.25Z" transform="translate(-59.95 -44.58)" style="fill:#e3342f"/><path d="M139.92,133.34c500-.08,1001-1.74,1500.67.55,2.07.12,4.17.12,6.28.12,2.21,194.19,2,389.6.08,583.59-1.49,1.44-3,2.9-4.38,4.39-502.61-.42-1005.33.85-1507.89-.44,0-.67-.05-2-.06-2.65l-1.07,1.76c-1-.23-.27-3.41-.59-4.62l2-.09c.89-94-1.7-188.88.89-282.54,1.15-96.53-1.67-193.86,1-290,.14-2.44.13-4.88.11-7.32l-2.49-.25C136,134.35,138.08,134.16,139.92,133.34ZM153,152V704c17.47-.07,34.95.14,52.42-.11,474.62-2,950.91-1.35,1425.58.11V152Z" transform="translate(-59.95 -44.58)" style="fill:#e3342f"/><path d="M1695,166h20.1c-.65,129.26.11,258.51-.14,387.78-6.66-.24-13.31-.37-20-.55Z" transform="translate(-59.95 -44.58)" style="fill:#e3342f"/><path d="M61.12,399q-.39-57.72-.77-115.45c5.45.16,10.91.06,16.36.09-.95,126.66.15,253.43,0,380.12-4.52.31-9,.6-13.57.79C62.29,576.07,62.4,487.52,61.12,399Z" transform="translate(-59.95 -44.58)" style="fill:#e3342f"/><path d="M1696,626.54c6.09-.11,12.2.21,18.3-.21-1.75,52.68,2.41,106-1.28,158.42-7.58,3.66-16.28,2-24.44,2.14-52.29-2.57-105.77,0-158.45-.89,0-4.38-.89-8.67-1.26-13q83.57,0,167.13,0Z" transform="translate(-59.95 -44.58)" style="fill:#e3342f"/><path d="M846.12,772.63c204.83-.16,409.67.42,614.5.59q.17,5.88.38,11.78c-204.87.65-410.09-1.25-614.81.65C846.07,781.31,845.84,777,846.12,772.63Z" transform="translate(-59.95 -44.58)" style="fill:#e3342f"/><text transform="translate(227.01 460.18)" style="font-size:294px;fill:#fff;font-family:MyriadPro-Regular, Myriad Pro"><tspan style="letter-spacing:-0.006988732993197279em">C</tspan><tspan x="168.46" y="0" style="letter-spacing:-0.003997595131802721em">a</tspan><tspan x="308.99" y="0">tálogo</tspan></text><text transform="translate(1245.75 555.72)" style="font-size:100px;fill:#fff;font-family:MyriadPro-Regular, Myriad Pro">2022</text></svg>