<svg id="Layer_1" data-name="Layer 1" xmlns="http://www.w3.org/2000/svg" viewBox="0 0 1792.62 303.01"><path d="M1043.05,8c5.41-4.31,12.67-4.41,19.24-3.86C1074.7,6.38,1085.75,12.93,1096,20c7.33,5.22,14.8,10.56,20.25,17.84,4.17,5.61,6.89,12.5,6.58,19.57-.45,3.74,2.28,6.59,4.45,9.25a18.5,18.5,0,0,1,4.63,11.8c-.22,8-1.44,16.2-4.78,23.59-3.54-.16-6.95,1-10.44,1.21s-7-.18-10.44.29c1.34-4.72-2-9.93.83-14.26a8.06,8.06,0,0,0-2.56-3c-2.39.59-4.64,1.62-7,2.19-3.31-2-7.34-3.3-11.11-1.86-3.2.73-5.13,3.53-7.16,5.77l-2-.7c1.51,3.9-.46,7.59-2.23,11a13.7,13.7,0,0,1-3-6.74c-2.14-1.82-4.45-3.57-5.68-6.17-2.7-5.88-2.64-12.65-5.66-18.41-2.49-5.78-6.11-11.71-12.09-14.34-2.26-.59-5.43-1.59-7.2.44-1.15,1.51-.16,3.33.28,4.9-3.25-.77-6.61-2.56-10-1.28-12.39,2.29-21.49,14.39-21.82,26.75a35.74,35.74,0,0,1-17.35,0,92.8,92.8,0,0,1,20.24-32.31,55,55,0,0,0,13-19.76q1.27-4.22,2.9-8.32C1031.17,19.58,1036.76,13.11,1043.05,8Zm18.79,14.22c.27,3.86,2.37,7.38,2.09,11.29,0,4,.16,8-.59,12-.2,6.05,0,12.11,0,18.17,1,3.82,1.5,7.9,3.63,11.32,3.19,5,7,9.67,9.54,15.11l1.06.64c.83-3.45-1-6.83-2.48-9.85-1.73-3.67-5.19-6.15-6.86-9.84-2.43-4.74-2.15-10.2-2.54-15.36-.6-10,2.23-20.17-1-29.88C1063.75,24.57,1062.8,23.38,1061.84,22.22Z" transform="translate(-28.38 -3.9)" style="fill:#faf8f9"/><path d="M1655.37,18.34c1.09-2.14,2.26-4.25,3.54-6.3,2.51,2.23,3.33,5.73,5.12,8.51-4.25,4.59-8.7,9-13.15,13.36-.59-1.34-2.81-2.78-1.37-4.36,1.17-2.44,2.52-4.81,3.83-7.2Q1654.36,20.37,1655.37,18.34Z" transform="translate(-28.38 -3.9)" style="fill:#faf8f9"/><path d="M536,33.6c3.56-5.33,7.55-10.35,11.14-15.65,3.45,2.36,7.3,4,11,5.92-3.91,3.18-7.66,6.56-11.55,9.77C543.09,33.62,539.56,33.65,536,33.6Z" transform="translate(-28.38 -3.9)" style="fill:#faf8f9"/><path d="M897.73,18.51q5.76,0,11.54,0,0,139.48,0,279H897.73Q897.75,158,897.73,18.51Z" transform="translate(-28.38 -3.9)" style="fill:#faf8f9"/><path d="M670.19,39.17C682.9,29.76,698.55,24,714.45,24.3S745.62,31,758,40.75A112.86,112.86,0,0,1,788.87,83a151.18,151.18,0,0,1,11,76.45c-3.3,23.42-10.94,46.83-25.56,65.71-6.44,9.16-15.1,16.6-24.43,22.68a22.49,22.49,0,0,1-6.27,3.5c7.72.35,15.5,1,23,3.2a13.9,13.9,0,0,1,5.17,2.88c1.34,1.34,3.85,1.17,4.44,3.27a78.58,78.58,0,0,1,0,9.08A55.26,55.26,0,0,0,809.42,263c-.46-2.1-1.17-4.33-3.14-5.49-6.1-4.33-13.37-8.06-16.57-15.23.06-8.63-.47-17.26-.46-25.89,1.26-2.31,1.33-5.1,2.76-7.33,3.26-5.23,9.44-7.26,14.73-9.77-1.19-6.27-.25-12.71-.06-19,.47-.34,1.41-1,1.87-1.34,3.17,4.18,10.34,2.29,12.36,7.53.24,5.69,0,11.4.11,17.09.16,4.59-1.08,9.61-4.67,12.72a41.89,41.89,0,0,1-10.81,6.51c-2.57,1.16-3.17,4.15-4.42,6.39a31.44,31.44,0,0,1,15.44,13.15c1.87,3.25,1.69,7.07,2.38,10.64-.52,9.45.42,19.12-1.72,28.4-5.89,6.92-14.8,10.54-23.57,12.16-7.74.14-15.49.16-23.23,0-8.11-1.38-16.37-3.84-23-8.93-2.16-1.6-2.09-4.38-2.12-6.78-10.08-1.91-20.4-3.18-30.66-2.66a138.18,138.18,0,0,0-33,2.71,28.52,28.52,0,0,0-.24,4.89c-6.43,6.74-15.95,9.17-24.81,10.78-7.74.12-15.49.18-23.23,0-8.56-1.71-17.28-5.05-23.2-11.75-.8-9.05-1.52-18.11-2.44-27.15a2.73,2.73,0,0,1,1.12-3c-1.2-10.71,8.42-18.55,17.23-22.43a32.63,32.63,0,0,0-2.18-5c-5.54-3.56-12.77-5.51-16-11.73-.85-8.59-2.16-17.21-1.7-25.86,2.2-5.25,9.27-3.65,12.62-7.84l2.31,2c-.67,6.17,1.64,12.64-.48,18.59,5.2,2.39,11.14,4.47,14.36,9.54a14.33,14.33,0,0,1,2.09,7l1.52-.31c-.3,9.07-2,18.16-1.34,27.2-3.41,6.62-9.91,10.6-16,14.5-2.21,1-2.71,3.59-3.6,5.62a53.58,53.58,0,0,0,33.38,6.79c0-3.29,0-6.58,0-9.86a42.66,42.66,0,0,0,6.57-4.05c7.79-3.41,16.46-3.81,24.83-4.48-5.38-2.1-9.77-6-14.45-9.31a108.14,108.14,0,0,1-14.16-13.9c-8.1-11-15.51-22.83-19.82-35.91-7.66-21.29-9.68-44.34-7.64-66.77a147.56,147.56,0,0,1,10.32-41.7c6-12.6,12.93-25.1,23-35C663.38,45.71,666.11,41.7,670.19,39.17Zm34-10.71c-21.7,2.85-40.18,17.42-52.24,35.12-26.16,39.06-29.46,91.23-11.73,134.36,6.23,14.26,14.7,27.77,26.3,38.28,8.92,7.75,19.28,14.23,30.89,16.94a63.91,63.91,0,0,0,46.67-6c13.72-7.4,25-18.89,33-32.22,9.34-14.61,14.82-31.36,17.94-48.33,5.41-32.25.39-66.53-15.77-95.12-8.68-15.18-21.09-28.73-36.87-36.62C730.75,28.73,717.15,26.82,704.16,28.46ZM610.79,188.71c.56,4.43,4.69,6.18,8.28,7.71-.2-4.25.45-8.6-.74-12.74C615.78,185.31,613.21,186.89,610.79,188.71Zm198.24-5c-.1,4,.36,8,.53,12,3.26-2.12,8-4,8.54-8.36C815.73,185,811.9,185.32,809,183.76ZM608.94,197c.88,4.13,1,8.36,1.58,12.52.45,3.93,4.68,5.31,7.55,7.2,4.17,2.2,7.41,5.64,10.65,9a31.56,31.56,0,0,0,6.14-5.22c0-1.42,0-2.84,0-4.26a58.27,58.27,0,0,0-8.38-9.89C621,202.62,614.82,200.08,608.94,197Zm196.63,6.22c-5.08,2.24-10.92,5.5-11.79,11.56a14.43,14.43,0,0,0,5,10.2c4.24-7.06,14.69-7.08,18.12-14.94.54-4.54.61-9.16.84-13.74A62.37,62.37,0,0,1,805.57,203.25ZM614,243.12c-3.15,4.73-1.5,10.68,1.42,15.09,5.4-6.24,14.16-8.63,18.67-15.78,1.21-5.21.33-10.61,1.31-15.86C629,233,618.44,234.54,614,243.12Zm177.1-17.56a91.39,91.39,0,0,0,1.47,15.93c4.08,7.86,13.58,10.08,19.15,16.54,3.23-4.27,4.25-10.47,1.3-15.16C808.36,234.1,797.16,233,791.12,225.56Zm-130.74,32c-.83.43-3.83,1.87-1.64,2.77,6.18,1.76,12.55-1.73,18.84-1.57,1.86-.17,3.15,1.43,3.76,3,0,4.18-1.16,8.27-1.25,12.46a159.86,159.86,0,0,1,33.41-2.42c11.24-.61,22.43.78,33.55,2.29-.29-4.21-1.41-8.37-1.15-12.61a4.12,4.12,0,0,1,4.53-2.75c6.28.1,13.08,4,19,.9-4-3.77-9.8-3.72-14.88-4.62-7.84-.55-15.8-1.33-23.59.13a63.69,63.69,0,0,1-26.59,1.91c-1.3.65-.26,1.95.11,2.86l-2-.47.68,1.47c0,.87-.07,1.74-.07,2.61l-2.43-.53.4-1.81c-1.34,1.17-2.5,3.26-4.58,2.26a4.82,4.82,0,0,1,1.32-5.32c0,1.6-.48,3.33.39,4.8.26-1.47.52-2.94.9-4.39l1.28,2.2c.2-.63.6-1.91.81-2.55l1.12,1c.25-.58.77-1.74,1-2.32a28.55,28.55,0,0,1-6-1.1c-5.77-1.88-12-1.64-17.92-1.22A64.11,64.11,0,0,0,660.38,257.55Zm12.9,3.17c1,2.59-2,3.36-3.77,3.87-5,1.18-10.74,2.09-15.27-.95,0,2.59,0,5.19,0,7.79,7.53-.38,15.49-1.6,21.28-6.88a4.57,4.57,0,0,1-.86-2.69,7.49,7.49,0,0,1,2.77.45c.36,4.49-4.81,6.06-8,7.87,1.48,1.78,2.88,3.64,4.22,5.54a24.59,24.59,0,0,1-3.54-.11l-2.22.19c-2.15,3.35-6.59,2.91-10,3.79.22-2.6-1.36-6.42,2.41-7,0,1.69,0,3.39,0,5.09,1.65-.24,3.32-.48,5-.62.17-.74.53-2.2.71-2.93,1.09,0,2.2,0,3.32.05l.5-1.64c-.74.27-1.47.52-2.2.75l-.48-2.35c-11.62,2.81-23.87,3.74-35.61,1.06-4.77-1.32-10-2.58-13.69-6,.31,1,.61,2.09.92,3.15l.3-.25a4.39,4.39,0,0,0,3,3.83c.08-.67.25-2,.33-2.7,2.95,1.41,1.22,4.94,2.68,7.31a11.57,11.57,0,0,1,4.3-5.34,23,23,0,0,1,2.83,4.84l1.48,1.66c-1.09-5.19,6.54-6.24,8.27-2.18-1.93-.36-3.83-.83-5.75-1.18.13.86.38,2.59.51,3.45,2.13.8,4.3-1.34,6.35.56-.11-1.83-.15-3.67-.11-5.51,3.42.85,1.37,4.93,1.85,7.36a26,26,0,0,1-3.33-1.81c-2.22,2.45-5.4,1.07-7.21-1.07-.51.56-1,1.12-1.48,1.69-1.78-1.53-4.27-3.79-6.65-1.95-1.92-.57-4.82-1.16-4-3.92-.69-.39-2.09-1.15-2.78-1.53l.06,2.28-2.48-1c.29-2-.89-4.69,1.34-5.92-1.86-2.87-5-4.56-7.47-6.78.12,4.53.74,9,.93,13.57a11.62,11.62,0,0,0,2.08,6.76c3.27.57,1.56-4.11,2-6,2.6,1,2.47,3.66,2.39,6.06,1.65,1,3.29,2,4.91,3.13-.07-1.64-.12-3.28-.14-4.91.78.24,1.57.5,2.36.76,0,1.92,0,3.84,0,5.77a64.2,64.2,0,0,1-9.19-4.52c-.13.41-.39,1.22-.51,1.63a66.35,66.35,0,0,0,23.36,7.92c5.86.81,11.73-.58,17.59-.72-1.07-.54-2.16-1-3.26-1.46,0-1.41,0-2.82.06-4.22l-3.24-.38c2.56-1.77,5.78-1.46,8.72-1.78q-1.5,1.23-3.12,2.31c-.49,1.36,0,4.61,1.75,2.76,1.07-2,2.21-3.88,3.27-5.85l1.93.07c1.13,1.87,2.26,3.72,3.34,5.63a12.64,12.64,0,0,0-5.64-.6c-.82,1.09-1.63,2.34-3.17,2.27l-1.07.17.69.63a66.77,66.77,0,0,0,12.71-3.31c2.89-1.05,6-2.06,8.13-4.37-.08-7,.81-13.93,1.25-20.88C677.12,261.13,675.21,260.84,673.28,260.72Zm74.86,1c0,6,1.35,12.06,1.07,18.13-.17,4.55,5,5.26,8.17,6.74q2.88,1,5.76,2c2.76.62,5.58,1,8.31,1.81-2.63-1.65-1.59-4.89-1.54-7.43,3.3-.54,2.06,3,2.3,5q1.1,1.53,2.19,3.09l2.69.06a72.46,72.46,0,0,0,16.32-.69c0-.19-.11-.58-.14-.77l-1.42-.68a28.71,28.71,0,0,1-.12-5.56c2.34-1.26,5.72-2.35,7.92-.29l-1.56,2.31c.13.47.4,1.4.53,1.86-.36,2-3.45-1.49-4.72-1.31l.36,3.4.37.6c6.55-2,13.55-4,18.58-8.88,3.72-5.5,1.14-12.58,2-18.76A47.63,47.63,0,0,1,790.4,273c-10,1.78-20.21,0-29.91-2.58-4-1.16-8.41-2.48-11-6a13.34,13.34,0,0,1,1.75-3.7Zm2.87,1.57a5,5,0,0,0,3,3,63.43,63.43,0,0,0,19,4.76c0-2.57,0-5.13.06-7.69-2.42,1-4.9,2.17-7.58,1.91C760.52,265.5,756,262.69,751,263.33Zm-122.49,11.6c-.42,1.41.07,1.91,1.46,1.52C630.38,275,629.89,274.53,628.52,274.93Zm166.21,9.67c1.19.76,1.91.46,2.16-.88C795.65,282.93,794.93,283.22,794.73,284.6Zm-133.88-.06" transform="translate(-28.38 -3.9)" style="fill:#faf8f9"/><path d="M709.41,28.71c16.75-1.21,33.43,5.11,46.21,15.79,22,18.3,34.7,45.82,38.64,73.78a148.16,148.16,0,0,1-10.64,83.08c-4.43,9.74-10.6,18.54-17.19,26.91-.62-.57-1.23-1.12-1.84-1.66,18.74-21.41,27.56-50,28.95-78.09a145.56,145.56,0,0,0-12.63-67.11C773.88,67,764.19,53.46,751.09,44a63.79,63.79,0,0,0-32.56-12.77c-14.77-1.58-29.69,3.24-41.83,11.53-15.05,10.56-26,26.11-33.21,42.83a146.82,146.82,0,0,0-1.37,108.5,116.45,116.45,0,0,0,19.73,33.13c10,11,22.88,20.06,37.63,23.25,14,3.78,29,1,41.82-5.21a82.09,82.09,0,0,0,22.33-17.57c.56.59,1.15,1.18,1.74,1.77-10,10.37-22.1,19.38-36.28,22.89a62.77,62.77,0,0,1-48.48-6.86c-12.13-6.87-21.88-17.31-29.55-28.84-16.92-26.08-23.14-58.22-20.48-88.94,1.38-13,3.94-25.94,8.72-38.13,7.42-19.37,19.66-37.33,36.82-49.3A65.13,65.13,0,0,1,709.41,28.71Z" transform="translate(-28.38 -3.9)" style="fill:#faf8f9"/><path d="M1542.13,33.9c.76-1.3,3.42-1.25,3.31.74,4.39,17,8.49,34,12.83,51a40.74,40.74,0,0,0,2.61,7c1.34,1,2.68,1.91,4.08,2.82,0,.7,0,2.12,0,2.83-7.57,0-15.14,0-22.7,0,0-.77.09-2.31.11-3.08,2.27-1.38,5.28-2.25,5.44-5.42-1.39-4.57-1.82-9.4-3.44-13.91-3.79.05-7.57,0-11.34,0-.52,4.93-3.09,9.92-1.65,14.83.79,4.07,7.92,2.69,6.6,7.55-6.69,0-13.38,0-20.06,0-.06-1.07-.11-2.14-.13-3.21,4-1.16,6.07-4.78,7.07-8.55,4-13.87,7.84-27.8,11.77-41.71-.4-1.16-.78-2.33-1.11-3.51A26.9,26.9,0,0,0,1542.13,33.9Zm-7.63,34.36c2.71.08,5.44.07,8.19.06-1.52-5.65-3-11.32-4.21-17C1537.28,57,1535.94,62.63,1534.5,68.26Z" transform="translate(-28.38 -3.9)" style="fill:#faf8f9"/><path d="M1696.85,41.37c2.59-2.43,5.26-4.92,6.84-8.19l2.82.06c4,16.76,8.32,33.45,12.44,50.19,1.34,4.55,2.28,10.23,7.44,12,0,.71-.06,2.13-.07,2.84-7.55,0-15.09,0-22.63,0q0-1.74.06-3.48,2.16-.9,4.35-1.88c1.83-5.68-1.63-11.39-2.35-17-3.82,0-7.63,0-11.43,0-1,3.51-1.26,7.17-2.07,10.72-.69,2.26.45,4.4,1.42,6.38,1.82.77,3.65,1.52,5.53,2.22q0,1.53.06,3.06h-20c0-1-.07-2.1-.08-3.15a32.24,32.24,0,0,0,4.69-3.22c3.22-6.75,4.58-14.16,6.77-21.26,2.43-8.58,4.77-17.18,7.18-25.77C1697.55,44,1697.08,42.23,1696.85,41.37Zm-1.11,27q4.24,0,8.54,0l-.87-1.52c-1.08-5-2.35-10-3.73-15C1698.31,57.34,1697.17,62.88,1695.74,68.35Z" transform="translate(-28.38 -3.9)" style="fill:#faf8f9"/><path d="M714.16,46.89c.33-4.16.67-8.32,1.2-12.45,3,.16,6.06.51,9.09.9-.05.52-.14,1.57-.19,2.09q-3.25-.24-6.45-.77l-.24,2.9c2.27.51,6.37-.86,6.29,2.77-2.21-.18-4.4-.42-6.59-.67-.11,1.1-.22,2.19-.3,3.29,2.27.28,4.55.52,6.84.78-.13.51-.4,1.54-.54,2.05C720.22,47.64,717.18,47.26,714.16,46.89Z" transform="translate(-28.38 -3.9)" style="fill:#faf8f9"/><path d="M1464.2,34.42c2.14.47,3.94,2.12,6.23,1.94,9.6,0,19.21,0,28.81,0a8,8,0,0,1,4.3-1.75c.78,4.64.18,9.37,1,14a58.93,58.93,0,0,1,.28,9.94L1502.2,58c-1.37-4.83-2.42-10.21-6.38-13.65C1494,42.6,1491.24,42.7,1489,42q-.1,20.16,0,40.34c.42,3.33.21,7.32,3.06,9.68,1.67,1.28,3.79,1.77,5.64,2.78.09.83.25,2.5.33,3.33-9.56.1-19.12,0-28.68,0,0-.82,0-2.46,0-3.29a20.37,20.37,0,0,0,7.88-4.45c1.54-3.45,1-7.25,1-10.9,0-12.47,0-24.94,0-37.41-2.59.55-5.46.75-7.32,2.87-3.44,3.63-4.28,8.79-5.86,13.37l-3-.28C1463.19,50.23,1463.24,42.3,1464.2,34.42Z" transform="translate(-28.38 -3.9)" style="fill:#faf8f9"/><path d="M699.51,36c2.61-.4,5.31-1.61,8-.87,3.3,1.63,4.63,6.13,3.32,9.46-1.53,3.41-5.84,3-8.9,3.81C700.84,44.34,700.38,40.14,699.51,36Zm3.19,1.4c.33,2.77.81,5.53,1.18,8.3a33.42,33.42,0,0,0,3.92-.85c1.48-2.32.65-5.68-1.28-7.51Z" transform="translate(-28.38 -3.9)" style="fill:#faf8f9"/><path d="M1183.29,66.43c-7.36-9.5-4.6-26.17,6.91-31.17,2.42.05,4.86,0,7.3,0,3.67-.38,6.58,2.33,9.61,4-.26,6.34-1.31,12.63-1,19l-3,0c-.9-5.17-1.37-10.72-4.15-15.28-1.5-1.26-3.89-3.13-5.73-1.5a15.93,15.93,0,0,0-2.48,2.07,16.33,16.33,0,0,0,.49,11.75c5.31,5.75,12.6,9.68,16.33,16.81a28.31,28.31,0,0,1,.27,17.46,16.27,16.27,0,0,1-15.38,10.29c-5.21.44-9.94-2.34-13.83-5.51-.86-7.6-1.27-15.25-1.9-22.88l2.93.32c1.77,7.42,3.59,15.36,9.15,21,2.58.94,5.48,1.79,7.59-.59,3.42-4.43,2.81-11.53-1.54-15.15C1191.16,73.34,1186.25,70.89,1183.29,66.43Z" transform="translate(-28.38 -3.9)" style="fill:#faf8f9"/><path d="M1288.12,48.91a26.82,26.82,0,0,1,15.19-13.62c3.7.12,7.44-.24,11.15.18a50.09,50.09,0,0,1,9.85,4.16c.07,6.74,0,13.49,0,20.23l-2.86-.1c-1.37-6.53-2.58-14.74-9.17-18.09-2.71-1.79-6-.3-8.32,1.38-4.08,4.07-5.9,9.83-6.68,15.41-1,10.07-.94,20.75,3.7,30,2.15,3,5.39,6,9.39,5.33,6.54-1.35,9.65-8.14,11.61-13.85.87-2.27,1.6-4.59,2.36-6.91l2.78,1.23c-.31,7.28-2.53,14.27-3.39,21.46-5.9,4-13.56,5.06-20.44,3.51-10.19-2.4-16.94-12.31-18.66-22.19C1283.69,67.57,1284.2,57.72,1288.12,48.91Z" transform="translate(-28.38 -3.9)" style="fill:#faf8f9"/><path d="M1344.35,36.46c5-.83,10.12-.52,15.16-1.19,7.52.29,16.8.67,21.52,7.54,3,3.63,2,8.48,2,12.79-.57,4.65-4.08,8-7.31,11.07,2.82,8.41,6.48,16.66,11.83,23.81a22.29,22.29,0,0,0,5.91,5.11c-.16,1.19-.35,2.37-.58,3.54-6.22.68-13.49-.43-17.59-5.64-5-6.15-6.08-14.32-9.62-21.25a29.42,29.42,0,0,0-2.92-1.57c-.15,5.87-.24,11.77,0,17.64.59,4.6,5.59,5.18,9.18,6.31l.08,3.58c-9.39,0-18.77,0-28.15,0,0-.91.11-2.74.14-3.65a22.36,22.36,0,0,0,6-2.67c1.51-1.31,1.2-3.59,1.6-5.37,0-12,0-24,0-36,0-2.35-.06-4.83-1.11-7-1.58-1.77-4-2.43-6.16-3.21C1344.33,39,1344.33,37.74,1344.35,36.46Zm18.36,4q-.11,12.48,0,25c8.65-2.06,11-13.27,7.16-20.33C1368.54,42.27,1365.38,41.37,1362.71,40.42Z" transform="translate(-28.38 -3.9)" style="fill:#faf8f9"/><path d="M1577.86,36.46c4.83-.92,9.77-.37,14.63-1.17,6.64.27,14.06.39,19.58,4.65,8,7,5.84,21.27-3,26.62,1.11,2.72,2.24,5.43,3.2,8.21,3.58,7.67,7.17,16.07,14.63,20.77-.26,1.27-.5,2.54-.74,3.8-6.46.18-13.92-.91-18-6.51-4.12-5.84-5.47-13-8.48-19.43-.43-1.67-2.31-2-3.53-2.76-.12,5.25-.2,10.5,0,15.75.32,1.65,0,3.74,1.44,4.93,2.25,2.07,5.43,2.5,8.24,3.44v3.45q-14.33,0-28.63,0a16.54,16.54,0,0,1,.45-3.43c2.81-1.41,7.14-2.3,7.25-6.2q.06-21,0-42c.17-3.77-4.11-5.35-7.1-6.22C1577.83,39,1577.83,37.75,1577.86,36.46Zm18.28,4c-.06,8.38-.12,16.77,0,25.16,2.16-1.19,4.73-2.1,6.2-4.25a16.72,16.72,0,0,0,.42-17.22C1601.24,41.92,1598.55,41.18,1596.14,40.42Z" transform="translate(-28.38 -3.9)" style="fill:#faf8f9"/><path d="M1226.16,36.35h38.25c-.43,6-.9,11.9-1.49,17.84l-2.75-.34c-1.3-3.55-.71-8.46-4.37-10.67a57.1,57.1,0,0,0-11-1.57c0,7-.06,14,0,21,3.05-1.13,7.16.57,9.42-2.37,1.33-1.82,1.54-4.21,2.06-6.35l2.67-.62c.08,8.85,0,17.71,0,26.56l-2.89-.31c-.48-2.36-.28-4.94-1.48-7.1-2.55-2.65-6.48-2.51-9.85-2.44,0,5.88-.06,11.76,0,17.64a5.16,5.16,0,0,0,5.66,5.38c4.47.67,8-3.14,9.6-6.95a88.12,88.12,0,0,0,3.26-11.72l3.39-.06c-1,4.72-.21,9.56-1,14.29-.48,3.22-.69,6.48-1.1,9.71q-19.25,0-38.47,0c0-1.15-.05-2.29-.05-3.44,2.32-1,5.13-1.62,6.76-3.74,2.07-8.37,1-17.06,1.27-25.59-.25-7.2.8-14.61-1.33-21.62-1.5-2.09-4.21-3.07-6.67-3.47C1226.14,39,1226.14,37.69,1226.16,36.35Z" transform="translate(-28.38 -3.9)" style="fill:#faf8f9"/><path d="M1405.32,36.35q19.2,0,38.42,0c-.82,5.92-.38,11.93-1.66,17.8l-3.43-.44c.09,8.63,0,17.27.06,25.9l-2.9,0q-.58-2.56-1.19-5.13c-.49-4.86-6.74-4.6-10.36-4.62.35,6.23-.07,12.48.22,18.71a4.54,4.54,0,0,0,5,4.34c3.86.59,7.44-2.1,9.12-5.43,2.14-4.18,3.06-8.84,4.3-13.34l2.89.08a122.8,122.8,0,0,1-1.91,24c-12.89-.07-25.77,0-38.65,0,0-.8.09-2.38.11-3.18,1.82-1.18,4.1-1.53,5.78-3,2.19-1.84,1.9-5,2.17-7.55,0-11.69,0-23.39,0-35.08-.3-2.5-.27-5.67-2.62-7.21-1.51-1.27-3.53-1.47-5.36-1.82C1405.29,39.07,1405.3,37.71,1405.32,36.35Zm18.94,5.23c.21,7,.23,14,0,21a25.15,25.15,0,0,1,7.09-.59c3.27-1.62,3.73-5.46,4.52-8.63l3.29.12c-.13-1-.4-3.15-.53-4.2-.84-2.22-1.14-5-3.6-6.07C1431.57,42,1427.83,42.06,1424.26,41.58Z" transform="translate(-28.38 -3.9)" style="fill:#faf8f9"/><path d="M1639.67,36.35h26.65c0,1.38,0,2.76,0,4.14-3,0-5.47,1.77-7.49,3.83-.79,10.39-.45,20.81-.51,31.23,0,4.81-.3,9.7.78,14.43,1.14,3,4.59,3.65,7.22,4.73q0,1.76.06,3.51c-8.89,0-17.78,0-26.66,0,0-1.14-.06-2.27-.06-3.4,2.55-1.35,6.48-1.53,7.4-4.78,1.23-9.13.44-18.36.67-27.54a177.29,177.29,0,0,0-.54-18.15,9.93,9.93,0,0,0-7.46-3.87C1639.67,39.12,1639.65,37.73,1639.67,36.35Z" transform="translate(-28.38 -3.9)" style="fill:#faf8f9"/><path d="M108.92,43.86c5.89-4.84,13.89-7.26,21.43-5.72,6.3,1,11.55,5.35,14.87,10.63-2.59,3.33-5.41,6.47-8.11,9.71-2-2.78-4.13-5.8-7.53-6.94-5.08-2.16-11-.43-15,3.16-4.93,4.07-6.75,10.64-6.93,16.8.07,6.08,3.54,12.83,9.93,14.15,6.65,1.47,12.67-2.77,16.78-7.57,1.91,3.12,4.31,5.91,6.17,9-4.45,5.51-10.67,10.08-17.84,11.09-7.35,1.14-15.42-1-20.4-6.71a26,26,0,0,1-6.4-18C95.47,62.39,100,50.85,108.92,43.86Z" transform="translate(-28.38 -3.9)" style="fill:#faf8f9"/><path d="M349.59,40.9a25.09,25.09,0,0,1,21.11-1.59,23.84,23.84,0,0,1,10.75,9.54c-2.61,3.29-5.43,6.4-8.15,9.59-2.06-3.09-4.56-6.24-8.34-7.2-7.64-2.52-15.8,2.82-18.9,9.75-2.26,5.63-3.25,12.35-.39,18a11.88,11.88,0,0,0,13.85,6.59c4.6-.86,8-4.24,11-7.52,2,3.06,4.1,6.06,6.34,9-5.22,6.44-12.84,11.67-21.42,11.47a21.35,21.35,0,0,1-18.27-8.55c-5.33-6.81-5.88-16-4.56-24.25C334.34,55.49,340.4,45.84,349.59,40.9Z" transform="translate(-28.38 -3.9)" style="fill:#faf8f9"/><path d="M448,38.15c6.9-1.35,14.67.17,19.85,5.14a26.56,26.56,0,0,1,8,17.3c.88,11.69-3.43,24.17-12.77,31.6-6.92,5.85-17.06,8-25.6,4.7-6.09-2.23-10.45-7.66-12.73-13.58C418.42,65.55,428.72,42.1,448,38.15Zm-.91,12.18C438.65,54,434.31,63.88,434.85,72.7a16.29,16.29,0,0,0,6.78,12.39,11.74,11.74,0,0,0,11.35.17c11.15-5.82,15.45-23.25,6.28-32.58C456.23,49.37,451.14,48.72,447.09,50.33Z" transform="translate(-28.38 -3.9)" style="fill:#faf8f9"/><path d="M735.39,38.36c2.68,1.4,5.5,2.55,8.09,4.11-.67,3.68-4.86-.71-7.07-1.06-.14.65-.42,2-.55,2.61,1.77,1,3.65,1.8,5.51,2.66C740,50,736.9,46.47,734.73,46c-.54,1-1.08,2-1.59,2.94,2.14.91,4.24,1.94,6.34,3l-.89,2c-2.82-1.47-5.76-2.68-8.61-4.08C731.84,46,733.62,42.19,735.39,38.36Z" transform="translate(-28.38 -3.9)" style="fill:#faf8f9"/><path d="M28.38,39.3H40.82C43.5,51.43,46.37,63.51,49,75.64c5.47-12.11,11-24.18,16.44-36.32,4.21,0,8.42,0,12.63,0C69.24,58.72,60.34,78.13,51.59,97.6c-3.34,0-6.69,0-10,0C37.34,78.13,32.63,58.76,28.38,39.3Z" transform="translate(-28.38 -3.9)" style="fill:#faf8f9"/><path d="M80.23,48.08c.4-2.94.58-5.92,1.26-8.81,3.76,0,7.53,0,11.29,0C90.53,58.74,88.43,78.18,86.1,97.6q-5.67,0-11.35,0C76.33,81.07,78.53,64.6,80.23,48.08Z" transform="translate(-28.38 -3.9)" style="fill:#faf8f9"/><path d="M145.25,97.6c2.05-19.45,4.22-38.9,6.62-58.31,12.06,0,24.11,0,36.17,0-.56,3.9-1,7.82-1.46,11.73q-12.29,0-24.56,0c-.62,3.88-.94,7.81-1.4,11.71,7.37.05,14.73,0,22.1,0-.37,3.77-.77,7.53-1.14,11.3-7.45,0-14.9,0-22.35,0-.27,3.94-.76,7.85-1.3,11.76q12.8,0,25.6,0c-.54,3.9-1.08,7.81-1.41,11.73Q163.69,97.62,145.25,97.6Z" transform="translate(-28.38 -3.9)" style="fill:#faf8f9"/><path d="M189.4,97.6q3.09-29.17,6.62-58.31c7.84,0,15.69,0,23.54,0,5.46.31,11.94,2.49,13.92,8.14s1.21,11.62-.23,17.16a19.64,19.64,0,0,1-10,12.4c3,7,6.84,13.6,9.88,20.58-4.75-.21-9.68.5-14.32-.34-2.88-5.92-5.61-11.92-8.55-17.81-2.43-.06-4.86-.06-7.29-.06-.84,6.06-1.38,12.16-2.14,18.23Zm16.77-46.95c-.64,5.66-1.25,11.33-2,17,4.52-.11,9.19.48,13.57-.94,2.7-.75,3.86-3.59,4.58-6,.81-3.08,1.15-7.48-2.36-9C215.6,49.87,210.74,50.89,206.17,50.65Z" transform="translate(-28.38 -3.9)" style="fill:#faf8f9"/><path d="M245.44,39.3c8,0,16.05-.06,24.07,0,5.72.35,12.31,3.16,13.79,9.26,2.12,10.22-.29,23.47-10.67,28.35,2.93,7.06,6.87,13.64,9.9,20.65-4.75,0-9.5,0-14.24,0-2.74-6.14-5.68-12.2-8.68-18.22h-7.25c-.82,6.06-1.35,12.15-2.14,18.22H238.83Q241.94,68.43,245.44,39.3Zm10.17,11.33c-.7,5.66-1.23,11.35-2,17,5.24-.27,11.25,1,15.81-2.24,2.6-3.62,4.68-10.19.55-13.42C265.6,49.64,260.37,51,255.61,50.63Z" transform="translate(-28.38 -3.9)" style="fill:#faf8f9"/><path d="M288.29,97.6q3-29.17,6.61-58.31c12.05,0,24.11,0,36.17,0-.58,3.9-1,7.81-1.46,11.73-8.18,0-16.35,0-24.53,0-.67,3.89-1,7.83-1.42,11.74,7.37.05,14.74,0,22.1,0-.37,3.77-.77,7.54-1.16,11.31-7.45,0-14.89,0-22.34,0-.26,3.94-.74,7.86-1.3,11.77q12.8,0,25.6,0c-.55,3.9-1.06,7.81-1.41,11.74Z" transform="translate(-28.38 -3.9)" style="fill:#faf8f9"/><path d="M383.11,50.63a82.72,82.72,0,0,1,1.3-11.22c13.14-.25,26.29,0,39.44-.1-.33,3.78-.76,7.56-1.34,11.32H408.43c-1.45,15.68-3.6,31.28-5.14,47-3.88,0-7.75,0-11.62,0,1.91-15.65,3.48-31.33,5.42-47C392.43,50.62,387.77,50.64,383.11,50.63Z" transform="translate(-28.38 -3.9)" style="fill:#faf8f9"/><path d="M479.15,97.6c2-19.45,4.19-38.91,6.64-58.32,7.91.07,15.81,0,23.72,0,5.78.28,12.44,3,14.07,9.14,2.19,10.33-.34,23.53-10.69,28.59,3.07,7,6.87,13.58,9.93,20.54-4.75,0-9.5,0-14.25,0-2.78-6.13-5.66-12.22-8.69-18.23-2.44,0-4.87,0-7.3,0-.7,6.07-1.24,12.16-2.08,18.22Zm16.78-47c-.66,5.68-1.4,11.34-2,17,5.3-.34,11.65,1.2,16.05-2.55,2.51-3.84,4.58-11.07-.59-13.61C505.07,50,500.4,50.86,495.93,50.62Z" transform="translate(-28.38 -3.9)" style="fill:#faf8f9"/><path d="M534.71,42.47a10.35,10.35,0,0,1,.57-3c3.76-.34,7.55-.08,11.33-.14-2.28,19.43-4.36,38.88-6.68,58.3H528.55C530.43,79.2,532.7,60.85,534.71,42.47Z" transform="translate(-28.38 -3.9)" style="fill:#faf8f9"/><path d="M571,39.28c3.77,0,7.55,0,11.33.07,4.88,19.43,9.88,38.83,14.72,58.28-4.11,0-8.23,0-12.33,0-.91-4.21-2.06-8.37-3.11-12.54H561.48c-2.09,4.13-4.17,8.27-6,12.52-4.14,0-8.28,0-12.41,0C552.27,78.1,561.79,58.76,571,39.28Zm-4.08,34h11.74C577.43,68,576,62.73,574.75,57.43,572,62.63,569.76,68.13,566.93,73.32Z" transform="translate(-28.38 -3.9)" style="fill:#faf8f9"/><path d="M680,44.63c3-1.31,6.5-4.89,9.78-2.35a9,9,0,0,1,3.45,7.39c-.39,2.51-3,3.54-4.88,4.73-.94.45-2.25,1.73-2.82.14C683.57,51.3,681.94,47.87,680,44.63Zm3.33.21c1.11,2.66,2.63,5.12,4,7.67,1.28-.87,2.57-1.76,3.82-2.7A29.36,29.36,0,0,0,688.44,44,31.19,31.19,0,0,0,683.32,44.84Z" transform="translate(-28.38 -3.9)" style="fill:#faf8f9"/><path d="M740.31,55.16c2.37-3.41,4.75-6.82,7.32-10.08l1.9,1.63c-2,2.64-3.95,5.39-5.93,8.08,1.24,1.73,6.53,2.82,3.81,5.32C744.94,58.6,742.67,56.81,740.31,55.16Z" transform="translate(-28.38 -3.9)" style="fill:#faf8f9"/><path d="M671.47,51.27c.64-.51,1.32-1,2-1.46,4,1.71,7.52,4.26,11.42,6.13l-1.49,2c-.94-.51-1.89-1-2.86-1.4a43.55,43.55,0,0,0-4,2.6,3.25,3.25,0,0,1-.91,4.82C674,59.86,672.8,55.54,671.47,51.27Zm2.95,1.7c.5,1.43,1,2.85,1.56,4.28.76-.69,1.55-1.37,2.33-2.06C677,54.46,675.71,53.72,674.42,53Z" transform="translate(-28.38 -3.9)" style="fill:#faf8f9"/><path d="M705.1,50.42c8.38-1.48,17.26-1,25.17,2.33,12.68,4.87,22.39,15.1,29.86,26.13,13.73,21.73,18.58,48.29,16.4,73.68-2.11,21.2-8.89,42.65-23,59-8.32,10.1-19.92,18-33,20-11.53,2.07-23.49-1.58-33-8.05-11.48-7.58-19.55-19.2-25.73-31.28a116.48,116.48,0,0,1-10.69-50.81c-.6-27.39,8-56,27.37-75.89C685.78,58.31,694.94,52.69,705.1,50.42Zm-.06,4c-15.81,3.34-28,15.44-35.8,29-2.81,4.58-4.58,9.68-7,14.46-4.55,11.32-6.67,23.47-7.57,35.59-1.08,8.32.25,16.65,1,24.93,1.68,10.62,4.12,21.31,9.06,30.93,4.86,10.37,10.78,20.73,20,27.81,9.25,7.28,20.86,12.46,32.86,11.15,16-1.75,29.83-12.39,38.31-25.67a102.24,102.24,0,0,0,14.6-35.17c5.62-29,2.58-60.54-12.93-86.1-5.49-8-11.71-15.88-20.16-20.89C728,54.52,716.07,51.68,705,54.44Z" transform="translate(-28.38 -3.9)" style="fill:#faf8f9"/><path d="M757,60.61c1-1.23,1.77-3,3.55-3.22a7.44,7.44,0,0,1,5.09,4.23c.75,1.54-.61,5.17-2.4,2.87a4.16,4.16,0,0,0-2.62-4.89c-1.5,2.67,1.72,5.21,1.91,7.94a13.69,13.69,0,0,1-4.53,3.2c-3.12-1.73-6.68-5.24-4-8.93,3.57-.13.1,4.61,2.81,5.57l3.14.36C759.09,65.3,758,63,757,60.61Z" transform="translate(-28.38 -3.9)" style="fill:#faf8f9"/><path d="M658.57,64.88c2.24-2.08,3.74-5.66,7.06-6.17a9.89,9.89,0,0,1,7.45,6.74c-.55,3-3,5-4.74,7.27C665.12,70.06,661.92,67.36,658.57,64.88Zm3.32-.91a76.38,76.38,0,0,0,6.21,5.15,7.08,7.08,0,0,0,2.36-2.9c-.18-2.49-2.78-4-4.91-4.81C664.08,61.83,663.1,63.13,661.89,64Z" transform="translate(-28.38 -3.9)" style="fill:#faf8f9"/><path d="M1043,58.8c3.45,0,7.06,1,9.38,3.74,5.58,6.37,8.33,14.7,9.7,22.94a19.32,19.32,0,0,0,8,12c-5.64,1.46-7.06,7.93-11.54,11a25.36,25.36,0,0,1-23.21,5.74c-5.83-1.65-12.09-3.46-16.26-8.15-9.38-10-8.81-27.4,1.43-36.56,3.89-3.31,8.62-6.42,14-6.06A13.57,13.57,0,0,1,1048.38,76a22.87,22.87,0,0,1-1.41,4.62c-3.21,2.47-7.4,4.38-11.48,3.07-1.38-.06-1.63-1.57-2.34-2.42,3.21.12,7-.63,8.53-3.84a3.89,3.89,0,0,0-2-5.37c-3.84-1.65-9-1.77-12.12,1.35-9.49,8-4.06,25.18,7,28.73,5.15,1.73,10.94.73,15.7-1.72,4.66-2.25,6.87-7.85,6.35-12.82A50.82,50.82,0,0,0,1049.86,66C1048.07,63.17,1045.23,61.26,1043,58.8Z" transform="translate(-28.38 -3.9)" style="fill:#faf8f9"/><path d="M701.73,72.8c2.61-2.82,5.1-6,8.78-7.49,7.52-1.2,14.76,2.17,20.58,6.63a37.62,37.62,0,0,1,14.45,11.73,24.28,24.28,0,0,1,3.24,13.27,14.92,14.92,0,0,1,3.09,13.64c-1.34,8.08-9.3,13.88-8.53,22.49,5.28-.45,9.07,3.69,11.51,7.84,3.37,8.17-.14,18.85-8.39,22.57-2.78,1.45-6,1.46-9,1.33a29.2,29.2,0,0,0,6.91,12.66,13.93,13.93,0,0,1,3.67,12.2c-1.89,10.42-6.61,20.75-14.87,27.64-4.38,3.55-10.11,4.77-15.65,4.63-9.23.31-19-1.91-25.95-8.31-1.19-6.38,2.23-12.25,7-16.19,6.16-4.92,7.19-13.18,8.67-20.4-5,.72-11.13,2-15.13-2.1-2.52-1.51-1.71-4.57-1.74-7a4.58,4.58,0,0,1-4.35-4,27.42,27.42,0,0,1-2.53-3l-2.12-.33c-1.41-1.42-3.14-2.89-2.41-5.13a112.84,112.84,0,0,0,1.32-17.61,23.8,23.8,0,0,1-1.12-5.4c-3.62-1.89-6.95-5.55-6.27-9.93-.26-6,4.45-10.37,8.6-14,3-5.85,6.92-11.13,10.73-16.45C695.72,85.81,697.13,78.43,701.73,72.8Zm4.56-.48c-5.49,7.81-8.32,17.14-13.87,24.91-2.57,4.12-6.35,7.46-8,12.12,2.08,0,4.15,0,6.24-.07,1.84.67-.79,3.12-2,2.41a12.89,12.89,0,0,0-9.92,3.06l.73,1.45a37.59,37.59,0,0,0,3.1-3.33,19.68,19.68,0,0,0,4.89,1.07c1.5,1.47,3.26,3.16,2.89,5.5l-2.34-.7c-1.38-.12-2.75-.27-4.11-.46,1.64,5.68,7.47,8.43,13.06,8.19-2.93-2.14-7-1.6-9.71-4.2l.6-1.24c3.51,1.59,7.59,1.9,10.62,4.46,1.78,1.45,4,1.92,6.17,2.64,2.68.76,3.82,3.62,5.92,5.22,2.33,0,.3-2.84.71-3.94l-1.21-.1c-2.67-3.46-7.86-2.66-10.4-6.17,4.22,1,8.45,2.29,11.64,5.29,2.53-1.15,1.23-3.51.3-5.35-9.27,3.37-20.49-5.11-19.42-15,1.17-1,2.29-2,3.45-3-.53,2.4-2,5-.74,7.4,2.22,7.82,12.74,11.82,19.54,7.15l-1.19,3c.76,1.07,1.57,2.11,2.41,3.12-.41-2.41-1.8-4.84-.61-7.27.59.21,1.18.45,1.78.69-1,2,.65,3.63,1.39,5.3a14.69,14.69,0,0,0-4.51,4.12c.26,1.56-.22,3.49,1,4.72,1.24,1.87,3.73,1.67,5.52.78-2.51-2.36-.47-5.27.69-7.57l-2.18-1.75a20.08,20.08,0,0,1,3.23-4.49q.24-1.52.51-3c-1.32-.91-4.07-2.68-4.26.55l-1-1a4.58,4.58,0,0,0,.33-2.87c-2.37,2.79-5.17,5.71-9,6.14-5.4-.53-11.06-3.93-12.47-9.45-.58-3.44,1-6.85,3.09-9.5,2.36-3.85,10.19-1.3,8.91,3.44.06,2.3-2.47,3.4-4.38,2.68.33-1.28,2-2.45,1.11-3.79-.88-1.16-2.55-.29-3.75-.43-.6.86-1.2,1.73-1.78,2.59-.47,2.73-.77,5.74.89,8.17a12.28,12.28,0,0,0,7.25,3.83,7.93,7.93,0,0,0,7.8-6c-.89-5.8-4.13-10.67-7.39-15.38,5.9,1,6.74,7.85,8.58,12.43a9.38,9.38,0,0,0,8.3,7.2,27.31,27.31,0,0,0-3.78-9.3c-1.87-2.63-3.62-5.64-3.36-9,.13-4.35-.67-8.66-.49-13a11.69,11.69,0,0,0-.88-5.61c.41-.35.81-.72,1.21-1.1,2.32,8-.76,16.81,2.3,24.65,2.32,3.5,4.69,7,5.63,11.21,1.3-1.35,2.46-3,4.15-3.86a54.18,54.18,0,0,0,8.15.89,30.84,30.84,0,0,0,0,4.3c-.2,1.24-.47,2.46-.67,3.7,2.86,0,5.92.25,8.57-1.06,2.9-3.91,5.31-8.93,3.77-13.87-1.22-2.73-3.33-5-4.33-7.82,2.8-2.68,0-6.65-1.6-9.25-3.76-4.55-8.23-9-13.84-11.07-2.83-2.11-5.42-4.72-9-5.45C715.92,69,709.51,67.94,706.29,72.32Zm22.14,39a14.86,14.86,0,0,0-2.3,5.34c-.7,3.15-3.83,4.72-5.7,7.08,2,1,4.33.89,6.48,1.43,1.48.74,2.06,2.37,2.56,3.83,1.58-.95,3.18-1.89,4.81-2.78a37.61,37.61,0,0,0,6.89,1.49,68.35,68.35,0,0,1,3.51-7.07c-4-.18-8.11,0-11.79,1.71a60.06,60.06,0,0,1,3.27-5.13c0-1.45-.1-2.91-.18-4.36C733.46,112.41,731,111.45,728.43,111.35Zm-50.82,4.3c-1.53,4.58-1.94,10.35,2.44,13.52,0-2.95.9-6-.11-8.86q-1.16,2.34-2.48,4.58a7.68,7.68,0,0,1,1.81-6C678.72,117.78,678.19,116.7,677.61,115.65Zm4.15,6.59c0,3.45.35,6.89.52,10.33,0,2.41,1.74,4.48,1.58,6.91a122,122,0,0,1-2.37,17.24c2.68.14,5.11-1.1,7.61-1.86-.35-.7-1.05-2.12-1.41-2.83,1.69.47,2.35,2.08,3.14,3.48-1.19.91-2.41,1.8-3.65,2.61,0,.64,0,1.91,0,2.55,2.39,1.24,5.81-.75,7.75,1.79a41.21,41.21,0,0,0-5.87.92c1.26,1.2,3,2.07,3.87,3.65.43,1.7.16,3.56.93,5.18,2.36,2.83,6.38,2.38,9.69,2.34,7.38-.23,14-4.29,19.33-9.06-2.64,4.75-8,7.12-12.65,9.4-.19,7.77-2.33,15.76-7.46,21.75-3.21,4-8.74,7.31-8.43,13.11,1.05-1.7,1.54-4.1,3.65-4.85a17.63,17.63,0,0,0,7.11-4.75c4.16-4.74,9.39-8.29,14.29-12.2-.35,1-.71,1.91-1.08,2.85a6.63,6.63,0,0,0-2.84,2.29l3.7-1a22.16,22.16,0,0,1-4.15,4.5l-1.08-3.05-4,3.39c1.18.4,2.34.71,3.56,1-.8,1.11-2.8,1.71-2.7,3.25l.63.31a12.83,12.83,0,0,1,2.25,1.54l2.08-1.33c-.22,2.18-2.42,3-4,4,.12-.8.37-2.39.49-3.18l-4.59,2.78,2-3c.94-1.55.22-3.07-.65-4.42a13.07,13.07,0,0,1-4,4c1.19.46,2.38.85,3.61,1.28l-3,1.78,1.62,1.56c-1.28.91-2.6,1.79-3.95,2.57.35-1.36.8-2.68,1.17-4l1-.63c-1.41-1.15-3.42-.65-4.87.14l2.47,1.71c-.9.87-1.83,4-3.29,2.13.27-.52.82-1.54,1.1-2.06a19.09,19.09,0,0,0-1.68-1.32c-1.52,1.59-3.31,3.71-2.23,6.09L695.33,210c-1.13,3,3.49,7,5.68,3.74,0,.56,0,1.67.06,2.23,2.19.84,5,3.12,7.21,1.46,1-2,1.85-4.41,4.71-4-.77,2-2.55,3.2-3.77,4.85,4.23,1.63,8.91.54,13.34.8s8.18-2.39,11-5.51c.61-1.39,0-4.66,2.73-3.7.44-.78.87-1.56,1.32-2.34l-1.85-.26c-1.27-1.66,2.11-3.48,3.38-2.11.53-2.4,3.44-4.31,2.1-6.87a12.2,12.2,0,0,0,3-7.64l-3.24-1,3.78-1.78a29,29,0,0,0-1.58-6.37c-1.53.07-3.13.7-4.54-.07,0-.21,0-.64,0-.85l3.63-.16c-4.78-4.93-6.71-11.57-8.55-18-3-1.53-5.8-4.36-5.29-8,1.78,2.2,3.46,4.8,6.21,5.91,5.86,2.39,12.87.09,16.67-4.84,2.4-5.36,2.24-12.38-2.18-16.72-2.4-2.22-5.75-1.2-8.57-.64,0-2.58,0-5.16,0-7.74-2-.52-4-1.19-6.05-1.54-2.71-.23-4.39,2.29-6.25,3.81-.14-1.36-.31-2.72-.52-4.06-.8-2-3.14-1.66-4.86-1.88l-1.35,1.85c0,.74,0,2.22-.05,3,.84.9,1.69,1.8,2.57,2.67l2.47-1.17c-.69,2.17-1.64,4.6-.34,6.75,2,4.11,7.28,4.69,11.34,4.09,1.88-1.09,3.6-2.41,5.39-3.63a9.76,9.76,0,0,1-10.58,6.3,10.14,10.14,0,0,1-8.57-10.41c-2.34-2.41-4.79-.48-7.08.78a46.11,46.11,0,0,0-5-2.06l.91,2.52c1.59,3.68,7.12,2,8.66,5.7-2.82.48-5.54-.82-7.68-2.53s-2.49-4.94-5.34-5.47a18.22,18.22,0,0,0,7.21,10.61c4.69,3.16,10.86.58,15.54,3.87.06.69.18,2.05.25,2.73,3,3,7.59,4.94,11.85,3.75,3-.67,5.32-3.25,6.66-5.92-2.41,1.77-4.27,5.72-7.87,4.76,1.09-2.35,4-2.53,5.6-4.31.94-1.69,1.18-3.68,2.28-5.3,0,.92,0,2.77,0,3.7l1.39.26c-1.23,3.41-3.12,6.93-6.57,8.52-6.78,2.55-15.16-1.44-17-8.59-1.13,2.13-1.67,4.91-4.14,5.93-1,.87-2.91.26-2.72-1.17,1.44-1.5,3.81-1.57,5.42-2.92-1.11-1-2.39-.57-3.59-.15-2.71-1.37-5.9-1.84-8.22-3.92-3.82-3.16-5.67-7.88-8.28-11.95a23.27,23.27,0,0,0-2.4-1.54c-1.27-1.54-2.19-3.68-4.18-4.39-2.81-.46-5.79.28-8.44-.94-4.35-1.33-6.63-5.71-8.26-9.6C680.56,118.85,680.24,120.79,681.76,122.24Z" transform="translate(-28.38 -3.9)" style="fill:#faf8f9"/><path d="M656.6,67.79c3.56,2.19,6.95,4.65,10.53,6.81l-1.45,2.26c-3.45-2.23-6.75-4.67-10.21-6.87C655.84,69.26,656.21,68.52,656.6,67.79Z" transform="translate(-28.38 -3.9)" style="fill:#faf8f9"/><path d="M758.38,72.8c4.31-1.24,8.78-1.79,13.16-2.73L773,72.39c-2.66,3.47-5.14,7.07-7.83,10.51l-1.63-2c.66-.82,1.31-1.63,2-2.44-1.22-1.45-1.68-4.34-4.14-3.77C759.92,75.05,759.3,73.53,758.38,72.8Zm6.81,1c.54.88,1.11,1.77,1.67,2.65.87-1.15,1.77-2.28,2.65-3.43C768.06,73.28,766.62,73.55,765.19,73.81Z" transform="translate(-28.38 -3.9)" style="fill:#faf8f9"/><path d="M650,80.82c-.29-3.72,2.65-8,6.84-6.66-.78,1.78-2.51,2.43-4,3.35,0,.82-.1,2.47-.13,3.29,2.61-1.73,5-6.09,8.64-4.2,5.06,2.85-1.17,12.28-5.52,8,1.8-1.64,7.07-2.48,4.25-5.82-2.79,0-3.75,4-6.56,4C652,83,651.15,81.49,650,80.82Z" transform="translate(-28.38 -3.9)" style="fill:#faf8f9"/><path d="M765.54,84.36c3.67-1.86,7.35-3.72,11.06-5.53.25.59.77,1.76,1,2.34-3,1.44-6,3-9,4.42.57,1.83,4.39,6.19.79,6.18C767.92,89.41,766.84,86.82,765.54,84.36Z" transform="translate(-28.38 -3.9)" style="fill:#faf8f9"/><path d="M643.3,93.45c1.25-2.77,1.77-6.22,4.25-8.19,2.73-1.14,5.2,1.31,5.26,4a20.33,20.33,0,0,1,6.36-1.42c-.41,4.93-7.34,1.71-8,6.13,1.59.59,3.2,1.18,4.81,1.73-.28.6-.85,1.79-1.13,2.38C651,96.53,647.14,95,643.3,93.45Zm2.91-1.75c.94.43,1.91.85,2.88,1.28.59-1.45,1.14-2.91,1.73-4.36-.77-.32-1.55-.61-2.33-.87A24.57,24.57,0,0,0,646.21,91.7Z" transform="translate(-28.38 -3.9)" style="fill:#faf8f9"/><path d="M770.8,95.49c3.55-2.78,7-5.72,10.6-8.42.12.64.37,1.91.49,2.55-2.28,2.22-5,4-7.44,6,3.35,0,6.71-.07,10.06.07,0,.83.16,1.66.23,2.49a124.63,124.63,0,0,0-13.11,0C771.42,97.49,771,96.16,770.8,95.49Z" transform="translate(-28.38 -3.9)" style="fill:#faf8f9"/><path d="M1081,94.56c1.56-3.67,5.42-6.56,9.54-6,2.24-.25,4,1.37,5.94,2.2,2.79.7,5.42-.91,7.83-2.08-1.1,3.58-.67,7.31-.13,10.93.47,2.84-1.52,5.24-2.87,7.52,4.64-1.41,9.51-.8,14.29-1,3.46-.12,6.8-1.11,10.18-1.8-3.53,7.62-8.29,14.56-12.7,21.69-4.63-2.68-10.28-4.16-15.53-2.56-4.08,1-7.35,3.71-10.55,6.25-.11-3.66-1.63-8-5.54-9-4.08-1.69-8.53,1.4-12.38-1a8.69,8.69,0,0,1,2.67-6.93C1076.46,107.64,1078.61,100.92,1081,94.56Z" transform="translate(-28.38 -3.9)" style="fill:#faf8f9"/><path d="M974.37,104.41c2.54-7.57,9-14.21,17.14-15.35,8.58-.56,18,5.47,18.59,14.59a12.13,12.13,0,0,1-5.56,1.32c-3.06-3.27-7.3-6.41-12-5.59-2.88.22-4.6,2.78-6.94,4.09-1.44.11-2.88.17-4.31.19.24,3.08-1,6.92,2.11,8.92,1.06-.33,2.12-.66,3.21-1a51.55,51.55,0,0,1,3.73-10.46,28.94,28.94,0,0,1,5.4-1.4,65.62,65.62,0,0,0,3.76,10.73c1.65-.18,3.33-.35,5-.45,3.32,4.41,9,5.09,14.11,5.59,5.12.35,8.74,4.31,12.43,7.4,3.65,3.46,9.2,2.86,13.26,5.58,7.71,5.46,10.66,15.41,18.31,20.9,3.18,2.49,7.21,2.34,11,2.5-1.76,4-7.1,2.72-10.52,2.15-9.34-2.29-13.61-11.55-19.61-18,2.43,5.24,4.43,10.76,7.83,15.49,7.87,10,20.74,15.33,33.38,14.56,1,1.74,2,3.51,3,5.32a41.35,41.35,0,0,1,5.23-1c.39,5.16,4.54,9.08,9.22,10.68,6.75,3.16,15.12,1.56,20.58-3.39,4-3.58,6-8.89,6.61-14.1.12-5.65-2.39-11.91-7.86-14.28-6.16,1.83-9.67,8.24-15.84,10.11a36.77,36.77,0,0,1-17,1.2c-5.13-1-10.19-4.74-11.07-10.17-1.65-4.72-1.73-10.39,1.57-14.41,1.43-1.95,3.9-2.33,6.12-2.77,2.5-5,8.37-6.39,13.39-7.45,4.53-.35,9.68-1,13.52,2,3.56,2.69,4.32,7.39,4.88,11.53,5-.64,10.48-.21,14.55,3,6.87,4.75,10.4,12.92,11.79,20.92a28.39,28.39,0,0,1-5.33,20.15c-7.8,10.5-21.28,17.44-34.49,15-5-.6-9.34-3.71-13-7a41.41,41.41,0,0,1-10.87-21.19c-5.38-2.72-11.53-2.17-17.17-3.88-9.21-4.12-17.91-11-21.4-20.78-2.5-6.16-5.44-12.8-11.5-16.22-4.57-3-10.18-2.94-15.27-4.39a33,33,0,0,1-21.8-14.28,116,116,0,0,0-.76,18.26l-3,1.17,2.64,1.54c-.26,4.47-.09,9.07,2.31,13,1.34,12-1.79,24-2.6,35.92A20.31,20.31,0,0,0,992,186a25.07,25.07,0,0,1,5.85-1.52c1.24.81,2.54,1.55,3.76,2.43.12,2.21-.4,4.5.52,6.62a56.1,56.1,0,0,1,11.37-2c1.65.32,3.41,1.27,3.81,3.06-3.26,1.63-7.41.94-10.58,3.13-.07,1-.12,2.05-.15,3.08,3.08.62,6.24,2.16,7.61,5.16.69,3.55-.77,7.85,2.08,10.74,4.4,4.71,11.52,3.71,17.3,3.2,13.69-1.53,25.57-9,36.31-17.16,2.22-2.23,4.9.79,6.12,2.68-4.94,5.24-9.72,10.68-15.2,15.38-7.18,5.82-10.3,15.11-11.76,23.93-2,9.55-7.68,18-14.93,24.36-5.43,5.18-12.19,9.29-15.66,16.21-2.36,3.33-2.74,7.5-2.19,11.45-1.9-.51-4-1-5.27-2.62A18.16,18.16,0,0,1,1013.2,282c2.68-5.32,7.34-9.14,11.71-13,6.86-6.14,12.81-13.62,15.6-22.5a86.12,86.12,0,0,0,3.54-17c.5-2.9-2.24-4.81-4.39-6.14-4.4.64-8.8,1.48-13.26,1-5.43-1-11.63-2.12-14.74-7.27-3.17-3.11-1-8-3-11.46-2.36-1.77-5.62-2.32-7.34-4.88-.65-1.45-.42-3.1-.59-4.63-2.82-.86-5.11-3.25-4.92-6.33-4.3-.21-8.74-3-10.14-7.11-.55-12.19,3.34-24.12,2.77-36.29-.85-5.27-2.26-10.46-2.36-15.83a16.16,16.16,0,0,1-11.67-9C972.32,116.05,973,110,974.37,104.41Zm7-1.88c5-5.13,12.42-7,19.42-5.75-3-2.66-6.79-3.93-10.64-4.61C985.61,94,983.11,98.26,981.34,102.53Zm25,15.09a38,38,0,0,0,15.32,5.17C1017.42,119.15,1011.91,117.7,1006.38,117.62Zm84.47,15.19c0,.53,0,1.6.06,2.14,2.52,7.2,7.3,14.27,14.61,17.2,5.51,1.84,7.81-5.45,12.93-5.63,4.8-1.27,9.41,1.06,13.11,3.93-2.36-3.54-5.22-7.2-9.48-8.43-3.68-1.21-7.2,1.13-10.83,1.45-.28-4.73-.31-10.17-4-13.67C1102,127.46,1094.26,127.48,1090.85,132.81Z" transform="translate(-28.38 -3.9)" style="fill:#faf8f9"/><path d="M642.37,96.58c3.71.88.29,4.88.12,7.27l2.64.61a52.13,52.13,0,0,1,2-6.32c2.65,1.62.62,4.59,0,6.78l3.1,1.25c.72-2.25,1.36-4.53,2-6.8l2,.7a91.46,91.46,0,0,1-2.57,9.05c-3.86-1.15-7.8-2-11.57-3.39C639.63,102.79,641.79,99.59,642.37,96.58Z" transform="translate(-28.38 -3.9)" style="fill:#faf8f9"/><path d="M772.42,101.09c4.57.09,9.1.68,13.65,1.11l1,2.48c-3.65,2.72-7,5.86-10.9,8.2-1.42-2.06.33-3.27,1.84-4.44-.47-1.35-.92-2.7-1.36-4C774.71,104,773,103.16,772.42,101.09Zm6.48,2.84c.28,1,.58,2.08.91,3.11,1.2-.74,2.4-1.5,3.61-2.26C781.91,104.47,780.41,104.17,778.9,103.93Z" transform="translate(-28.38 -3.9)" style="fill:#faf8f9"/><path d="M339.26,103.54c4.51,2.68,9.35,4.77,13.87,7.45-4,3.41-8,6.77-11.89,10.24-.88.62-1.6,1.69-2.75,1.8-4.43.23-8.87,0-13.29.11C329.85,116.59,334.65,110.13,339.26,103.54Z" transform="translate(-28.38 -3.9)" style="fill:#faf8f9"/><path d="M639.37,107.77c3.79,2.57,8,4.54,11.53,7.5-.19.51-.58,1.53-.78,2-4.31,1.13-8.83,1.21-13.22,1.85l.6-2.7c3.25-.56,6.54-.83,9.83-1.14-2.78-1.68-5.63-3.24-8.38-5C639.06,109.71,639.27,108.42,639.37,107.77Z" transform="translate(-28.38 -3.9)" style="fill:#faf8f9"/><path d="M776.25,114.34c4.19-.36,8.29-1.33,12.47-1.87.24,3.1,2.31,7.17-.62,9.56-2.51,1.84-6.22,2.64-9,.91C776.76,120.74,777.05,117.2,776.25,114.34Zm2.47,2.59a16.43,16.43,0,0,0,1.71,4,9.41,9.41,0,0,0,6.89-1.42c-.26-1.33.12-2.89-.7-4A53,53,0,0,0,778.72,116.93Z" transform="translate(-28.38 -3.9)" style="fill:#faf8f9"/><path d="M1052.65,122.6c3.11-3.92,8.54-6.17,13.41-4.35a65.83,65.83,0,0,0-6,7c1.64,3.46,1.07,7.45,2.74,10.89a19.3,19.3,0,0,0,9.7,1.23c-.79,1.55-1.41,3.42-3.22,4-6.51,2.59-15.44.12-18.19-6.72C1049.54,130.79,1049.89,125.84,1052.65,122.6Z" transform="translate(-28.38 -3.9)" style="fill:#faf8f9"/><path d="M636.25,121.16c4.27.57,8.54,1.1,12.81,1.64l0,2.7c-4.13-.61-8.29-1-12.38-1.78C636.54,123.08,636.35,121.8,636.25,121.16Z" transform="translate(-28.38 -3.9)" style="fill:#faf8f9"/><path d="M781.89,126.16c3.85-2,9.69.6,9.39,5.3.61,5.73-7.71,8.42-11.32,4.52A6,6,0,0,1,781.89,126.16Zm-1.13,6.34c1,3.55,5.76,2.65,8.13,1-.3-1.42.43-3.42-1.07-4.32C785.48,127.14,779.61,128.68,780.76,132.5Z" transform="translate(-28.38 -3.9)" style="fill:#faf8f9"/><path d="M1647.29,130c1.68-1.83,3.38-3.65,5-5.52,4.47,18.67,9.19,37.28,13.73,55.93.7,3.29,2.85,6.87,6.54,7.21,0,.69,0,2.07,0,2.76-6.18,0-12.35,0-18.52,0-.32-3.87,5.57-3.59,5.15-7.82-1.21-6.11-2.18-12.32-4.17-18.23-4.12.2-8.29-.34-12.35.29-1.53,6.24-3.76,12.52-3.49,19,.48,3.12,3.84,3.91,6.52,3.89.06,1,.14,1.91.25,2.87-5.69.06-11.37,0-17,0l0-2.6c2.71-1.17,5.58-3.08,6.11-6.23,3.27-11.57,5.93-23.3,8.94-34.94C1645,141.06,1647.38,135.7,1647.29,130Zm1.56,8.35c-1.74,7.1-3.2,14.26-5.13,21.31,3.55,0,7.12,0,10.69,0Q1651.47,149,1648.85,138.34Z" transform="translate(-28.38 -3.9)" style="fill:#faf8f9"/><path d="M635.75,126.9c4.29.22,8.57.63,12.87.74,0,.64,0,1.93,0,2.57-2.91,1.41-5.72,3-8.51,4.61,2.63.06,5.26,0,7.89.12.23,1.33.76,3.05-1.32,2.66-3.59-.3-7.19-.36-10.76-.86-2-.85-.34-2.4.78-3,2.52-1.33,5.14-2.47,7.55-4C641.5,128.92,635.71,131.3,635.75,126.9Z" transform="translate(-28.38 -3.9)" style="fill:#faf8f9"/><path d="M1408.63,127.55c6.26-1.63,13.57.13,17.94,5.07,4.42,4.12,6.2,10.17,7.6,15.86,1.82,10.34,1.32,21.44-3.37,31-2.5,4.4-6,8.49-10.74,10.44-6.3,2.21-13.76,1.27-18.93-3.08-7.14-6.69-9.83-16.77-10-26.27a46.82,46.82,0,0,1,4.05-21.23C1398.08,134.05,1402.44,128.84,1408.63,127.55Zm-7.46,14a58,58,0,0,0,1.15,35.26c1.94,4.55,4.65,10.25,10.16,10.95a8.46,8.46,0,0,0,8.16-3.06c5.47-6.39,6.1-15.19,7-23.18-.46-9.5-2-19.48-7.7-27.37-2.49-2.84-6.81-5.15-10.48-3.17C1404.93,132.6,1402.71,137.29,1401.17,141.51Z" transform="translate(-28.38 -3.9)" style="fill:#faf8f9"/><path d="M1461.18,138.24c1.39-5,5-9.93,10.38-11a12,12,0,0,1,11.06,3.35c.25,4.79.05,9.6.07,14.4l-1.92-.6c-1.1-4-1-8.44-3.67-11.82a5.85,5.85,0,0,0-7.93-.43c-3.29,3.38-3.61,8.73-2,13,1.9,5.58,7.35,8.59,11.18,12.71,2.72,3.13,5.89,6.37,6.26,10.75,1.3,7.65-.86,17.08-8.2,21-5.69,3-12.87,1.41-17.23-3.17,0-5.42-1.53-10.73-1.48-16.16h1.84a37.21,37.21,0,0,0,4.46,13c1.85,1.68,3.58,4.33,6.42,4.07,4.35.67,7.32-3.86,7.8-7.66.09-3.09.38-6.34-1.08-9.18-3.39-6-9.86-9.35-13.77-14.94C1459.86,150.53,1459.89,144,1461.18,138.24Z" transform="translate(-28.38 -3.9)" style="fill:#faf8f9"/><path d="M1524.72,128.76c7.23-3.42,15.47-1.33,22.46,1.66.12,5.61-.78,11.18-.44,16.8l-1.23,0c-1.29-5.28-2.37-11.28-6.89-14.86s-11.6-2.3-15.2,2c-3.38,3.52-5,8.31-6,13-1.72,10.13-.81,21,4.09,30.11,3.14,5.77,9.5,10.23,16.23,9.72,2.87-.22,3.23-3.42,3.25-5.73-.06-5.05.41-10.21-1-15.13-.83-3.88-7.51-1.94-7.33-6.22,6.3-.08,12.61-.13,18.92,0-.26,2.46-2.63,3.49-4.18,5.06-1,5.51-.59,11.12-.67,16.69l3.38.07c.2,3.52-3.75,4.26-6.09,5.8a24.39,24.39,0,0,1-15.35,3.07c-7-.55-12.54-5.88-15.64-11.81-4.59-7.73-4.38-17.05-4-25.72C1510.53,143.53,1515.37,133.25,1524.72,128.76Z" transform="translate(-28.38 -3.9)" style="fill:#faf8f9"/><path d="M1776,127.76a19.45,19.45,0,0,1,14.64,1.51,23.65,23.65,0,0,1,9.22,11.25c4.15,10.07,4.16,21.41,1.89,31.94-2.22,7-6.18,14.14-13.17,17.26-6.61,2.58-14.7,1.43-20-3.46a33.57,33.57,0,0,1-8.81-19.63A48.13,48.13,0,0,1,1763,140C1765.77,134.71,1769.92,129.32,1776,127.76Zm.87,3.47c-4.37,2.09-6.51,6.86-7.9,11.24-2.51,9.09-2.33,18.78-.48,28,1.58,6,3.61,12.53,9,16.28,3.56,1.88,8.6,1.44,11.17-1.9,4.14-4.71,5.58-11.05,6.39-17.1,1.46-7.06.26-14.33-1.33-21.26-1.72-5.16-3.28-11-7.88-14.38C1783.19,130.31,1779.77,129.44,1776.91,131.23Z" transform="translate(-28.38 -3.9)" style="fill:#faf8f9"/><path d="M113.81,143.92c6-7.67,14.6-13.86,24.5-14.89,9.11-1.32,19,1.62,25.09,8.68,1.33,1.8,3.52,3.4,3.85,5.68-3.46,4-6.84,8-10.31,11.92-2.86-5.32-8.08-10-14.44-9.94-7.12-.69-14,3.36-18,9-4.54,6-5.61,13.91-4.93,21.21.73,7.61,6.88,15,14.91,15.16,7.65.35,14.22-4.38,19-9.93,2.65,3.79,5.51,7.45,8,11.34-6.28,8-15.72,14.13-26.1,14.67-7.74.25-16-1.93-21.52-7.65-6-5.61-9.16-13.66-9.71-21.74C103.4,165.64,106.45,153.33,113.81,143.92Z" transform="translate(-28.38 -3.9)" style="fill:#faf8f9"/><path d="M483.92,138.87c8.55-8.73,22-12.5,33.72-8.6,6.55,2,11.56,7.11,15.39,12.6-3.43,4.18-6.91,8.34-10.58,12.31-2.42-3.86-5.55-7.58-10-9.08-5.63-1.59-12.11-.85-16.82,2.79-7.72,5.05-11.11,14.7-10.75,23.62-.38,8.16,5.18,17.15,13.76,18.14,8.08,1,15.35-3.9,20.29-9.85,2.74,3.75,5.34,7.6,8.16,11.3-6.32,7.84-15.46,14.07-25.75,14.69-7.78.41-16.17-1.7-21.78-7.39a32.3,32.3,0,0,1-9.83-21C468.47,164.08,473.1,148.75,483.92,138.87Z" transform="translate(-28.38 -3.9)" style="fill:#faf8f9"/><path d="M1176.28,128.76c5.65-1.33,11.5-.43,17.25-.7,9.16-.94,18.44,4.54,22.38,12.83,4.35,7.75,3.74,16.91,3.32,25.46-1.09,8.69-5.73,17.59-13.85,21.59-9.33,4.17-19.78,1.86-29.65,2.39.11-.94.23-1.88.37-2.81,2.22-.17,4.78-.88,5.86-3.05,1.46-4.15,1-8.66,1.08-13-.14-11.8.28-23.61-.27-35.4-.69-3.1-3.47-4.9-6.51-5.14C1176.27,130.4,1176.28,129.31,1176.28,128.76Zm12.5,1.93q0,13.89,0,27.79c.24,8-.76,16.13,1.13,24,.79,2.91,3.65,4.62,6.53,4.87a15.37,15.37,0,0,0,11.74-8.19c4.3-7.81,4-16.93,3.57-25.55-1.19-6.57-3.5-13.4-8.7-17.89-2.32-2.2-5.51-3-8.27-4.41A30.86,30.86,0,0,1,1188.78,130.69Z" transform="translate(-28.38 -3.9)" style="fill:#faf8f9"/><path d="M1242.57,128.07h32.5a130.38,130.38,0,0,1-.5,14.79l-1.52.38c-.24-4.22-1.18-8.68-4.75-11.36-4-1-8.24-.53-12.35-.62,0,8.19,0,16.38,0,24.57,2.85,0,5.71,0,8.59,0,4.3-1,4.93-5.42,6-9,1.17,1.66.87,3.74.93,5.64-.05,5.39,0,10.79,0,16.19l-1.4,0c-.59-2.73-.67-6.57-3.91-7.5s-6.79-.3-10.15-.5c.41,7.51-1,15.23,1.11,22.57.63,1.79,2.68,2.41,4.13,3.42l3.35.58c2.38-.73,5.19-.84,7.11-2.62,3.81-3.33,4-8.8,5.32-13.35l1.2-.18a66.8,66.8,0,0,1-1.89,19.31c-11.23-.07-22.46,0-33.68,0l.2-2.78c2.91-.31,6.65-1.56,6.8-5.05,1.09-15.33.54-30.76.31-46.1a10.45,10.45,0,0,0-3.23-5.1c-1.33-.19-2.63-.39-3.93-.61C1242.69,130.07,1242.61,128.74,1242.57,128.07Z" transform="translate(-28.38 -3.9)" style="fill:#faf8f9"/><path d="M1335.9,128.76c6.42-1.35,13-.45,19.55-.68,6.67,1.2,12.48,7.4,12.54,14.33,0,4,.6,8.32-1.64,11.93-2.33,5.79-8.44,8.63-14.22,9.72-.25-3.37,3.62-3.49,5.46-5.43,4.34-4.09,4.12-10.64,3.35-16.07-.88-5.88-5.77-11.54-12-11.52-.11,14.17,0,28.34,0,42.51.3,3.95.22,8,1.37,11.82a16.8,16.8,0,0,0,6.5,2.18l.16,2.83c-7,0-14,0-21,0,0-1,0-1.94,0-2.9,2.29,0,4.14-1.33,5.88-2.68.54-2.73,1.3-5.46,1.22-8.27q0-17.53,0-35.06c0-3.65-.62-7.68-3.5-10.23l-3.6,0C1336,130.64,1335.93,129.39,1335.9,128.76Z" transform="translate(-28.38 -3.9)" style="fill:#faf8f9"/><path d="M1572.56,128.75c5.89-1.27,12-.45,17.94-.7,5.2-.38,9.83,3.2,12.13,7.66.91,4.21,1.67,8.64.44,12.87-1,3.88-3.62,7-6.48,9.66,4.29,9.39,6.93,20.12,14.77,27.38,1.65,1.9,5,1.84,5.65,4.63-4.65.26-10,.77-13.63-2.67-5.71-6.79-8.16-15.44-11.41-23.51-1.07-2.69-4.32-2.42-6.62-3.1.2,6.89-.44,13.84.33,20.68.29,3.87,4.13,5.9,7.69,5.79,0,.74,0,2.21,0,2.94-7.11,0-14.21,0-21.3,0,0-.73,0-2.19,0-2.92a6.54,6.54,0,0,0,7.07-5.94c.12-14,0-28.06.07-42.09,0-2.55-.25-5.5-2.21-7.35-1.27-1.06-3-.78-4.43-1C1572.57,130.54,1572.57,129.35,1572.56,128.75Zm12.74,2.34c.11,9.21,0,18.43.06,27.64,2.66-1,5.75-1.45,7.72-3.69,4.26-3.92,4.07-10.38,3-15.59-.71-3.86-3.76-6.62-7.16-8.22Z" transform="translate(-28.38 -3.9)" style="fill:#faf8f9"/><path d="M1691.45,128.9c5.85-1.68,12-.47,18.06-.85,8.75-.8,17.32,4.57,21.3,12.28,4.48,7.92,4.42,17.37,3.73,26.17-1.45,9-6.22,18.23-15,21.88-9.24,3.47-19.27,1.51-28.88,2,.1-.94.22-1.87.37-2.8a11.15,11.15,0,0,0,6.18-2.51c1.85-8,.88-16.34,1.12-24.5-.26-8.9.73-17.92-1-26.72a19.64,19.64,0,0,0-6.21-3.21C1691.19,130.17,1691.36,129.32,1691.45,128.9Zm12.69,1.81c0,14.93,0,29.85,0,44.77.21,4,.19,9.3,4.56,11,3.11,1.75,6.48-.16,9.35-1.54,5-3.08,7.22-9.08,8.42-14.56,1.37-10.41,1.52-22.12-5-31C1717.72,133.72,1710.79,131,1704.14,130.71Z" transform="translate(-28.38 -3.9)" style="fill:#faf8f9"/><path d="M30.22,205.73c12.3-25,24.15-50.24,36.31-75.32H80.65c6.26,25.12,12.77,50.18,19,75.3-5.22,0-10.44,0-15.66,0-1.26-5.37-2.66-10.71-4-16.07-8.78-.1-17.57-.08-26.35,0-2.31,5.45-5.18,10.64-7.5,16.08C40.87,205.77,35.54,205.69,30.22,205.73Zm30.87-31.17H76.18c-1.75-7-3.54-14-5.22-21C67.91,160.68,64.19,167.48,61.09,174.56Z" transform="translate(-28.38 -3.9)" style="fill:#faf8f9"/><path d="M195.73,130.42c4.69,0,9.38-.14,14.07.07,6.59,25,12.71,50.16,19.2,75.21-5.24,0-10.48,0-15.71,0-1.25-5.39-2.74-10.72-3.95-16.12-8.81-.06-17.63-.11-26.44,0-2.27,5.45-5.12,10.64-7.47,16.06-5.31.08-10.62,0-15.93.06C171.72,180.7,183.7,155.55,195.73,130.42Zm-5.4,44.14h15.13c-1.81-6.94-3.48-13.91-5.26-20.86C197.09,160.73,193.47,167.53,190.33,174.56Z" transform="translate(-28.38 -3.9)" style="fill:#faf8f9"/><path d="M233.16,205.71c3-25.1,5.57-50.24,8.69-75.32,9.93.25,19.91-.55,29.8.61,8,.92,16,5.08,20.11,12.26,5.6,9.39,5,21,2.9,31.34-2.34,10.55-8.12,21-17.8,26.36a40.14,40.14,0,0,1-16.28,4.74C251.44,205.75,242.3,205.71,233.16,205.71Zm21.67-60.32c-2,15.08-3.37,30.25-5.33,45.34,6.41-.16,13.28.87,19.18-2.25,6.29-2.85,10.19-9.28,11.49-15.87,1.51-7.18,2-15.74-3-21.7C271.65,144.55,262.39,145.49,254.83,145.39Z" transform="translate(-28.38 -3.9)" style="fill:#faf8f9"/><path d="M309.46,130.4h46.29c-.56,5.13-.92,10.3-1.79,15.39-10.52,0-21,0-31.55,0-.73,5-1.26,10-1.73,15,9.53.07,19.06,0,28.59.06-.74,5-1.19,10-1.83,14.94-9.52,0-19,0-28.55,0-.42,5-1,10-1.78,15,11,0,22,0,32.94,0-.83,5-1.12,10-1.74,15-15.83,0-31.66,0-47.48,0C303.8,180.62,306.47,155.49,309.46,130.4Z" transform="translate(-28.38 -3.9)" style="fill:#faf8f9"/><path d="M357.55,205.7c3-25.09,5.68-50.2,8.61-75.3,6.54,0,13.07,0,19.6,0,3.87,13.52,7.59,27.08,11.56,40.56,7.19-13.4,14.07-27,20.92-40.57H438c-3,25.09-5.75,50.21-8.59,75.32-4.9,0-9.79,0-14.67,0,1.6-15.17,3.57-30.31,5-45.5-7.18,13.08-14,26.34-21.16,39.44h-8.79c-4.27-13.08-8-26.33-12.2-39.42-2.09,15.13-3.39,30.36-5.39,45.51C367.31,205.7,362.43,205.74,357.55,205.7Z" transform="translate(-28.38 -3.9)" style="fill:#faf8f9"/><path d="M450.46,130.4h14.69c-3,25.09-5.67,50.22-8.64,75.31-4.9,0-9.79,0-14.68,0C444.82,180.62,447.48,155.49,450.46,130.4Z" transform="translate(-28.38 -3.9)" style="fill:#faf8f9"/><path d="M525,205.73c12.23-25,24.17-50.23,36.28-75.33,4.71,0,9.42,0,14.14,0,6.27,25.11,12.72,50.17,19.05,75.26-5.24,0-10.47.05-15.7,0-1.34-5.36-2.5-10.77-4.08-16.06-8.74-.18-17.48,0-26.22-.06-2.36,5.47-5.17,10.73-7.61,16.16C535.56,205.72,530.27,205.71,525,205.73Zm30.81-31.16c5.05,0,10.11,0,15.17,0-1.82-6.93-3.58-13.89-5.2-20.87C562.51,160.67,559,167.55,555.8,174.57Z" transform="translate(-28.38 -3.9)" style="fill:#faf8f9"/><path d="M685.72,137.43c0-3,3.35-3.83,5.76-3.81a74.92,74.92,0,0,1,9.06,1.1l-1.18.89a39.53,39.53,0,0,0-11.34,0c3.5,1.8,8,1.36,10.66,4.88a30.49,30.49,0,0,1-5.93,2.64c.22.81.68,2.43.9,3.23l-1.73,2.35a49.9,49.9,0,0,1-1.54-7.14A12.69,12.69,0,0,0,685.72,137.43Zm7.1,1.3,0,2" transform="translate(-28.38 -3.9)" style="fill:#faf8f9"/><path d="M999.42,143.53c-1.51-3.37,1.76-6.58,5.12-6.21a221.57,221.57,0,0,1,24.55,1.61c-4.33,1.83-9.37,1.34-13.42,4,4.74,4.34,11.12,6,17.1,7.89a13.3,13.3,0,0,1-7.44,1.55c-2.73-1.05-5.25-2.6-8.06-3.44-.7,1.12-.74,3-2.31,3.3-1.67.65-4.69-.13-4.12-2.4l-.83,0c.31,2.43-2.71,3.43-4.33,1.9A20.7,20.7,0,0,1,999.42,143.53Z" transform="translate(-28.38 -3.9)" style="fill:#faf8f9"/><path d="M635.14,140.74c3.62-.24,7.52-1.37,11,.15,3.05,2.06,2.92,7.62-.66,9.14-3.29.21-6.61.79-9.9.45-.13-.55-.37-1.66-.49-2.21,3.28-1.05,6.94.17,10.22-1.15.79-1.15,1-3.16-.33-4a65.76,65.76,0,0,0-9.52,0Z" transform="translate(-28.38 -3.9)" style="fill:#faf8f9"/><path d="M779.08,140.14c4.18-.08,8.36.11,12.54.18,0,3.91.71,9.32-4.06,10.69a18.31,18.31,0,0,1-3.41-3.46,17.24,17.24,0,0,1-5.71,3.38c-.26-3.42,3.37-4.34,5.51-6.06l.16-1.94-5-.48C779.09,141.87,779.08,140.71,779.08,140.14Zm7.17,2.78c0,1.38,0,2.76,0,4.15l1.17.82,1.67-.7.12-4.28Z" transform="translate(-28.38 -3.9)" style="fill:#faf8f9"/><path d="M746.42,141.61c1.91-.1,1.7,3.6,1.22,5C745.52,146.58,746.38,143,746.42,141.61Z" transform="translate(-28.38 -3.9)" style="fill:#faf8f9"/><path d="M745.75,146.73c.35.65.7,1.3,1.06,1.94-2,1.17-4,2.64-6.43,2.65C742.12,149.71,744.84,149.16,745.75,146.73Z" transform="translate(-28.38 -3.9)" style="fill:#faf8f9"/><path d="M641,155.17a14.27,14.27,0,0,1,2.88,12.21c1.8,0,4-.67,5.13,1.19-1,1.59-2.76,1.87-4.39,2.25,1.66,4,3.62,8.54,1.19,12.65-2.85-3.42-3.6-7.9-3.24-12.22-1.66.05-3.54.3-4-1.77a5.89,5.89,0,0,1,3.59-1.7C640,164,639.28,159.29,641,155.17Z" transform="translate(-28.38 -3.9)" style="fill:#faf8f9"/><path d="M782,167.15a16,16,0,0,1,3-12c2,4.11.89,8.79-1.32,12.55,1.42.47,2.85,1,4.27,1.54l-1.2,2.51-3.51-.78c.13,4.47.29,9.43-3.34,12.7-1.71-4.27-.27-8.68,1.24-12.74a3.38,3.38,0,0,1-3.14-2.53C779,167.18,780.54,167.28,782,167.15Z" transform="translate(-28.38 -3.9)" style="fill:#faf8f9"/><path d="M1001.58,173c3.7-.87,5.74,2.75,7.46,5.32a40,40,0,0,1-.38,4.1c-1.8,1.58-4.26,1.75-6.43,2.47-1-.75-1.91-1.5-2.84-2.25a27.58,27.58,0,0,0,5.57-2.84C1005,177,1003.2,175,1001.58,173Z" transform="translate(-28.38 -3.9)" style="fill:#faf8f9"/><path d="M729,183.29c2.81-.41,6.17-2.6,8.64-1.64-2.89,1.81-6.77,2-9.89,3.51Z" transform="translate(-28.38 -3.9)" style="fill:#faf8f9"/><path d="M737.9,183.88c1-2.21,2.9-1.25,4.57-.75-1.54,2.94-4.61.09-6.78,1.62l2.45,1.21c-.64,1.7-2.25,2.09-3.86,2.32l.14-1.93c-1.21-.07-2.41-.16-3.59-.25a6.36,6.36,0,0,1-4.83,2.5c.84-4.2,5.74-1.79,7.81-4.47C735.16,184,736.52,183.94,737.9,183.88Z" transform="translate(-28.38 -3.9)" style="fill:#faf8f9"/><path d="M728,183.17c-.19.78-.36,1.57-.52,2.37a14,14,0,0,0-6,3.16l-1.89-1C722.44,186.28,725.75,185.47,728,183.17Z" transform="translate(-28.38 -3.9)" style="fill:#faf8f9"/><path d="M737.37,187.57c2.18-.52,3.81-2.44,5.94-2.87,1.86,2.13-2.24,2-2.6,3.72-.15,2.71-3.06,2.94-4.43,4.78.29,1.4,2,1.52,2.93,2.3l-4.07,2.1a4.62,4.62,0,0,0-1.59-3.17c1.55-1.54,3.2-3,4.08-5.1l2.07.17Z" transform="translate(-28.38 -3.9)" style="fill:#faf8f9"/><path d="M728.61,191.64c-1.16-3.08,3.16-5.43,5.39-3.57-1.23.73-2.46,1.43-3.7,2.1.37,2.13-1.77,2.79-3.13,3.8-.46-.94-.86-1.88-1.32-2.8l-1.2,1.06-2.32.47a18.34,18.34,0,0,1,4.42-3.76C727.35,189.84,728,190.75,728.61,191.64Z" transform="translate(-28.38 -3.9)" style="fill:#faf8f9"/><path d="M646.93,191.6c2.13-3.1,7.29-4.79,10.22-1.86,1.5,1.38,1.94,3.4,2.22,5.33-.63.85-1.28,1.69-2,2.5-3.23-1.13.75-4.71-1.7-6.45-3-1.3-8.66,1.17-6.88,5.1,1,1.15,2.62.93,3.94,1.33-.09.64-.26,1.9-.35,2.53C648.17,200.68,644.38,195.23,646.93,191.6Z" transform="translate(-28.38 -3.9)" style="fill:#faf8f9"/><path d="M721.29,190.88c.12-1.22,1.61-2.84,2.9-2.51C724.23,189.69,722.6,191.27,721.29,190.88Z" transform="translate(-28.38 -3.9)" style="fill:#faf8f9"/><path d="M733.63,189.05c.75-1,4-.59,2.65,1C735.5,190.93,732.14,190.59,733.63,189.05Z" transform="translate(-28.38 -3.9)" style="fill:#faf8f9"/><path d="M768.36,192.85a23.6,23.6,0,0,1,1-2.43c4.52-.29,9,.55,13.54.36-.48.92-.95,1.84-1.4,2.77l-3.13,0a34,34,0,0,0-1.64,4.35l1.93,2c-.2.57-.61,1.73-.82,2.31C774.65,199.15,771.57,195.94,768.36,192.85Zm3.72.29q1.42,1.53,2.91,3c.47-1,1-2,1.45-3Z" transform="translate(-28.38 -3.9)" style="fill:#faf8f9"/><path d="M730.29,194.35c-.25-1.43,1.91-3.12,3.28-2.87C734.06,193.09,731.78,194.8,730.29,194.35Z" transform="translate(-28.38 -3.9)" style="fill:#faf8f9"/><path d="M739,193.19c1.06-1.05,2.11-2.24,3.77-2.19-.34.55-1,1.64-1.38,2.18l1.93,1.06-1.87,1.89-1.32-.57c.17-.5.53-1.5.71-2Z" transform="translate(-28.38 -3.9)" style="fill:#faf8f9"/><path d="M721,192.81c2.39.88-1.72,4.52-2.81,2.69A3.72,3.72,0,0,1,721,192.81Z" transform="translate(-28.38 -3.9)" style="fill:#faf8f9"/><path d="M722.19,195.82c.79-1.11,1.62-2.2,2.49-3.26.45,1.06,1,2.16,1.45,3.21L729,194c-.69,2.2-2.64,3.32-4.55,4.27.16-1.12.35-2.23.57-3.34Z" transform="translate(-28.38 -3.9)" style="fill:#faf8f9"/><path d="M727.35,199.27a20.3,20.3,0,0,1,3.31-4.67,4.61,4.61,0,0,0,3.61,3.79c-2.12,1.48-4.66,2.5-6.17,4.69-1,1.66-3,1.93-4.62,2.51a7.23,7.23,0,0,1,5.07-4.29c.54-.63,1.1-1.25,1.66-1.86.3-.73.89-2.19,1.18-2.92Z" transform="translate(-28.38 -3.9)" style="fill:#faf8f9"/><path d="M716.89,195.8c.42,1.2.88,2.4,1.39,3.58l1.23-2.5,1.55,1.18c-1.06.94-2,1.93-3.07,2.86-.87-.68-1.75-1.34-2.62-2l-.49,1.35-1.28-.35A38.19,38.19,0,0,1,716.89,195.8Z" transform="translate(-28.38 -3.9)" style="fill:#faf8f9"/><path d="M737.91,197.39c.86-1.16,3.37-.21,1.92,1.15C738.59,200.58,735.13,199,737.91,197.39Z" transform="translate(-28.38 -3.9)" style="fill:#faf8f9"/><path d="M651.12,205c3.59-2,7-4.25,10.53-6.3,1.26,3.11,5.27,5.88,3.88,9.48a30.24,30.24,0,0,1-4.37-6.27l-2.42,1.39a59.35,59.35,0,0,1,3.09,5.35l-1.4,1.18a29.51,29.51,0,0,1-3.35-5.29L654.2,206c1.09,2.13,2.47,4.11,3.47,6.29l-1.53,1A62.62,62.62,0,0,1,651.12,205Z" transform="translate(-28.38 -3.9)" style="fill:#faf8f9"/><path d="M719.62,202.26c-.39-1.55,1.7-3.34,3.19-3C723.13,200.76,721.05,202.56,719.62,202.26Z" transform="translate(-28.38 -3.9)" style="fill:#faf8f9"/><path d="M723.13,202.4c-.58-1.34,1.64-2.94,2.91-2.63C726.47,201.18,724.44,202.63,723.13,202.4Z" transform="translate(-28.38 -3.9)" style="fill:#faf8f9"/><path d="M734.1,199.6c3.41-1.29,1.09,3.16-1.05,2.76C731,202.2,733.2,199.86,734.1,199.6Z" transform="translate(-28.38 -3.9)" style="fill:#faf8f9"/><path d="M737.79,200.57c1.6-1,2.76,1.22,1,1.93-.71,1-3.5,1.17-2.56-.67Z" transform="translate(-28.38 -3.9)" style="fill:#faf8f9"/><path d="M761.32,205.49c1.07-3.14,3.51-6.49,7.35-5.38-.51,1.78-2.1,2.38-3.59,3.08-3.69,3.84,4.3,8.73,7,5,.54-1.54-.4-2.94-1-4.29,2.39-2,3.18.71,3.8,2.57-.95,2.15-1.79,5-4.5,5.46C766.15,213.07,762.49,209.26,761.32,205.49Z" transform="translate(-28.38 -3.9)" style="fill:#faf8f9"/><path d="M730.78,202.45c.45.87.94,1.75,1.46,2.62l1.16-1.39c3.37-.25-.54,2.82-1.07,3.88-.84-2.68-3.73-2.13-5.62-1.14A9.8,9.8,0,0,1,730.78,202.45Z" transform="translate(-28.38 -3.9)" style="fill:#faf8f9"/><path d="M714.75,205.64c1.06-.93,2.15-1.83,3.29-2.69l1.24,2.46,1.67-2.26.7,1.83-1.92.68c1.24.51,2.5.94,3.79,1.41a28,28,0,0,1-4.89,2.88c.37-.55,1.1-1.66,1.46-2.22-1.45-.28-2.82-1.45-4.3-1.09.05,2,1.55,3.68,2.45,5.42l2.51-1.44c.33,1.52-.7,2.47-1.77,3.33.94,2-.53,3.27-2,4.35-.42-.91-.82-1.82-1.21-2.72a5.62,5.62,0,0,1-4.08,3.3,13.82,13.82,0,0,1,2.71-4c1.32.39,2.67.71,4,1-.17-2.65-3.33-2.65-5.27-2.92l2.67-1.5c-.39-.46-.76-.92-1.13-1.37-1.16,1.91-3.34.81-5,1.08l-.75-2.56-2.38,1.22a12.55,12.55,0,0,1,3-3.94,7.64,7.64,0,0,0,2.7,2.14c.32.7.67,1.4,1,2.1A4.64,4.64,0,0,0,714.75,205.64Z" transform="translate(-28.38 -3.9)" style="fill:#faf8f9"/><path d="M722.7,210.07c-.15-1.36,1.48-3.35,2.94-2.76C726,208.73,724,210.14,722.7,210.07Z" transform="translate(-28.38 -3.9)" style="fill:#faf8f9"/><path d="M726.24,210.56c-.72-1.53,1.65-3.23,3-2.84C729.66,209.15,727.64,211,726.24,210.56Z" transform="translate(-28.38 -3.9)" style="fill:#faf8f9"/><path d="M729.66,211.47c.78-1.82,2.93-4.65,4.84-3.77C734.24,210,731.87,211.48,729.66,211.47Z" transform="translate(-28.38 -3.9)" style="fill:#faf8f9"/><path d="M658.53,216.4c3.22-2.51,6.53-4.88,9.6-7.57l1.65,2.21c-1.2,3-2.39,5.92-3.48,8.92,2.08-1.68,4.1-3.44,6.3-5l1.95,1.39c-3.35,2.73-6.79,5.36-10.16,8.05L663,222.28c1-3,2.23-5.87,3.26-8.83-2.25,1.69-4.45,3.44-6.7,5.13C659.29,218,658.79,216.94,658.53,216.4Z" transform="translate(-28.38 -3.9)" style="fill:#faf8f9"/><path d="M696.9,211.09q.57-1.77,2.07-1.11a3.13,3.13,0,0,1-2.13,2.82C696.85,212.37,696.88,211.52,696.9,211.09Z" transform="translate(-28.38 -3.9)" style="fill:#faf8f9"/><path d="M698.49,213.84c.15-2.28,1.92-3.73,3.39-5.2.43.88.87,1.75,1.33,2.62l2.6-2.15a9.15,9.15,0,0,1-2.85,4c-.4-.88-.78-1.75-1.16-2.62Z" transform="translate(-28.38 -3.9)" style="fill:#faf8f9"/><path d="M756.51,211.18c.5-.36,1.52-1.06,2-1.41,3.31,2.25,6.38,4.85,9.53,7.33L766.62,219C763.15,216.54,759.85,213.83,756.51,211.18Z" transform="translate(-28.38 -3.9)" style="fill:#faf8f9"/><path d="M1174.49,210.18H1821c0,2.3,0,4.61,0,6.91q-323.24,0-646.47,0C1174.49,214.8,1174.49,212.49,1174.49,210.18Z" transform="translate(-28.38 -3.9)" style="fill:#faf8f9"/><path d="M722.91,211.37c2.9-1.21,1,3.32-.88,3.09S721.91,211.75,722.91,211.37Z" transform="translate(-28.38 -3.9)" style="fill:#faf8f9"/><path d="M725.61,214.66c-.36-1.36,1.51-3,2.83-2.6C728.9,213.4,726.86,215.07,725.61,214.66Z" transform="translate(-28.38 -3.9)" style="fill:#faf8f9"/><path d="M703.6,215.08c-.44-1.29,1.1-2.9,2.38-2.94C706.36,213.4,704.84,215,703.6,215.08Z" transform="translate(-28.38 -3.9)" style="fill:#faf8f9"/><path d="M706.42,216c-1-1.62,2.24-4.54,3.38-2.79A4.12,4.12,0,0,1,706.42,216Z" transform="translate(-28.38 -3.9)" style="fill:#faf8f9"/><path d="M728,215.3a11.49,11.49,0,0,1,4.41-3.16c-.62,1.17-1.26,2.33-1.88,3.49l-2.09.17c-1.21,1.47-2.45,3.14-4.62,2.23A5.43,5.43,0,0,1,728,215.3Z" transform="translate(-28.38 -3.9)" style="fill:#faf8f9"/><path d="M720.23,218.18c-.67-1.44,1.62-3.6,3-2.65C724.14,217.14,721.64,218.79,720.23,218.18Z" transform="translate(-28.38 -3.9)" style="fill:#faf8f9"/><path d="M747.87,221.3c2.53-2.07,4.33-5.45,7.61-6.35,2.2.92,4.59,3.45,2.56,5.77a50.05,50.05,0,0,1,6.76,1L762.61,224a54.13,54.13,0,0,0-6.18-.9l-1.72-1.36c.54-.81,1.63-2.41,2.17-3.21-2.42-1.77-4.18.8-5.7,2.32l2.4,1.72c1.54,1.81,3.2,3.51,4.8,5.27-.31.52-1,1.56-1.27,2.08C753.91,227.19,751.22,223.88,747.87,221.3Z" transform="translate(-28.38 -3.9)" style="fill:#faf8f9"/><path d="M676.66,221.9c-1.13-1.26-3.07-2.53-1.33-4.28a88.62,88.62,0,0,1,7.18,6.93c-.5,3.55-2.68-.31-4-.83-2.44,2.53-4.68,5.23-7.18,7.69l-1.41-2.1C672.17,226.82,674.5,224.44,676.66,221.9Z" transform="translate(-28.38 -3.9)" style="fill:#faf8f9"/><path d="M31.08,219.89h4.06c0,5.55-.07,11.1,0,16.65a6.77,6.77,0,0,0,5.41,6.53c3.3-.25,5.45-3.31,5.66-6.41.52-5.57.1-11.18.23-16.76h4.1c-.05,5.21.06,10.41,0,15.61-.16,3.4-.76,7.17-3.46,9.53-3.61,3.57-10.1,3.14-13.42-.6a12.58,12.58,0,0,1-2.57-7.88C31.09,231,31.11,225.44,31.08,219.89Z" transform="translate(-28.38 -3.9)" style="fill:#faf8f9"/><path d="M57.48,219.86l4.21.07c4.27,6.43,8.35,13,12.76,19.34,0-6.46,0-12.91,0-19.37l4,0c0,9.07,0,18.13,0,27.19-1.38,0-2.76,0-4.14-.11-4.44-6.07-8.29-12.57-12.52-18.8.18,6.29.05,12.58.1,18.87H57.42C57.45,238,57.34,228.92,57.48,219.86Z" transform="translate(-28.38 -3.9)" style="fill:#faf8f9"/><path d="M112.49,219.88l4.69.05c-3,9-6.23,18-9.19,27.1h-4.7c-3-9.07-6.16-18.05-9.19-27.09l4.68-.05c2.33,6.47,4.39,13,6.87,19.46C108.11,232.92,110.19,226.36,112.49,219.88Z" transform="translate(-28.38 -3.9)" style="fill:#faf8f9"/><path d="M143.73,219.89c4.91.26,10.11-.77,14.8,1.1,5.74,3.52,5,13.45-.82,16.59,1.87,3.16,3.79,6.3,5.71,9.44-1.83,0-3.65,0-5.48,0-1.66-3-3.5-5.93-5.26-8.88h-4.51c0,3,0,5.94,0,8.91h-4.46Q143.72,233.46,143.73,219.89Zm4.44,4.43c0,3.11,0,6.23,0,9.34,3.17-.33,7.74,1.2,9.6-2.29.42-2.28.32-4.72-1.24-6.56A51.92,51.92,0,0,0,148.17,224.32Z" transform="translate(-28.38 -3.9)" style="fill:#faf8f9"/><path d="M171.88,220a12.79,12.79,0,0,1,12.2,2.4c-.71,1.28-1.41,2.57-2.11,3.86-2.4-1.68-5.31-3-8.29-2.21-1.75.83-1.57,2.78-1.72,4.39,3.43,2.86,8.7,2.54,11.54,6.26,2.5,4,1.06,10.18-3.44,12.16-4.68,1.66-9.92-.13-13.3-3.59a17.59,17.59,0,0,1,2.46-4c2.44,2.1,5.86,4.76,9.21,3.18,2.17-.6,2.57-4.26.63-5.34-2.92-1.65-6.48-1.87-9.21-3.93C166.11,229.58,167,222.31,171.88,220Z" transform="translate(-28.38 -3.9)" style="fill:#faf8f9"/><path d="M190.33,219.91l4.47,0q0,13.58,0,27.14h-4.46Q190.33,233.46,190.33,219.91Z" transform="translate(-28.38 -3.9)" style="fill:#faf8f9"/><path d="M201.67,219.89c5.55.22,11.83-1,16.58,2.59,5,4.41,5.31,12.13,3.08,18a10.81,10.81,0,0,1-9.81,6.54c-3.28,0-6.56,0-9.84,0Q201.66,233.46,201.67,219.89Zm4.45,4.39q0,9.16,0,18.33c2.66-.08,5.46.24,8-.78,4.76-2.33,5.16-9,3.24-13.36S210.11,224.36,206.12,224.28Z" transform="translate(-28.38 -3.9)" style="fill:#faf8f9"/><path d="M235.46,219.87l4.32,0c3.4,9,6.64,18.11,10.1,27.12l-4.55,0c-.76-2-1.46-4.05-2.22-6.06-3.67,0-7.34,0-11,0-.76,2-1.46,4.05-2.16,6.09l-4.56-.06Q230.45,233.44,235.46,219.87Zm-1.7,16.62c2.58,0,5.16,0,7.74,0-1.37-3.39-2.57-6.84-3.86-10.25C236.22,229.63,235.1,233.1,233.76,236.49Z" transform="translate(-28.38 -3.9)" style="fill:#faf8f9"/><path d="M292,219.9c5.35.21,11.29-1,16,2.18,5.08,3.71,5.62,10.91,4.23,16.57a10.76,10.76,0,0,1-9.8,8.35c-3.48.11-7,0-10.44,0C292,238,292.06,228.94,292,219.9Zm4.43,4.39V242.6c3.56,0,7.92.48,10.43-2.62a11.93,11.93,0,0,0,.39-12.24C305,224.14,300.22,224.38,296.46,224.29Z" transform="translate(-28.38 -3.9)" style="fill:#faf8f9"/><path d="M375.55,219.86l4.41,0c0,7.55,0,15.09,0,22.64,3.38,0,6.77,0,10.17,0,0,1.48,0,3,0,4.44-4.85,0-9.69,0-14.53,0C375.51,238,375.53,228.92,375.55,219.86Z" transform="translate(-28.38 -3.9)" style="fill:#faf8f9"/><path d="M410,220.11a12.48,12.48,0,0,1,12.29,2.3c-.64,1.3-1.28,2.61-1.91,3.92-2.92-2.1-7.09-3.71-10.18-1,.25,1.51.06,3.36,1.57,4.3,3.43,1.65,7.83,2,10.18,5.35,2.32,4.13.78,10.14-3.78,12-4.77,1.62-9.95-.38-13.3-3.91.88-1.25,1.79-2.47,2.71-3.69,2.38,2.07,5.73,4.66,9,3.19,2.41-.63,2.71-4.6.41-5.55-3.08-1.69-7-1.79-9.53-4.42C404.62,228.74,405.5,222.35,410,220.11Z" transform="translate(-28.38 -3.9)" style="fill:#faf8f9"/><path d="M435.59,219.87l4.38,0c3.34,9.06,6.65,18.13,10.09,27.16l-4.6-.1c-.72-2-1.43-4-2.2-6q-5.49-.06-11,0c-.76,2-1.48,4-2.14,6-1.54,0-3.07,0-4.59,0C428.89,238,432.29,228.93,435.59,219.87Zm-1.66,16.61q3.84,0,7.7,0c-1.31-3.4-2.58-6.8-3.78-10.23C436.38,229.62,435.28,233.1,433.93,236.48Z" transform="translate(-28.38 -3.9)" style="fill:#faf8f9"/><path d="M470.53,219.93c1.55,0,3.1,0,4.67,0,2.38,6.49,4.41,13.11,6.9,19.56,2.33-6.49,4.56-13,6.8-19.55h4.7c-3,9.07-6.26,18-9.16,27.12h-4.72C476.77,238,473.55,229,470.53,219.93Z" transform="translate(-28.38 -3.9)" style="fill:#faf8f9"/><path d="M504.5,219.88l4.34,0c3.38,9,6.65,18.12,10.09,27.13l-4.56,0c-.75-2-1.45-4-2.2-6-3.68,0-7.35,0-11,0q-1.14,3-2.13,6l-4.6,0Q499.49,233.45,504.5,219.88Zm-1.7,16.6c2.57,0,5.15,0,7.72,0-1.33-3.39-2.55-6.83-3.83-10.24C505.28,229.64,504.15,233.1,502.8,236.48Z" transform="translate(-28.38 -3.9)" style="fill:#faf8f9"/><path d="M522.6,219.88c5.55.25,11.95-1.08,16.65,2.7,4.54,3.81,4.69,10.44,3.68,15.83a10.85,10.85,0,0,1-9.51,8.56c-3.61.16-7.22,0-10.83.05C522.61,238,522.58,228.93,522.6,219.88Zm4.45,4.4c0,6.11,0,12.22,0,18.33,3.66,0,8.29.44,10.67-3,2.08-3.62,2.31-8.71-.15-12.19S530.65,224.47,527.05,224.28Z" transform="translate(-28.38 -3.9)" style="fill:#faf8f9"/><path d="M555.9,220.07a11.81,11.81,0,0,1,14.5,5.49c2.83,5.86,2.44,13.73-2.2,18.59a11.38,11.38,0,0,1-13.12,2.14C545.23,241.31,545.71,224.35,555.9,220.07Zm2,4c-7.11,2.91-7.59,14.17-1.09,18,4.37,2.72,9.79-1,10.7-5.6C569.78,230.65,564.79,222,557.91,224.1Z" transform="translate(-28.38 -3.9)" style="fill:#faf8f9"/><path d="M578.09,219.9c5,.26,10.25-.83,15,1.19,5.6,3.63,4.81,13.47-1,16.51q3,4.64,5.67,9.45l-5.33-.05a97.61,97.61,0,0,0-5.39-8.74c-1.46-.2-2.92-.17-4.37-.23-.05,3,0,6,0,9H578.1C578.1,238,578.12,228.94,578.09,219.9Zm4.46,4.45q0,4.65,0,9.3c2.81-.21,6,.71,8.48-.91,1.86-1.44,1.31-4.16,1.06-6.18C590.13,223.3,585.69,224.62,582.55,224.35Z" transform="translate(-28.38 -3.9)" style="fill:#faf8f9"/><path d="M85.81,247c0-9.07,0-18.13,0-27.19l4.45.09c-.07,9,0,18.06,0,27.09Z" transform="translate(-28.38 -3.9)" style="fill:#faf8f9"/><path d="M121.05,219.89q8.1,0,16.2,0c0,1.62,0,3.24,0,4.86-3.91,0-7.83,0-11.74,0v6.5c3.51,0,7,0,10.53,0v4.45H125.47q0,3.45,0,6.9h12.18c0,1.48,0,3,0,4.44H121.05Q121.07,233.46,121.05,219.89Z" transform="translate(-28.38 -3.9)" style="fill:#faf8f9"/><path d="M253.55,219.89c5.34.23,11.3-1,16,2.21,3.7,2.53,4.73,7.19,5,11.39-.35,4.07-1,8.77-4.65,11.3-4.73,3.53-10.9,1.87-16.35,2.23Q253.57,233.46,253.55,219.89Zm4.44,4.39q0,9.16,0,18.33c2.66-.1,5.49.26,8-.81,4.71-2.28,5.08-8.84,3.31-13.15C267.39,224.27,262,224.31,258,224.28Z" transform="translate(-28.38 -3.9)" style="fill:#faf8f9"/><path d="M318.76,219.91c5.41,0,10.81,0,16.22,0,0,1.62,0,3.24,0,4.86-3.93,0-7.85,0-11.78,0,0,2.15,0,4.3,0,6.46h10.55c0,1.48,0,3,0,4.45-3.52,0-7,0-10.57,0,0,2.29,0,4.59,0,6.89H335.4c0,1.48,0,3,0,4.45h-16.6C318.77,238,318.81,229,318.76,219.91Z" transform="translate(-28.38 -3.9)" style="fill:#faf8f9"/><path d="M352.82,247c0-9.05,0-18.1,0-27.15,5.4,0,10.8,0,16.2,0q0,2.43,0,4.86c-3.93,0-7.85,0-11.78,0,0,2.15,0,4.31,0,6.46h10.55c0,1.48,0,3,0,4.45-3.52,0-7,0-10.56,0q0,3.45,0,6.9h12.17c0,1.48,0,3,0,4.46C363.87,247,358.34,247,352.82,247Z" transform="translate(-28.38 -3.9)" style="fill:#faf8f9"/><path d="M453.69,219.92l4.46,0c0,7.57,0,15.14,0,22.71h10.16c0,1.48,0,3,0,4.45q-7.29,0-14.57,0C453.69,238,453.73,229,453.69,219.92Z" transform="translate(-28.38 -3.9)" style="fill:#faf8f9"/><path d="M738.58,228.08c2.33-1.71,4.5-3.65,6.95-5.19l2.06.6c-1.81,1.76-3.79,3.33-5.72,4.95l1.68,1.89c1.78-1.16,3.41-2.54,5.1-3.84,2.42,2.87-2.34,3.9-3.87,5.64.66.86,1.32,1.71,2,2.57,2.21-1,4.21-4.6,6.79-3.24-1.39,3-5.17,4.27-7.6,6.46C743.58,234.58,740.92,231.45,738.58,228.08Z" transform="translate(-28.38 -3.9)" style="fill:#faf8f9"/><path d="M683.49,225.07a59.29,59.29,0,0,1,7,4.48c2.16,2.74-.9,6.23-4,5.66a58.52,58.52,0,0,1,.62,6.47l-2.67-1.53c-.34-2.66,0-5.72-2.28-7.63-1.4,1.36-1.91,5.79-4.57,3.81C678.46,232.29,681.88,229,683.49,225.07Zm1.13,3.21c-.45.95-.88,1.9-1.3,2.86,1.61.48,3.4,2.67,5.07,1.11C688.93,229.85,686,229.44,684.62,228.28Z" transform="translate(-28.38 -3.9)" style="fill:#faf8f9"/><path d="M733.73,230.4c1.23-.6,2.45-1.21,3.7-1.8,1.6,3.89,3.33,7.73,5,11.61l-2.24.91c-1.26-2.71-2.28-5.53-3.56-8.23.25,2.93,1,5.79,1.25,8.72l-1.67,1.61c-2.49-2.38-4.26-5.36-6.54-7.92,1.22,2.93,2.58,5.81,3.77,8.76l-2.17.92c-1.57-3.86-3.34-7.63-5-11.46l3.43-1.65c1.88,2.32,3.67,4.71,5.61,7C734.66,236.06,734.23,233.22,733.73,230.4Z" transform="translate(-28.38 -3.9)" style="fill:#faf8f9"/><path d="M691.27,241.38c-.9-3.51.81-7.9,4.38-9.17,4.13-1.15,9.4,3,7.78,7.47-.58,3.09-3.09,5.07-5.9,6C695.15,244.77,692.5,243.8,691.27,241.38Zm4.57-6.41c-2.87,1.8-2.77,8.72,1.78,7.66,2.14.14,2.66-2.64,3.21-4.2C701.79,235.71,698,233.51,695.84,235Z" transform="translate(-28.38 -3.9)" style="fill:#faf8f9"/><path d="M1111.07,237.69c-1.12-4.46,4.21-5.38,7.46-5.14a2.17,2.17,0,0,1,1.73,3.76C1117.59,238.2,1114.13,237.74,1111.07,237.69Z" transform="translate(-28.38 -3.9)" style="fill:#faf8f9"/><path d="M718.67,234.63l2.81-.21c2.07,4,4.44,7.75,6.33,11.81l-2.89,0-1.17-2.48-4.91.69-.48,3-2.83,0C716.65,243.11,717.77,238.9,718.67,234.63Zm1.79,2.83c-.23,1.47-.5,2.94-.74,4.41l2.8-.18Q721.47,239.58,720.46,237.46Z" transform="translate(-28.38 -3.9)" style="fill:#faf8f9"/><path d="M1097.47,239.8a11.13,11.13,0,0,1,11.31-4.72c.2,3.6-3.45,5.24-6.38,6C1100.7,241.44,1098.21,242,1097.47,239.8Z" transform="translate(-28.38 -3.9)" style="fill:#faf8f9"/><path d="M1084.83,242.71c2.92-2.55,6.5-4.61,10.56-4,0,1.53.38,3.51-1.33,4.3a22.79,22.79,0,0,1-9.76,3.38C1084.45,245.18,1084.63,244,1084.83,242.71Z" transform="translate(-28.38 -3.9)" style="fill:#faf8f9"/><path d="M1103.33,245.05c-.76-4,4.48-6.43,7.9-5.71C1111.6,243.33,1106.86,246,1103.33,245.05Z" transform="translate(-28.38 -3.9)" style="fill:#faf8f9"/><path d="M1111.57,242.69c2.07-1,4.19-2.2,6.59-1.61,1,3.87-3.94,5.15-6.67,6.3C1109.58,246,1110.8,244.25,1111.57,242.69Z" transform="translate(-28.38 -3.9)" style="fill:#faf8f9"/><path d="M1398.38,245.44c1.2-1.17,2.33-2.43,3.52-3.63q4.51,19.89,8.87,39.84c.19,1.67,1.66,2.63,2.77,3.73,1.6-.64,4.23-.65,4.5-2.85A184.63,184.63,0,0,0,1418,249c-1.27-1.43-2.92-2.41-4.25-3.73,4.55-1.23,9.29-1.08,14-.91a14,14,0,0,1,11.58,9.29c3.91,8.74,3,19.07-1.35,27.47-2.9,3.32-6.65,6.55-11.35,6.31-8.11-.33-16.35.69-24.36-.58,1-1,2.09-1.87,3.21-2.74.74-4.76-1.1-9.44-1.71-14.13-2.61-.05-5.21,0-7.8-.12-.67,4.61-2.91,9.3-1.68,14,1.5,1,3.55,1.44,4,3.49-3.73.16-7.47.2-11.19,0-.47-2.57,2.87-2.77,3.49-4.83,2.1-7.15,3.42-14.51,5.16-21.75C1396.67,255.65,1398.29,250.65,1398.38,245.44Zm24.41,35.83c.42,3.15,3.33,4,6.11,3.67,4.6-2.52,6.54-7.65,7.32-12.56.59-7.26.44-15.28-4.15-21.34-2.23-2.92-5.87-4-9.22-5C1422.57,257.78,1422.66,269.54,1422.79,281.27Zm-26-15.61c1.88,0,3.77,0,5.68,0-.58-4.51-1.93-8.87-2.83-13.31C1398.78,256.81,1397.62,261.2,1396.8,265.66Z" transform="translate(-28.38 -3.9)" style="fill:#faf8f9"/><path d="M1604.63,246.38c.09-2,2-3.18,3.32-4.52,2.93,13.21,5.75,26.44,8.8,39.62.1,2.18,2.5,4.45,4.68,3.49,1.85-.09,2.44-2.09,2.68-3.6q-.06-15.84,0-31.7c-.72-2.52-3.75-3.23-5.17-5.27,4.86-.24,9.74-.23,14.62,0-1.14,1.67-2.92,2.66-4.31,4.06-.93,2.2-.6,4.67-.65,7,.15,9.57-.27,19.16.28,28.73,3.23.48,7.78,1.87,9.8-1.68,1.44-2.75,2.31-5.77,3.55-8.61l1.08.79c-.54,4.26-1.6,8.43-2.21,12.68-10.61-.06-21.22.18-31.82-.11-2-1.3,1.61-2.83,2.49-3.72-.11-4.52-1.31-8.9-2.17-13.3-2.45-.76-5.17-.19-7.7-.35-.77,4.68-2.88,9.31-1.92,14.11,1.75.58,3.63,1.2,4.09,3.27-3.75.19-7.5.13-11.23.07.05-.51.17-1.53.23-2,1-.6,2.06-1.2,3.12-1.8C1599.55,271.25,1601.93,258.78,1604.63,246.38Zm-2,19.26,6.45,0c-.45-1.08-.88-2.15-1.28-3.23-.57-3.38-1.37-6.72-2.21-10Q1604.21,259,1602.61,265.64Z" transform="translate(-28.38 -3.9)" style="fill:#faf8f9"/><path d="M1678.43,245.38c1.06-1.24,2.07-2.5,3.13-3.76,2.56,10.75,4.85,21.57,7.28,32.35.81,3.45,1.07,7.18,3,10.26,1.5,1.63,3.52.65,5.21-.15,1.21-2.31,1-5.05,1.24-7.57,0-7.7.09-15.39,0-23.08-.38-2,.09-4.57-1.79-5.85-1.09-.83-2.22-1.53-3.28-2.32a47.23,47.23,0,0,1,14.48-.91c6,.43,10.48,5.6,12.13,11.06a32.16,32.16,0,0,1-1.06,23.28c-2.14,5.17-7.63,9-13.3,8.7-7.59,0-15.18,0-22.76,0,0-.54.14-1.61.18-2.14l2.33-1c.67-4.88-1.16-9.57-1.63-14.36-2.59,0-5.16,0-7.72-.05a52.26,52.26,0,0,0-2.37,12.63c.24.48.72,1.45,1,1.93a12.84,12.84,0,0,1,4.38,2.21c-4,1.48-8.52.64-12.72.51,1.22-2.17,4.11-3.08,4.48-5.75C1673.48,269.44,1676.27,257.47,1678.43,245.38Zm23.91.74c-.06,10.47,0,20.94,0,31.4-.12,2.51.35,5.28,2.25,7.09,1.39.16,2.8.25,4.24.3,5.8-3.64,7.63-11,7.35-17.39.3-6.16-.92-12.83-5.22-17.49C1708.77,247.53,1705.32,247,1702.34,246.12Zm-23.09,6.5c-.75,4.38-2,8.66-2.6,13.07,1.89,0,3.8,0,5.72,0-.87-4.3-2-8.54-2.73-12.87Z" transform="translate(-28.38 -3.9)" style="fill:#faf8f9"/><path d="M1089.63,250.2c.18-4,4.2-6.11,7.69-6.86,1.45-.44,4.31,0,3.25,2.19C1097.94,248.64,1093.6,250.07,1089.63,250.2Z" transform="translate(-28.38 -3.9)" style="fill:#faf8f9"/><path d="M1332.84,244c2.8-2,5.87.09,8.43,1.46-.2,3.92.74,8.18-1.22,11.8-1.24-3.84-.87-8.41-4.18-11.28a5.7,5.7,0,0,0-4.83,6.5c-.65,6.6,6.29,9.58,9.14,14.57,2.8,3.54,2.38,8.35,1.91,12.57-.74,4.47-4.75,9.09-9.59,8.4-2.56.22-4.38-1.83-6.19-3.28-.29-3.33-.64-6.64-1-9.95-.32-.9.83-1.13,1.33-1.65a71,71,0,0,0,2.38,8.44,6.05,6.05,0,0,0,6.62,3.31,10.62,10.62,0,0,0,.52-13c-2.37-3.31-5.68-5.8-8.07-9.1C1326,256.52,1326.31,247.57,1332.84,244Z" transform="translate(-28.38 -3.9)" style="fill:#faf8f9"/><path d="M1583.37,244.1c2.6-2,6.62-.33,8.24,2.2.18,3.65.09,7.32,0,11-2.87-2.58-1.71-7-3.75-10l-2.31-1.09-2.27,1c-1.27,2.22-2.52,4.79-1.71,7.41,1.42,6.33,8.33,9.13,10.56,15,2.46,6.54.61,15.43-6.25,18.49-1.53,0-3-.05-4.52-.05-1.43-.92-2.83-1.84-4.23-2.77a61.51,61.51,0,0,1-1.13-12.33c3.3,3.14,2.12,9.36,6.48,11.79a4.72,4.72,0,0,0,5.58-2.06c.79-3.59,1.22-7.59-1.18-10.7-3-3.54-6.64-6.63-8.76-10.83C1576.81,255.15,1577.22,247.24,1583.37,244.1Z" transform="translate(-28.38 -3.9)" style="fill:#faf8f9"/><path d="M1728.33,249.41a13.23,13.23,0,0,1,9-6.19c4.29-.31,8,2.27,10.56,5.47a36.09,36.09,0,0,1,3.44,24.69c-.79,6-4.27,12-10,14.49-2.07.25-4.15.13-6.19.18-6-2.85-9.45-9-10.28-15.39C1724.2,264.83,1724.06,256.35,1728.33,249.41Zm3.69,1.51c-3.79,9.35-3,20.11.54,29.4,1.29,2.7,3.68,5.82,7.12,4.89,3.37-.54,4.46-4.17,5.58-6.9A41.55,41.55,0,0,0,1743.8,251c-1.27-2.53-3.33-5-6.34-5.25A8.15,8.15,0,0,0,1732,250.92Z" transform="translate(-28.38 -3.9)" style="fill:#faf8f9"/><path d="M1174.34,244.39c4.82.27,10.24-1.27,14.68.91a39.47,39.47,0,0,0-4.84,3c-1.23,7.81-.94,15.82-.43,23.68.13,4.51,1.54,9.87,6.07,11.83,3,1.58,6.22-.85,7.39-3.57a21.8,21.8,0,0,0,1.45-8.79c-.13-6.69.16-13.38-.13-20.06,0-3.68-4-4.64-6-7,4-.06,8.16-.62,12,.25,0,2.07-2.92,2.56-2.88,4.73-1.22,8.33-.8,16.78-.86,25.17-.37,5.26-2.26,11.29-7.64,13.38-2.92,0-6.32.81-8.69-1.37-4.87-3.68-5.1-10.45-5.12-16-.23-7.51.56-15.1-.46-22.56A14.34,14.34,0,0,1,1174.34,244.39Z" transform="translate(-28.38 -3.9)" style="fill:#faf8f9"/><path d="M1205.68,244.66c2-.77,4.13-.3,6.2-.47,3.58,6.38,7.11,12.8,10.72,19.16,2.31,4,4.62,8.12,6.66,12.32-.07-7.05,0-14.11,0-21.16a16.41,16.41,0,0,0-1.37-6c-1.43-1.47-3.48-2.3-4.5-4.16,3.61.08,7.59-.66,11,.28.24,1.71-1.72,2.4-2.13,3.89-1.57,3.85-.48,8.07-1,12.09-.92,9.51.81,19.05-.12,28.55-3.79-5.2-6.24-11.28-9.51-16.83-3.11-5.5-6.32-11-9.27-16.54,0,6.9,0,13.8,0,20.69.11,3.48.9,7.83,4.84,8.83.06.5.19,1.51.26,2-4.12,0-8.24.18-12.34-.17,1.18-2.58,5-3.29,4.81-6.57.65-8.68,0-17.41.31-26.1.09-2.3.13-5.24-2.08-6.62C1207.25,246.82,1204.76,246.37,1205.68,244.66Z" transform="translate(-28.38 -3.9)" style="fill:#faf8f9"/><path d="M1235.63,244.67c1.86-.74,3.91-.36,5.88-.43,6.63.09,13.27-.15,19.9.15-.81,1.44-2.28,2.12-3.67,2.81-1.52,3.81.61,7.67,1.21,11.45,1.74,6,2.82,12.21,4.56,18.23,1.22-3.78,1.66-7.76,3-11.52.57.69,1.15,1.38,1.76,2.07-2.13,7.58-3.58,15.32-5.77,22.89-3.61-10.64-5.55-21.78-8.5-32.61-1.26-4.16-1.15-9.36-5.29-11.93a26.73,26.73,0,0,0-3.62,2.35c-1,2.67-.75,5.54-.75,8.33,0,7.34,0,14.69,0,22a13.55,13.55,0,0,0,.82,5.12c1.49,1.06,3.15,1.89,4.58,3.08a34.53,34.53,0,0,1-15.14,0,9.37,9.37,0,0,1,4.34-2.27c2.22-4.31,1.2-9.26,1.42-13.9-.21-7.37.48-14.78-.47-22.11C1238.64,247,1235.9,246.68,1235.63,244.67Z" transform="translate(-28.38 -3.9)" style="fill:#faf8f9"/><path d="M1265.3,245.5a2,2,0,0,1,2.15-1.24c9.64,0,19.3,0,29,0a100.57,100.57,0,0,1-.67,10.69c-2.51-1.74-.72-5.61-3.46-7.23-2.35-1.31-5.35-.84-7.92-1.49,0,5.75,0,11.51,0,17.26,2.45-.19,5.12,0,7.32-1.34a27,27,0,0,0,.91-4.45h1.2c-.5,5.15.94,10.64-.78,15.58-.92-1.93-.3-4.85-2.5-6-2.06-.22-4.12-.11-6.15-.13.73,5.81-2.08,13.23,2.87,17.69,2.91.28,5.77-.31,7.7-2.69a69.73,69.73,0,0,0,2.18-8.65l1.14.16a105.86,105.86,0,0,1-1.18,13.76c-7.34-.47-14.78.59-22-.62,1.34-1.41,3.13-2.23,4.67-3.4,1-3.57.59-7.31.68-11-.09-7.28.15-14.57-.11-21.84,0-2.43-2.24-3.71-4-4.89a8.75,8.75,0,0,0-3.35,4.29c-1.92,5.34-3,10.94-4.44,16.42q-1-1-2-1.95c1.27-5.34,3.1-10.63,3.35-16.15C1268.37,247.36,1266.83,246.41,1265.3,245.5Z" transform="translate(-28.38 -3.9)" style="fill:#faf8f9"/><path d="M1299.7,245.36c5.2-1.34,10.93-1.85,16.1-.13,6.17,5,5,14.75-.07,20.12,2.65,7.1,4.44,15.34,10.8,20.17.51.53,1.54,1.57,2.06,2.09a9.07,9.07,0,0,1-10.07-3.22,59.87,59.87,0,0,1-6-14.78c-.36-2.16-2.57-1.88-4.19-1.91a100.17,100.17,0,0,0,.67,15.87c1.94.9,4.09,1.5,5.64,3.11-4.82,1.43-10,.43-14.93.62l.44-2.19,2.58-.43c.71-1.28,1.75-2.53,1.59-4.11,0-10,.07-20.09,0-30.13C1304.3,247.74,1301.52,246.69,1299.7,245.36Zm8.65,19.91c9.51-1.44,9.18-16.89.45-19.32C1307.81,252.33,1308.58,258.84,1308.35,265.27Z" transform="translate(-28.38 -3.9)" style="fill:#faf8f9"/><path d="M1343.77,244.37c4.86-.19,9.73-.2,14.6,0a12.24,12.24,0,0,1-4.48,3.56c-1,4.44-.47,9-.6,13.52.11,6.73-.19,13.48.07,20.21.24,3,4.26,2.77,4.81,5.6a115.66,115.66,0,0,1-13.43-.1c-2.1-1.73,2-2.6,3.15-2.81,2-5,1.24-10.59,1.41-15.88-.21-6.65.57-13.4-.75-20C1347.45,246.56,1344.63,246.54,1343.77,244.37Z" transform="translate(-28.38 -3.9)" style="fill:#faf8f9"/><path d="M1359,245.16c5.73-1.09,11.76-1.51,17.47-.16,6.27,2.81,9.69,9.79,10,16.42.77,8.42-.15,18.93-8,23.9-4.43,3.06-9.9,1.82-14.91,2.07-1.55-.35-3.9.77-4.82-.86,1.48-2.17,5.32-2.52,4.85-6-.22-10.77.67-21.62-.54-32.33A15.64,15.64,0,0,1,1359,245.16Zm8.7,1c-.15,7.44,0,14.89-.07,22.34,0,4.63-.25,9.32.67,13.89.59.84,1.23,1.67,1.92,2.47q2.14,0,4.35,0c1.62-1.37,3.41-2.69,4.42-4.62a32.06,32.06,0,0,0,.17-26.11C1377.17,249.42,1372.51,246.79,1367.69,246.12Z" transform="translate(-28.38 -3.9)" style="fill:#faf8f9"/><path d="M1453.71,245.22a52.49,52.49,0,0,1,15-.87c5.61,1,9.95,5.83,11.73,11.06a36.49,36.49,0,0,1-.66,22.31c-2.06,4.64-6.09,8.75-11.25,9.6-4.91.12-9.82.12-14.71-.07.38-2.36,3.17-2.42,4.31-4.12.92-7.18.56-14.43.63-21.64,0-4.4.06-8.89-1-13.19C1456.44,247.21,1455,246.37,1453.71,245.22Zm9.08.87c-.15,10.46,0,20.93-.06,31.4.23,2.14-.32,4.78,1.57,6.32,1.18,1.25,3,.88,4.54,1.17a21.29,21.29,0,0,0,5.13-4.76q.88-2.21,1.71-4.46c1.43-7.35,1.45-15.44-1.86-22.3C1471.69,249.19,1467.34,246.83,1462.79,246.09Z" transform="translate(-28.38 -3.9)" style="fill:#faf8f9"/><path d="M1483.5,244.37c7-.26,14-.06,21-.11-.58,3.62.08,7.46-1.13,11-.88-2.36-1.22-4.89-2.3-7.17-2.49-1.59-5.64-1.24-8.44-1.71-.57,5.68-.11,11.4-.26,17.09,2.41-.07,5,.14,7.19-1.14.89-1.75,1-3.92,2.47-5.33a123.29,123.29,0,0,1,0,16.31c-1.36-1.39-1.59-3.36-2.29-5.06-1.92-1.78-4.8-.73-7.13-1a77.33,77.33,0,0,0,.36,15.51c1.77,2,4.29,2.36,6.85,2.23,4-2.36,4.85-7.11,5.28-11.33l1.15.08a67.48,67.48,0,0,1-1,13.75c-7.06-.12-14.13.08-21.19-.09-.89-1.72,1.23-2.31,2.33-2.93,2-.71,2-3.13,2-4.9-.07-9.71.08-19.43-.07-29.14C1488.39,247.28,1484.61,246.83,1483.5,244.37Z" transform="translate(-28.38 -3.9)" style="fill:#faf8f9"/><path d="M1517.72,244.36c7-.24,14-.05,21-.11,0,3.68.38,7.48-1,11-1.15-2.61-.69-6-3.32-7.78-2.39-.77-4.94-.85-7.38-1.3.25,5.79.24,11.6,0,17.39,2.14-.2,4.31-.47,6.48-.67a16.27,16.27,0,0,0,2-5.27l1.18.18c0,4.83,0,9.66,0,14.49l-1.21.18c-.4-2-.83-4.06-2.55-5.31-2,.05-3.93.05-5.86,0,.3,4.46,0,8.92.17,13.38-.13,1.88,1.4,3.21,2.69,4.33l4.11-.05c4.19-2,5.18-6.95,5.33-11.15l1.3.09a55.5,55.5,0,0,1-1.06,13.61c-7.2-.18-14.45.38-21.6-.28.15-2.16,2.57-2.32,4.08-3.28,1.82-7.32.94-14.91,1.15-22.36a66,66,0,0,0-1-13.53C1520.56,246.88,1518.51,246.27,1517.72,244.36Z" transform="translate(-28.38 -3.9)" style="fill:#faf8f9"/><path d="M1541.63,244.4c4.86-.25,9.74-.21,14.62,0-1,2.74-5.59,2.61-5,6.13-.11,11.19-.18,22.4.07,33.6,1,.19,2.09.41,3.17.64l4.19.11c3.76-2.54,4.6-7.3,6.31-11.19,1.54,1.78.45,4,.13,6a65.67,65.67,0,0,0-1.32,7.75c-7.31-.06-14.6.09-21.9-.08.76-2.8,5-2.71,4.93-6.06-.2-10.26,0-20.53-.1-30.79C1546.92,247.25,1543,246.73,1541.63,244.4Z" transform="translate(-28.38 -3.9)" style="fill:#faf8f9"/><path d="M1640.31,244.38c4.56-.21,9.15-.2,13.73,0-.92,1.7-2.61,2.68-4,3.89,1,10.06,4.66,19.62,6.35,29.57,2-9.13,4.65-18.14,6.43-27.33.56-3.53-3.72-3.7-5.15-6.09a120.3,120.3,0,0,1,12.88,0c-1.73,2.06-4.36,3.52-5,6.3-3.7,13.17-6.63,26.54-10.06,39.78-4.21-13.34-6.69-27.17-10.53-40.61C1644.22,247.44,1641.81,246.21,1640.31,244.38Z" transform="translate(-28.38 -3.9)" style="fill:#faf8f9"/><path d="M1754.1,245.25a49.14,49.14,0,0,1,12.7-1.05c5.74.71,8.24,7.24,7.44,12.34-.15,3.46-2.18,6.35-4.34,8.89,2.26,6.24,4.15,12.87,8.51,18.05,1.53,1.41,3.83,2,4.54,4.24a10,10,0,0,1-11-4.34c-2.42-5.06-4-10.45-6.17-15.6l-3,0c.06,5-.3,10.05.46,15,.31.46.94,1.36,1.25,1.81,1.6.31,5,.18,3.25,2.73-4.61-.07-9.34.53-13.87-.34.51-2.44,4.1-2.11,4.53-4.57.66-5.95.3-11.95.39-17.91-.13-5.61.49-11.32-.9-16.82A10.29,10.29,0,0,1,1754.1,245.25Zm8.86.67c-.3,6.45-.09,12.91-.14,19.36a13.24,13.24,0,0,0,5.78-3.73C1770.92,255.84,1769.57,247.89,1763,245.92Z" transform="translate(-28.38 -3.9)" style="fill:#faf8f9"/><path d="M1071.9,253.22c0-4.53,4.7-8.33,9.07-8.52C1081.45,249.58,1076.51,253.52,1071.9,253.22Z" transform="translate(-28.38 -3.9)" style="fill:#faf8f9"/><path d="M1100.46,251.71c0-4,4.51-6.62,8.14-5.62C1109.18,250.1,1103.93,252.58,1100.46,251.71Z" transform="translate(-28.38 -3.9)" style="fill:#faf8f9"/><path d="M1109.66,253.45c-1.18-4.26,3.46-7.15,7.25-6.69C1117.46,250.31,1113.17,253.72,1109.66,253.45Z" transform="translate(-28.38 -3.9)" style="fill:#faf8f9"/><path d="M1077.16,256.14c-.87-5.37,5.51-8.15,9.91-8.37-.07.9-.22,2.69-.29,3.59A23.07,23.07,0,0,1,1077.16,256.14Z" transform="translate(-28.38 -3.9)" style="fill:#faf8f9"/><path d="M1084.92,257.05c.28-4.23,5.49-6,9.1-6.14C1093.89,254.89,1088.13,259,1084.92,257.05Z" transform="translate(-28.38 -3.9)" style="fill:#faf8f9"/><path d="M1114,258.82c-1-4.08,3.35-8,7.33-6.95.46,1.53-.63,2.82-1.18,4.16C1118.28,257.36,1116.39,258.83,1114,258.82Z" transform="translate(-28.38 -3.9)" style="fill:#faf8f9"/><path d="M1092.08,260.44c.7-4.95,5.89-9.18,10.88-8.09C1101.68,256.9,1097.07,261.21,1092.08,260.44Z" transform="translate(-28.38 -3.9)" style="fill:#faf8f9"/><path d="M1102.19,260.06c-.1-3.42,3.91-7.62,7.28-5.68A6.66,6.66,0,0,1,1102.19,260.06Z" transform="translate(-28.38 -3.9)" style="fill:#faf8f9"/><path d="M31.88,254.54q284.7.27,569.41.09c-1,13.7-.66,27.46-.92,41.19-2,.37-3.85,1.18-5.86,1.11q-282.33-.14-564.66-.33c.32-13.16-.32-26.32-.56-39.48A2.6,2.6,0,0,0,31.88,254.54Zm1.85,4.36c.2,11.11.55,22.22.68,33.33q194.55.11,389.1.2c57.49.31,115,.1,172.48.24.19-11.26.27-22.52.38-33.78Q315,258.94,33.73,258.9Z" transform="translate(-28.38 -3.9)" style="fill:#faf8f9"/><path d="M1057.39,262.58c1.65-4.48,5.25-9.42,10.68-8.6-.06,3.4-2.77,5.8-5.07,8C1061.52,263.48,1059.2,263.32,1057.39,262.58Z" transform="translate(-28.38 -3.9)" style="fill:#faf8f9"/><path d="M1066.11,262.93c.74-3.73,4.45-7.54,8.45-6.74.91,2.39-1.68,3.93-3.12,5.34S1067.93,262.82,1066.11,262.93Z" transform="translate(-28.38 -3.9)" style="fill:#faf8f9"/><path d="M1077.45,259.47c1.54-2,4-2.44,6.42-2.14a11.39,11.39,0,0,1-7.39,7.2C1073.11,264,1076,260.62,1077.45,259.47Z" transform="translate(-28.38 -3.9)" style="fill:#faf8f9"/><path d="M706.36,258.29l3.91.45-1.16,1-1.57.1c2.94.47.84,2.15-.19,3.57C707,261.71,706.65,260,706.36,258.29Z" transform="translate(-28.38 -3.9)" style="fill:#faf8f9"/><path d="M710.32,258.79l3.44-.81c-.18,1-.55,2.94-.74,3.91l1.44,0c-.07-.81-.23-2.42-.3-3.23,1.36-.09,2.72-.17,4.1-.24-.15,1.38,1.34,3.68-.64,4.35l-3,0-4.09,0Q710.37,260.8,710.32,258.79Zm6.42,1" transform="translate(-28.38 -3.9)" style="fill:#faf8f9"/><path d="M719.22,258.14c1.35.26,2.71.56,4.06.91l4.47-.56-2.3,1.79,1.38.33c0,.42,0,1.27-.06,1.69,1.75.41.78-2.78,1.62-3.5l3.28.71a6.72,6.72,0,0,0-.18,4.4c-2.49-2-5.72.14-8.52-.9.24-.81.73-2.42,1-3.22l-1.61.45.24,3.5-1.48-2.25-1.87,1.81Q719.19,260.72,719.22,258.14Zm1.48,1.59" transform="translate(-28.38 -3.9)" style="fill:#faf8f9"/><path d="M1102.39,266.77c.57-4.95,6-9,10.94-8.58C1112.36,263,1107.48,267.35,1102.39,266.77Z" transform="translate(-28.38 -3.9)" style="fill:#faf8f9"/><path d="M687.54,261.31c.67-.57,1.34-1.14,2-1.7.25,1.8.45,3.61.55,5.43C689.19,263.84,688.37,262.56,687.54,261.31Z" transform="translate(-28.38 -3.9)" style="fill:#faf8f9"/><path d="M690.54,261.35c.27-1.41,1.71-1.75,2.81-2.32.3,1.94,1.25,4.18-.8,5.59A13.65,13.65,0,0,1,690.54,261.35Z" transform="translate(-28.38 -3.9)" style="fill:#faf8f9"/><path d="M733.71,259.63a27.1,27.1,0,0,1,3,.81,5.42,5.42,0,0,1-2,4.34l-2.83-1.26C732.19,262.05,732,260.18,733.71,259.63Zm.12,1.83c-.52,1.46-.08,2,1.3,1.49C735.63,261.49,735.19,261,733.83,261.46Z" transform="translate(-28.38 -3.9)" style="fill:#faf8f9"/><path d="M1079.65,268c.49-5.09,5.92-9.4,11-8.16C1089.13,264.32,1084.63,268.72,1079.65,268Z" transform="translate(-28.38 -3.9)" style="fill:#faf8f9"/><path d="M543.61,265c1.51-1.7,3-3.42,4.55-5.11l3.15,2q-2.13,1.56-4.22,3.17Z" transform="translate(-28.38 -3.9)" style="fill:#faf8f9"/><path d="M1087.05,269.75c.74-4.81,6.5-10.06,11.32-7.81C1096.44,266.34,1092.2,270.34,1087.05,269.75Z" transform="translate(-28.38 -3.9)" style="fill:#faf8f9"/><path d="M1056.9,272.41c.09-4.37,3.88-8.68,8.37-8.73C1065.51,268.09,1061.44,272.74,1056.9,272.41Z" transform="translate(-28.38 -3.9)" style="fill:#faf8f9"/><path d="M703.29,265.76c1.39-.32,3-1.05,3.86.74l-2.67.33,0,1.26,1.37-.45c.27.83.57,1.66.89,2.5l-3.36-.06C703.37,269,703.31,266.84,703.29,265.76Z" transform="translate(-28.38 -3.9)" style="fill:#faf8f9"/><path d="M709.37,266.55c.68-.57,1.38-1.13,2.08-1.7,0,2-.05,4-.18,6C710.56,269.46,710,268,709.37,266.55Z" transform="translate(-28.38 -3.9)" style="fill:#faf8f9"/><path d="M1112.89,264.9c1.38-1.12,3.1-.57,4.5.23-1.94,3.5-5,7.46-9.46,6.94C1107.76,268.8,1110.48,266.6,1112.89,264.9Z" transform="translate(-28.38 -3.9)" style="fill:#faf8f9"/><path d="M698.44,266.4l3.7-1-2.1,1.74c0,.53,0,1.61,0,2.14l.24.48,0,1.07C697.5,271.06,698.68,268,698.44,266.4Z" transform="translate(-28.38 -3.9)" style="fill:#faf8f9"/><path d="M712.68,266.15l2.61-.74c0,.89-.14,2.66-.19,3.55,1.18-1.3,2.33-2.65,3.54-3.94a18.58,18.58,0,0,1,0,5.42L716.46,269a13.79,13.79,0,0,1-3.84,1.14C712.64,269.11,712.67,267.14,712.68,266.15Z" transform="translate(-28.38 -3.9)" style="fill:#faf8f9"/><path d="M48.19,266.93h3.62c.58,6.6,1.16,13.2,1.84,19.79h-4c-.13-1.43-.26-2.85-.38-4.27q-3.37,0-6.74,0l-2.7,4.32H35.72C39.93,280.14,44,273.52,48.19,266.93ZM45,278.36l3.94.34c-.2-1.75-.41-3.51-.64-5.25C47.17,275.07,46.09,276.72,45,278.36Z" transform="translate(-28.38 -3.9)" style="fill:#faf8f9"/><path d="M70,266.94l3.68,0c-1.32,5.29-2.79,10.55-4.2,15.82h7l-1,4H64.66C66.49,280.12,68.21,273.53,70,266.94Z" transform="translate(-28.38 -3.9)" style="fill:#faf8f9"/><path d="M105.43,276.47c-1.69-4.46,2.16-10.1,7-9.92,2.25-.3,4.18,1,6,2.08q-1.32,1.8-2.66,3.59c-2.16-1.9-5.82-2.69-7.23.52,2,2,5.6,2.09,7,4.79.89,4.43-2.63,9.25-7.22,9.41a7.16,7.16,0,0,1-6.76-3.4c.89-1.12,1.9-2.13,2.87-3.18,1.81,2.4,6.44,4.21,7.34.06C110.18,278.41,107.13,278.46,105.43,276.47Z" transform="translate(-28.38 -3.9)" style="fill:#faf8f9"/><path d="M131.18,266.93H143.1c-.37,1.32-.75,2.65-1.12,4l-8.13,0c-.39,1.35-.77,2.71-1.14,4.06q3.71,0,7.41,0c-.36,1.27-.72,2.53-1.09,3.81-2.44,0-4.87,0-7.31,0-.36,1.34-.72,2.67-1.07,4h8.5c-.39,1.32-.77,2.63-1.15,4q-6.08,0-12.16,0C127.68,280.12,129.38,273.51,131.18,266.93Z" transform="translate(-28.38 -3.9)" style="fill:#faf8f9"/><path d="M155.5,266.93c3.69.34,8.05-1,11.23,1.41,2.18,4.3-.88,9.09-4.23,11.8.61,2.21,1.4,4.37,2.14,6.54l-4.62,0c-.63-2.05-1.26-4.09-1.87-6.14h-2.61c-.54,2-1.09,4.07-1.6,6.12h-3.8C152,280.13,153.67,273.51,155.5,266.93Zm2.73,3.78q-.82,3-1.62,6c1.78-.33,3.91.14,5.47-1,1.13-1.17,1.83-3.14,1-4.64A26.77,26.77,0,0,0,158.23,270.71Z" transform="translate(-28.38 -3.9)" style="fill:#faf8f9"/><path d="M179.32,267l4-.07c.41,4,.45,8.09.93,12.12,2.72-3.88,4.95-8.07,7.45-12.08h4c-3.93,6.61-7.92,13.19-11.9,19.78l-3.17,0C180.16,280.11,179.82,273.53,179.32,267Z" transform="translate(-28.38 -3.9)" style="fill:#faf8f9"/><path d="M219.07,280.49c-.18-6.75,5.3-14.32,12.54-13.93,2.37-.13,3.93,1.8,5.31,3.42-.93,1-1.87,2-2.83,3a26.1,26.1,0,0,0-3.53-2.26c-5.25-.24-9.48,6.84-6.46,11.17,2.38,2.23,5.51.06,7.61-1.47l1.57,3c-2.5,1.9-5.32,4.07-8.68,3.56C221.32,286.84,219,283.61,219.07,280.49Z" transform="translate(-28.38 -3.9)" style="fill:#faf8f9"/><path d="M270.89,267c3.22-1.18,7.57-.33,8.84,3.23,2.6,7.8-4.67,18.15-13.25,16.46-4.3-1.21-5.17-6.63-3.84-10.33A14.19,14.19,0,0,1,270.89,267Zm0,3.89c-3.83,2-6.72,8.1-3.24,11.62,4.67,2,8.78-3.78,8.7-8A3.64,3.64,0,0,0,270.87,270.89Z" transform="translate(-28.38 -3.9)" style="fill:#faf8f9"/><path d="M375.92,267l3.68,0c-1.36,5.29-2.83,10.54-4.21,15.82l7,0c-.36,1.31-.71,2.63-1,3.95H370.59C372.43,280.12,374.14,273.52,375.92,267Z" transform="translate(-28.38 -3.9)" style="fill:#faf8f9"/><path d="M472.89,267.61c.83-1.26,2.68-.46,3.94-.78.6,6.62,1.15,13.25,1.88,19.86h-4c-.14-1.44-.29-2.87-.43-4.3a49.56,49.56,0,0,0-6.79.23,42.19,42.19,0,0,0-2.7,4.07h-4C464.92,280.39,468.73,273.89,472.89,267.61ZM470,278.46l4,.22c-.23-1.76-.47-3.51-.72-5.26C472.18,275.08,471.11,276.77,470,278.46Z" transform="translate(-28.38 -3.9)" style="fill:#faf8f9"/><path d="M490.57,280.61c-.28-6.95,5.53-14.75,13-14,2.17.06,3.54,1.88,4.83,3.38-1,1.07-2,2.13-3.05,3.21-1.11-1-2-2.62-3.76-2.51-4.83.17-8.31,6.09-6.52,10.41,1.93,3.31,6,1,8.24-.74.46,1,.94,2,1.42,3-2.41,1.79-5,3.86-8.23,3.56C493.1,287,490.47,283.86,490.57,280.61Z" transform="translate(-28.38 -3.9)" style="fill:#faf8f9"/><path d="M541.91,267c3.33-1.29,7.83-.28,9,3.46,2.06,7.24-3.67,16.11-11.39,16.45a6.15,6.15,0,0,1-6.23-5.35A14.25,14.25,0,0,1,541.91,267Zm-.07,3.9c-3.73,2.08-6.64,8.08-3.15,11.55,4.66,2.13,8.87-3.8,8.72-8.07A3.65,3.65,0,0,0,541.84,270.93Z" transform="translate(-28.38 -3.9)" style="fill:#faf8f9"/><path d="M565.37,267.16c1.18-.47,2.51-.26,3.77-.4,1.5,4,2.88,8,4.48,11.89,1.22-3.92,2.14-7.93,3.31-11.87l4.05.15c-1.85,6.63-3.57,13.3-5.37,19.94h-4.07c-1.37-3.92-2.81-7.81-4.25-11.69-1.12,3.9-2.11,7.83-3.2,11.73l-4.15-.06C561.89,280.33,563.37,273.67,565.37,267.16Z" transform="translate(-28.38 -3.9)" style="fill:#faf8f9"/><path d="M721,270c-.35-1-1-3.68.62-3.73C722.17,267.23,722.28,269.8,721,270Z" transform="translate(-28.38 -3.9)" style="fill:#faf8f9"/><path d="M1047.73,269.74c1.51-2.46,4.93-5.2,7.59-2.56-2.1,2.9-4,6.71-7.84,7.57C1045.08,273.74,1047,271.28,1047.73,269.74Z" transform="translate(-28.38 -3.9)" style="fill:#faf8f9"/><path d="M1063.31,274.74c-.25-4.65,4.57-9.5,9.31-9.05C1072.29,270.14,1068.07,275.35,1063.31,274.74Z" transform="translate(-28.38 -3.9)" style="fill:#faf8f9"/><path d="M1091.66,272.53c1.8-4,6-7.23,10.59-6.46-.5,3.8-4,6.38-7.19,8.06C1093.63,275,1090.52,274.87,1091.66,272.53Z" transform="translate(-28.38 -3.9)" style="fill:#faf8f9"/><path d="M206.52,267l3.75,0q-2.67,9.88-5.3,19.79l-3.77,0C203.06,280.13,204.76,273.53,206.52,267Z" transform="translate(-28.38 -3.9)" style="fill:#faf8f9"/><path d="M249.48,267l3.73,0c-1.75,6.59-3.55,13.18-5.28,19.78h-3.78C246,280.13,247.7,273.53,249.48,267Z" transform="translate(-28.38 -3.9)" style="fill:#faf8f9"/><path d="M309.47,266.94c3.28.14,6.77-.53,9.88.82,2.17,1,3.12,3.54,3,5.79C322,278,320,282.7,316,285.16c-3.57,2.2-7.93,1.37-11.9,1.52C306,280.12,307.68,273.52,309.47,266.94Zm2.71,3.84c-1.1,4-2.16,8-3.23,12,2.38-.1,5.2.11,6.91-1.91s3.09-5.26,2.22-8C317.13,270.48,314.22,271,312.18,270.78Z" transform="translate(-28.38 -3.9)" style="fill:#faf8f9"/><path d="M336.59,267c4,0,8,0,11.93,0l-1.07,3.95c-2.71,0-5.43-.12-8.12.13-.47,1.29-.89,2.59-1.26,3.92h7.42c-.32,1.26-.65,2.51-1,3.78-2.47,0-4.94,0-7.4,0-.35,1.33-.69,2.66-1,4,2.81,0,5.62,0,8.44,0-.27,1-.8,2.95-1.07,3.93h-12.2C333.11,280.13,334.84,273.54,336.59,267Z" transform="translate(-28.38 -3.9)" style="fill:#faf8f9"/><path d="M390.7,286.69c4.25-6.55,8.26-13.26,12.53-19.8l3.51.05c.61,6.59,1.19,13.17,1.83,19.75h-4.05c-.1-1.43-.2-2.86-.29-4.28a53.27,53.27,0,0,0-6.81.22,38.1,38.1,0,0,0-2.68,4.07Zm8.91-8c1.48,0,2.95,0,4.44,0-.27-1.92-.48-3.85-.7-5.77C402.11,274.88,400.9,276.82,399.61,278.71Z" transform="translate(-28.38 -3.9)" style="fill:#faf8f9"/><path d="M439.52,268.46c0-2.32,2.49-1.31,3.87-1.58,1.52,4.1,3,8.21,4.53,12.3,1.45-4,2.37-8.16,3.51-12.25h3.74q-2.7,9.85-5.29,19.74l-3.78.05c-1.44-4-2.86-8-4.39-12-1.31,3.92-2.28,7.94-3.31,11.94l-3.8,0C436.32,280.64,437.85,274.53,439.52,268.46Z" transform="translate(-28.38 -3.9)" style="fill:#faf8f9"/><path d="M520.54,267l3.75-.06q-2.67,9.88-5.3,19.79l-3.75,0C517.08,280.12,518.81,273.54,520.54,267Z" transform="translate(-28.38 -3.9)" style="fill:#faf8f9"/><path d="M700.72,267.93c.7-1.07,1.38-1,2,.35l-.34.92h-.72Z" transform="translate(-28.38 -3.9)" style="fill:#faf8f9"/><path d="M1068.66,278.19c.19-4.52,4.4-9.53,9.2-9.14C1078,273.53,1073.39,278.59,1068.66,278.19Z" transform="translate(-28.38 -3.9)" style="fill:#faf8f9"/><path d="M1075.76,279.55c-.81-3.93,2.88-6.82,5.76-8.81,1.19-.53,4.2-1.58,4,.84C1084,275.67,1080.4,279.53,1075.76,279.55Z" transform="translate(-28.38 -3.9)" style="fill:#faf8f9"/><path d="M1096.83,277.89a9,9,0,0,1,9.65-7.68C1106,274.75,1101.28,278.25,1096.83,277.89Z" transform="translate(-28.38 -3.9)" style="fill:#faf8f9"/><path d="M760.56,270.52l.42,3.81,2.73.32q-1.53-1.54-2.94-3.15c3.2-.67,4.57,2.07,5.37,4.35a15.76,15.76,0,0,1-5.22-.09l-.2,2.39c-3.15-.5-1.54-4.07-1.89-6.11Z" transform="translate(-28.38 -3.9)" style="fill:#faf8f9"/><path d="M794.34,278.65c1.31-2.39,1.7-5.72,4.62-6.74,1.17,1.87,2.54,3.62,3.65,5.55-2.79,2.83-3.26-4.54-5.69-1.83.81.59,1.64,1.18,2.48,1.76-3.09.41-5.32,3.05-8.62,2.91,0-.41,0-1.25,0-1.66A19.94,19.94,0,0,1,794.34,278.65Z" transform="translate(-28.38 -3.9)" style="fill:#faf8f9"/><path d="M1112.55,272.68l2.54-.37c.21,3.81-4.7,7.73-8.37,7.23C1106,276.49,1109.9,273.73,1112.55,272.68Z" transform="translate(-28.38 -3.9)" style="fill:#faf8f9"/><path d="M767,273.58c2.35-.19,5.2-.57,6.92,1.47,2,1.78.2,5.59-2.43,5.21-2.33.15-4.15-1.54-5.5-3.22Zm1.55,1.15c.36,1.08-.57,3.26.91,3.56,1.93,1.23,3-.46,3.74-2A9.22,9.22,0,0,0,768.52,274.73Z" transform="translate(-28.38 -3.9)" style="fill:#faf8f9"/><path d="M645.38,280.88c1.48-2.31,1.91-6.78,5.25-6.81a42.32,42.32,0,0,1,3.75,6.58l-3.89-1.82C648.76,279.46,647.09,280.24,645.38,280.88Zm4.34-4.14" transform="translate(-28.38 -3.9)" style="fill:#faf8f9"/><path d="M775.84,274.1c2.6.09,5.42-.23,7.69,1.35-.43.65-1.29,2-1.73,2.61a16,16,0,0,1,1.79,3.46c-2.15-.64-3.73-2.25-5.37-3.67.15,2.09-.6,3-2.23,2.91A64.38,64.38,0,0,1,775.84,274.1Zm2.18,1.56c.22,1.28,1,1.52,2.23.69C780,275,779.27,274.8,778,275.66Z" transform="translate(-28.38 -3.9)" style="fill:#faf8f9"/><path d="M787.77,281.25c.27-2.63-1.68-6.88,1.81-7.92C789.54,276.05,790.35,279.37,787.77,281.25Z" transform="translate(-28.38 -3.9)" style="fill:#faf8f9"/><path d="M1034.25,283.94c.47-4.16,4.24-7.7,8.28-8.36,1.6-.54,2.46,1.28,1.59,2.48C1042,281.31,1038.53,284.77,1034.25,283.94Z" transform="translate(-28.38 -3.9)" style="fill:#faf8f9"/><path d="M1042.42,282.39c1.63-4.37,6.15-7.84,11-7.27-.14,4.07-3.93,6.45-7,8.44C1045.25,284,1041.52,284.83,1042.42,282.39Z" transform="translate(-28.38 -3.9)" style="fill:#faf8f9"/><path d="M1079.65,284.1c.17-5,5.33-8.92,10.17-8.63.7,3.32-2.56,5.58-4.85,7.37C1083.51,284.18,1081.44,283.94,1079.65,284.1Z" transform="translate(-28.38 -3.9)" style="fill:#faf8f9"/><path d="M1050.17,284.66c1.36-4.83,6.37-9.12,11.59-8.33C1060.62,281.38,1055.42,285.43,1050.17,284.66Z" transform="translate(-28.38 -3.9)" style="fill:#faf8f9"/><path d="M666.88,280.53c2-.52,4-1.64,6.18-1.49,2.46,1.27.42,5.13-1.26,6.17l.48-4.36c-1.18.08-2.34.19-3.5.32,0,.74,0,2.21,0,2.94.94.39,1.88.79,2.82,1.22l-4.77,1.41C666.84,284.66,666.85,282.6,666.88,280.53Z" transform="translate(-28.38 -3.9)" style="fill:#faf8f9"/><path d="M753.29,279.07a6,6,0,0,1,5.32,1.36,19.29,19.29,0,0,0,3.07,1.83l.41-1.88c1.91,1.66,1.51,4.25,2,6.49L762.25,288a16.63,16.63,0,0,1-1.06-5.34l-2.47-.27a8.44,8.44,0,0,0-3.74-2c.32,1.58-.58,2.85-1.41,4.05C753.11,282.63,751.85,280.7,753.29,279.07Z" transform="translate(-28.38 -3.9)" style="fill:#faf8f9"/><path d="M1086.56,286.77c-.27-5.25,5.49-9.38,10.48-8.63C1096.26,282.93,1091.3,286.59,1086.56,286.77Z" transform="translate(-28.38 -3.9)" style="fill:#faf8f9"/><path d="M1063,280.3c1.31-.5,2.86-1.18,4.27-.59.74,3.32-3,5.43-5.19,7.25-1.63,1.09-6.57,2.21-5.24-1.2A19.41,19.41,0,0,1,1063,280.3Z" transform="translate(-28.38 -3.9)" style="fill:#faf8f9"/><path d="M799.84,286.39c1.73-2.23,1.9-5.85,4.89-6.85,1,1.56,3.79,3.13,3.19,5.13-2.9-.48-5.2.53-7.42,2.19Zm3.64-4.45" transform="translate(-28.38 -3.9)" style="fill:#faf8f9"/><path d="M1065.09,289.85c-.17-5.12,4.39-9.48,9.33-10C1074.67,284.88,1069.85,289.15,1065.09,289.85Z" transform="translate(-28.38 -3.9)" style="fill:#faf8f9"/><path d="M1094.18,288.4c-.4-4.14,4.13-6.44,7.16-8.33l3.58.12C1103.86,284.7,1099.07,289.22,1094.18,288.4Z" transform="translate(-28.38 -3.9)" style="fill:#faf8f9"/><path d="M626.4,280.49c4.06-.05,2.34,3.51,2.3,5.9l2.94.06c-1.29-1.43-1.6-4.81,1.26-4.21.15,1,.44,2.89.59,3.86l.89-.77c.22-.64.65-1.93.86-2.58,2.43.34,4.86.65,7.27,1.12-1.53,1.94-4.16.18-6.16,1,1.93.78,4.59.08,5.76,2.22l-5.53-.32c1.62,1.63,3.93,1.69,6.07,2.11-2.48,1.86-6.17.72-8.41-1-2.73.66-5.33-.4-7.9-1.28C626.34,284.55,626.34,282.52,626.4,280.49Z" transform="translate(-28.38 -3.9)" style="fill:#faf8f9"/><path d="M766.63,281.94l2,1.31c-.27,2.31.72,6.45-3.17,5.62-1.73-.72.07-2,1-2.41C766.5,285,766.55,283.44,766.63,281.94Z" transform="translate(-28.38 -3.9)" style="fill:#faf8f9"/><path d="M643.07,283.42c2.46.44,6.58-1.16,7.53,2-.4.46-1.22,1.36-1.63,1.81l2.48,2.73c-2.53.67-4-1.67-5.84-2.72l-.52,2.72-2.16-.07C642.92,287.75,642.94,285.58,643.07,283.42Zm2.52,1.3c-1.21,1.54,1.6,2.83,2.56,1.52C649.33,284.69,646.54,283.43,645.59,284.72Z" transform="translate(-28.38 -3.9)" style="fill:#faf8f9"/><path d="M775.05,283.83c3.5-.35,7,.66,10.49-.18,0,1.72,0,3.44.1,5.17l2.62-.28c.54-1.92-1-5.4,2.12-5.4-.3,2.12.93,4.95-1,6.52a6.28,6.28,0,0,1-5.81-.07v-5.24l-3.09,1.59c-.64,1.8,1,5.14-2.17,5.06,0-1.68,0-3.36.05-5A7.67,7.67,0,0,1,775.05,283.83Z" transform="translate(-28.38 -3.9)" style="fill:#faf8f9"/><path d="M756,285.52c-.94-1.45,2.79-1.32,3.36-.39Q758.25,286.71,756,285.52Z" transform="translate(-28.38 -3.9)" style="fill:#faf8f9"/><path d="M1023.46,293.64c0-4.56,3.88-9.51,8.74-9.45C1032.13,288.74,1028.22,293.72,1023.46,293.64Z" transform="translate(-28.38 -3.9)" style="fill:#faf8f9"/><path d="M1032.56,291.16a8.62,8.62,0,0,1,6.93-6.89c3.2-.25,1.17,3-.1,4.13A7.65,7.65,0,0,1,1032.56,291.16Z" transform="translate(-28.38 -3.9)" style="fill:#faf8f9"/><path d="M1040.63,293.54c-.14-4.41,4.07-8,8.31-8.09,0,.64,0,1.93,0,2.57C1046.76,290.64,1044.47,293.89,1040.63,293.54Z" transform="translate(-28.38 -3.9)" style="fill:#faf8f9"/><path d="M1068,293.77c.18-4.81,5-9,9.78-8.95.14,3.54-2.61,5.9-5,8C1071.5,293.91,1069.61,294.63,1068,293.77Z" transform="translate(-28.38 -3.9)" style="fill:#faf8f9"/><path d="M1076.84,291.93c1.65-2.84,4.5-5,8-4.67-.63,3.79-3.59,7.6-7.33,8.48C1074.9,296.44,1075.86,292.9,1076.84,291.93Z" transform="translate(-28.38 -3.9)" style="fill:#faf8f9"/><path d="M1050.93,289.2c1.23-1.2,2.8-.31,4.19.05-1.35,2.75-2.63,5.87-5.39,7.5-1.6,1-3.56.5-5.32.53a7.26,7.26,0,0,1-7.21,5.69c.23-4,4.43-8.32,8.47-6.06C1045.75,293.59,1048.53,291.15,1050.93,289.2Z" transform="translate(-28.38 -3.9)" style="fill:#faf8f9"/><path d="M1083.73,297.18c-.37-4.48,4.1-9.11,8.66-8.46C1091.91,292.93,1088.18,297.25,1083.73,297.18Z" transform="translate(-28.38 -3.9)" style="fill:#faf8f9"/><path d="M1093,298.45c0-5.32,5.61-10.59,11-9.29C1102.53,294,1098.4,298.68,1093,298.45Z" transform="translate(-28.38 -3.9)" style="fill:#faf8f9"/><path d="M1052.81,297c1.15-3.59,4.77-7.61,8.9-6.38.31,2.49-2.2,3.74-3.71,5.26C1056.66,297.4,1054.59,297,1052.81,297Z" transform="translate(-28.38 -3.9)" style="fill:#faf8f9"/><path d="M1016.66,302.72c-.2-4.08,1.91-9.29,6.6-9.56C1023.53,297.16,1021.35,302.8,1016.66,302.72Z" transform="translate(-28.38 -3.9)" style="fill:#faf8f9"/><path d="M1023,302.53c.11-4.37,3.46-10.31,8.45-9.58C1030.31,297.07,1028,302.38,1023,302.53Z" transform="translate(-28.38 -3.9)" style="fill:#faf8f9"/><path d="M1029.64,300.94c1.37-3.64,4.37-8,8.94-6.74C1037.53,298.15,1034.05,301.83,1029.64,300.94Z" transform="translate(-28.38 -3.9)" style="fill:#faf8f9"/><path d="M1056.82,302.76c.22-4.32,4.36-6.59,8-7.67,1.42,2.9-1.62,4.66-3.37,6.43C1060.27,302.79,1058.33,302.39,1056.82,302.76Z" transform="translate(-28.38 -3.9)" style="fill:#faf8f9"/><path d="M1063.22,302.53c2-3.12,5.25-6.15,9.31-5.58.22,3.43-3,5.55-5.59,7C1065.55,305,1062.55,304.88,1063.22,302.53Z" transform="translate(-28.38 -3.9)" style="fill:#faf8f9"/><path d="M1072.14,304.73c.9-4.05,4.41-7.9,8.84-7.74,0,4-3.6,7.92-7.49,8.63Z" transform="translate(-28.38 -3.9)" style="fill:#faf8f9"/><path d="M1046.87,305.19c-.38-4,3.55-7.83,7.56-7.16C1053.79,301.75,1050.44,304.47,1046.87,305.19Z" transform="translate(-28.38 -3.9)" style="fill:#faf8f9"/><path d="M1081.7,304.05c1.91-2.41,4-4.85,7-5.94,3.58,1.59-.17,5-1.64,6.82-1.5.83-3.35,2.91-5.08,1.52C1081.9,305.85,1081.76,304.65,1081.7,304.05Z" transform="translate(-28.38 -3.9)" style="fill:#faf8f9"/><path d="M692.82,138.73" transform="translate(-28.38 -3.9)" style="fill:#acacae"/><path d="M692.86,140.73" transform="translate(-28.38 -3.9)" style="fill:#acacae"/><path d="M628.52,274.93c1.37-.4,1.86.11,1.46,1.52C628.59,276.84,628.1,276.34,628.52,274.93Z" transform="translate(-28.38 -3.9)" style="fill:#acacae"/><path d="M645.59,284.72c.95-1.29,3.74,0,2.56,1.52C647.19,287.55,644.38,286.26,645.59,284.72Z" transform="translate(-28.38 -3.9)" style="fill:#acacae"/><path d="M660.85,284.54" transform="translate(-28.38 -3.9)" style="fill:#acacae"/><path d="M772.21,288c2.16.17,4.06,1,4.88,3.15l-2.69-.06Q773.31,289.55,772.21,288Z" transform="translate(-28.38 -3.9)" style="fill:#acacae"/></svg>