<svg id="Layer_1" data-name="Layer 1" xmlns="http://www.w3.org/2000/svg" viewBox="0 0 635.09 637.42"><defs><style>.cls-1{fill:#fff;}</style></defs><path class="cls-1" d="M347.91,56.11c10.7-1.48,22.67-3.18,32.49,2.5,10.42,6.18,10,23.33,0,29.72-4.34,3-9.8,3.13-14.88,3.2-5.35,0-10.68.68-16,.43,1.72-2,4.35-2.65,6.34-4.27,1.15-3.61.2-7.52.24-11.24-.49-5.49.13-11.16-1.24-16.53C353,58.05,350.06,57.61,347.91,56.11Zm15.72,1.49c.35,8.94.5,17.9,1.21,26.82.34,3.7,5.06,4.56,7.92,3.28,3.7-1.86,5.2-6.23,5.61-10.1C379,71.7,377.61,65,372.9,61,370.36,58.74,366.87,58.18,363.63,57.6Z" transform="translate(-63.24 -54.31)"/><path class="cls-1" d="M391.47,54.31c10.32.58,20.59,1.76,30.91,2.34-.67,3.56-1.26,7.13-2.17,10.64-2.2-1.69-2-4.81-3.7-6.82-3-1.94-6.76-1.75-10.16-2.25q-.5,6.39-1.07,12.77c2.46,0,5,.41,7.41-.28,1.69-1.52,2.95-3.45,4.61-5-.14,5.53-.71,11-1.29,16.54-1.77-1.56-2.14-4-3.47-5.83-2.32-1.17-5-1.19-7.51-1.58-.24,4.15-1.17,8.36-.51,12.5,2.05,2.65,6.28,2.47,9.16,1.39,4.55-1.78,4.43-7.85,8.51-10.1a66.1,66.1,0,0,1-2.58,14.55c-8.06-.69-16.1-1.52-24.18-2a22.09,22.09,0,0,1-7.19-1.41c2.65-1.51,7.41-1.53,7.57-5.47.79-7.61,1.46-15.26,1.83-22.9C398.24,57.33,392.84,57.41,391.47,54.31Z" transform="translate(-63.24 -54.31)"/><path class="cls-1" d="M442.8,59.89C453,62,462.9,64.9,473,67.11c-1.53,3.35-1.67,7.76-4.89,10-.5-2.31-.2-4.91-1.33-7-2.59-2.58-6.48-3-9.81-4q-1.58,6.24-3.07,12.49c2.49.41,5,1.06,7.55.87,1.79-1.22,3-3,4.62-4.51.23,4.28-1.44,8.32-2.31,12.44a6.4,6.4,0,0,1-2.18,3.83,49,49,0,0,0-1-5.81c-2.08-1.89-5-2.28-7.56-3.14-.94,4.06-2.39,8-2.59,12.23,2.1,3.29,7.15,3.81,10.48,2.24,3.71-1.7,4.33-6.94,8.51-7.81a76.91,76.91,0,0,1-5,13.79c-7.54-1.94-15.06-3.94-22.66-5.62a34.66,34.66,0,0,1-7.9-2.59c2.43-.89,5.28-.8,7.46-2.25,1.61-2.66,2-5.83,2.8-8.78,1.17-5.39,2.88-10.66,3.76-16.1C448.66,63.81,443.76,63,442.8,59.89Z" transform="translate(-63.24 -54.31)"/><path class="cls-1" d="M290.81,67.43c7.63-2.58,15.58-4.88,23.7-4.87,6.16,0,12.85,2.27,16.22,7.74,3.64,6.08,4.07,14.37,0,20.37-2.53,3.91-6.83,6.36-11.28,7.42-6.86,1.62-13.85,2.72-20.54,5-4.81,1.52-9.4,3.67-14.27,5,.85-2,2.9-3.49,3.13-5.65-1.2-3-3.54-5.26-5.4-7.8L273.19,98c.59,3.15,0,7,2.32,9.51,2.1,1,4.58.42,6.82.8-4.44,3.21-10,4.26-15.08,6.22l-.82-.82c1.21-2,3.18-3.74,3.3-6.24.52-5.32.22-10.69.4-16-.08-4.52.76-9.19-.8-13.55,1.6-2,1.92-5.83,4.59-6.4,7.22,8.32,13.78,17.22,20.87,25.65,1.3,1.39,2.73,2.89,4.69,3.25,2.24-.57,5.35-2.19,4.83-5-.62-5.2-2.23-10.23-3.25-15.37-.88-3.41-1.18-7.08-2.9-10.22C295.9,68.6,293.18,68.46,290.81,67.43Zm15.63-1.25c1.66,7.44,3.39,14.87,5,22.32a16.32,16.32,0,0,0,1.81,5.27c1.55,1.94,4.49,1.71,6.58.9,3.49-1.53,4.67-5.7,4.78-9.21.13-6.69-2.46-14.15-8.52-17.64C313.21,66,309.71,66.09,306.44,66.18Zm-34,16.17c.12,3.85.3,7.71.46,11.56l6.84-2.51C277.35,88.38,274.92,85.35,272.47,82.35Z" transform="translate(-63.24 -54.31)"/><path class="cls-1" d="M478.43,68.81c4.47,1.19,8.66,3.18,13,4.65,2.71,1.05,5.9,1.55,7.72,4.07-2.4.24-4.93-.21-7.23.56a10.24,10.24,0,0,0-2.16,3.69c-3,7.81-5.76,15.71-8.37,23.65,2.77.91,5.67,2.11,8.65,1.47,5-.91,8.64-4.76,12.68-7.53-.91,5.6-5.91,9.36-8.66,14.11-9.46-3.85-19.23-6.9-28.59-11,2.37-1.07,5-.81,7.51-1.49,2.42-3,3.17-7,4.64-10.48,1.65-5.05,4.19-9.84,5.17-15.08C482.38,72.8,479.1,71.53,478.43,68.81Z" transform="translate(-63.24 -54.31)"/><path class="cls-1" d="M229,93c6.1-3.11,13.14-5.37,20-3.88,11.06,2.5,16.7,17.23,10.67,26.68a19.2,19.2,0,0,1-7.2,6.6c-5.84,3.18-12.06,5.69-17.59,9.42-4.09,3-8.47,5.55-12.61,8.46-2,1.32-3.94,3-6.46,2.92,1.13-2.24,3.61-4.07,3.69-6.7-1.68-4.32-4.82-7.87-7.2-11.81-2.63-3.68-4.59-7.92-7.9-11-2.65-.34-5.3.83-7.95.13,6.11-4.3,12.25-8.71,18.83-12.24.67,3.24-4.76,5.39-2.35,8.67,3.37,5.8,7.38,11.22,10.92,16.92,1.32,1.74,2.36,4.18,4.69,4.73,3.85.07,7.32-3,8.63-6.46-.54-3.14-2.4-5.85-3.77-8.68-2.63-4.78-4.8-9.81-7.64-14.46-1.7-3.49-6.07-1.4-9-1.63C220.18,97.15,224.72,95.23,229,93Zm2.62,1.94c3.47,7,7.16,13.88,10.66,20.86,1.06,1.82,2,4.21,4.21,4.84,4.16.67,8-3.08,7.91-7.2,0-7.54-4.23-15.45-11.2-18.68C239.48,92.94,235.31,93.76,231.58,94.91Z" transform="translate(-63.24 -54.31)"/><path class="cls-1" d="M524.23,104.46c.06-5.45,4.76-10.61,10.34-10.62,6-.18,11.14,3.91,14.34,8.68q-3,4.52-6,9l-1.5-1c.68-2.65,1.6-5.32,1.56-8.09-.19-2.89-3.58-5.51-6.38-4.2a5.88,5.88,0,0,0-3.06,7c1.45,4.28,4.56,7.82,5.71,12.23,1.73,6-3.33,13-9.66,12.77-6.92-.07-13-4.65-16.28-10.55,2-4.13,3.52-8.45,5.73-12.47,1.57,2.89,0,6.12.1,9.19-.29,3.87,1.45,8.49,5.54,9.59,3.32.88,6.05-2.61,6.24-5.63C529.73,114.71,524.58,110.48,524.23,104.46Z" transform="translate(-63.24 -54.31)"/><path class="cls-1" d="M564.94,114.61c2.7-.27,5.39-.59,8.1-.85-2.73,10.66-6.32,21.07-9.37,31.63-.58,2.23-1.31,4.71-.22,6.91,1.67,1.71,4.91,3.06,6.83,1,4.14-3.87,7.63-8.37,11.56-12.45,2-2.35,4.53-4.44,5.71-7.37-.47-2.38-1.79-4.48-2.58-6.75,3.51,1.3,5.89,4.26,8.6,6.68s5.6,4.7,8.08,7.38c-2.13,2.87-6.18-2.95-8.55.32-6.51,6.4-12.29,13.51-18.24,20.43,2.24,1.89,4.5,4.1,7.52,4.6,5.11,1,9.93-1.43,14.88-2.2-3.59,4.45-9.12,6.53-13.66,9.8-7.17-6.6-14.27-13.28-21.69-19.6-4.22-3.6-9.09-6.33-13.31-9.92,2.07-.42,4.4.42,6.31-.42,2-2.57,2.47-6,3.58-9l-7.94-5.67c-2.38,2.21-5.71,4-6.6,7.33.9,2.18,2.09,4.23,3,6.42a93.37,93.37,0,0,1-14.31-10.43c2.88-.19,6.06.51,8.64-1.16,4.77-2.79,9.23-6.07,13.88-9.06C558.56,119.88,562.35,117.92,564.94,114.61ZM553.8,126.54l5.91,4.23q1.69-5.58,3.37-11.17Z" transform="translate(-63.24 -54.31)"/><path class="cls-1" d="M179,128c2.28-5.33,7.79-8.33,13.23-9.45,2,2.91,4.23,5.68,5.82,8.84l-.52,1.25c-2.59-1.39-4.77-3.47-7.51-4.58a5,5,0,0,0-6.11,2.81c-1,3.39,2.17,7.13,5.62,7,4.32.12,8.59-1.22,12.92-.71,6.2.57,10.69,7.84,8.33,13.63-2.61,6.48-9.27,10.42-16,11.25-3.09-3.4-6.51-6.49-9.46-10,3-.48,5.21,1.86,7.76,2.95,3.45,1.89,8.37,2.6,11.34-.53,3.19-2.94.06-8.54-3.84-8.73-5.26-.2-10.6,2.06-15.79.42C179.51,140,176.58,133.22,179,128Z" transform="translate(-63.24 -54.31)"/><path class="cls-1" d="M344.16,152.05c7.13-8.91,15.72-18,27.46-20.13,17.14-3.22,34.17,3.49,49.13,11.28A226.8,226.8,0,0,1,447,159.93c10.41,7.37,20.59,15.4,28.47,25.54,5.8,7.47,10.19,16.4,10.85,25.95.36,4.24-.39,8.74,1.45,12.73,2.28,5.06,6.76,8.63,9.6,13.34a26.27,26.27,0,0,1,3.83,13.91c0,12.89-1.83,26-7.47,37.75-4.22-.31-8.29,1-12.4,1.69-6.6,1.23-13.35.54-20,.84.78-4.72,0-9.45-.61-14.12-.61-3.1,1.07-5.93,1.37-8.93a5.39,5.39,0,0,0-6.42-4.79c-3.1.92-5.87,3-9.19,3.11-4.4-2-8.89-4.53-13.92-3.81-7.16.32-13.05,5.22-16.73,11.05-.88-5.48-1.74-11-3.86-16.2-3.37-8.39-11.7-13.8-14.19-22.65-2.75-9.66-2.69-19.85-2.67-29.82.24-13.25,3.13-27.09-1.79-39.86a9.7,9.7,0,0,0-5.32-5.91c-.34,6.12,3.22,11.62,2.89,17.74-.06,12.68-.7,25.36-.7,38-.26,7.66-.17,15.52,2.35,22.85,4.44,13.66,16.82,23.16,20.49,37.16,1.7,4.94-1.74,9.51-3.21,14l-3.48-4.35c-.09-2.1.59-4.73-1.3-6.24-2.9-2.44-6.14-4.66-8-8.07-4.36-6.73-4.19-15-6.68-22.42-3.12-9.82-7.62-19.56-15.05-26.87-4.84-4.66-11.91-8.08-18.7-6.22-3.52,1.37-3.92,5.67-2.51,8.74-9-3.7-19.47-1.87-27.63,3.13a47.31,47.31,0,0,0-23.3,39.07,80.56,80.56,0,0,1-26.52.25A138.86,138.86,0,0,1,300.11,225c5.83-7.43,13-13.71,18.55-21.36a84.59,84.59,0,0,0,13.5-26.47C334.94,168.29,338.3,159.4,344.16,152.05Z" transform="translate(-63.24 -54.31)"/><path class="cls-1" d="M157,147c3.57-2.78,9.35-4.64,12.92-.87,3.26,2.75,2.73,7.31,2.09,11.06,7.49,2.45,15.53,4.29,23.33,2.06-1.3,4.38-5.83,6.94-9.87,8.41-6.82,2.3-13-4.63-19.72-2.18,2.75,3,5.38,6.25,8.87,8.42,2.93.89,5.28-2.76,8.16-2.53-.23,2.85-3.75,4.59-5.54,6.79-3.85,3.05-6.35,8-11.08,9.76.52-2.42,2.28-4.65,2.09-7.16-2.51-4-6.42-6.91-9.61-10.36-3.35-3.08-6.11-7-10.14-9.19-2.33.48-4.53,2-7,1.4C146.17,157,151.12,151.44,157,147Zm-3.71,6.26c3.67,3.7,7.31,7.44,11.11,11,.76-1.91,1.79-3.77,2-5.84,0-3.24-2.43-6.1-5.27-7.39S155.59,151.9,153.25,153.24Z" transform="translate(-63.24 -54.31)"/><path class="cls-1" d="M612.54,150.84a146.13,146.13,0,0,1,12.91,15c-2-.57-4-1.32-6-1.78-2,1-3.07,3.2-4.17,5.08-3,5.47-6,10.88-9,16.31,6.79-3.26,14.1-5.6,20.33-9.91,3.14-2-.78-5.61.33-8.47,3.86,4.16,7.56,8.48,11.21,12.84-3.39,0-6.86-1.12-10.14.16-10,3.49-19.84,7.18-29.77,10.74-.56-1-1.11-2.09-1.66-3.13,5-9.46,9.92-18.95,14.9-28.42C612.91,156.71,612.49,153.66,612.54,150.84Z" transform="translate(-63.24 -54.31)"/><path class="cls-1" d="M118.42,191.83c6-8.43,12.81-16.29,19-24.61,2.35,2.77,6.68,4.66,7,8.65-2-.63-3.89-1.41-5.91-1.87-3.95.74-6,4.69-8.5,7.45,3.36,2.63,6.71,5.27,10.1,7.88,1.37-2.19,3.34-4.2,3.78-6.82-.51-2-1.27-3.88-1.59-5.9,4.5,2.73,8.29,6.43,12.63,9.4l-1.18,1.43c-1.68-.39-3.35-1.67-5.11-1.15-2.3,1.24-3.79,3.49-5.52,5.38,3.41,2.54,6.43,5.78,10.41,7.45,4.37-1.36,7.37-6.94,5.38-11.27-1-2.8-3.8-5.12-3-8.36a69.45,69.45,0,0,1,10.53,10.18c-6.46,7.81-12.38,16.06-18.89,23.83-2.81-1.58,1.75-5.51-.57-7.72-3.54-3.76-8-6.48-11.95-9.81-3.09-2.26-5.82-5.22-9.49-6.55C123.09,190.14,121,191.62,118.42,191.83Z" transform="translate(-63.24 -54.31)"/><path class="cls-1" d="M109.45,206.43c2.31-5.08,5.66-9.61,8.53-14.37.78,3.52,1.35,7.3,3.72,10.18,6.21,8.19,12.49,16.34,18.74,24.51-.75.82-1.49,1.65-2.23,2.48-10.41-1.72-20.78-3.67-31.16-5.52-3.1-.68-6.15.36-9.12,1.11,3.21-5.26,6.25-10.63,9.66-15.75,3,.26.26,3.43.35,5.09a13.54,13.54,0,0,0,5.58,2.59q9.7,2,19.39,3.95c-5.3-5.57-9.76-12.08-16-16.67C114.17,202,112.38,207.15,109.45,206.43Z" transform="translate(-63.24 -54.31)"/><path class="cls-1" d="M631.29,197.28c4.25-1.11,8.81-1.58,12.58-4,2.57.71,5.19,1.25,7.7,2.18-6.31,9.57-13.79,18.33-20.37,27.72-.94,1.68-2.6,4-1.11,5.81,1.19,1.57,3.17,3.47,5.31,2.46,5.34-2.11,10.24-5.2,15.44-7.65,2.72-1.54,6-2.54,8-5,.4-2.46-.23-5,.35-7.43,5.72,9,12.15,19,11.28,30.16-.93,12-16.19,18.93-26.3,13.21-3.84-2.05-6.5-5.7-8.36-9.54-3.4-6.83-6.64-13.79-11.07-20.05-2.14-3.28-4.95-6.22-6.08-10.06,1.68.78,3.29,1.72,5,2.47,3.32-1.3,4.89-4.93,7.19-7.46q-2.75-4.05-5.51-8.09c-3,1.29-6.8,1.76-8.73,4.66-.16,2.26.7,4.43,1,6.65-2.85-1.87-4.32-5-6.25-7.68a23.27,23.27,0,0,1-3.71-6.65c2.48.82,4.92,2.56,7.67,2C620.73,200.09,626,198.45,631.29,197.28Zm-2,3.42c1.36,2,2.72,4,4.1,6l7-9.33Zm13.81,36.35c-1.84,1-4.3,2.07-4.56,4.48a7.18,7.18,0,0,0,7,7.41A21.06,21.06,0,0,0,664,238.85c2.27-3.87,1.63-8.52.39-12.62C657.27,229.73,650.23,233.48,643.1,237.05Z" transform="translate(-63.24 -54.31)"/><path class="cls-1" d="M358.67,220.15A18.1,18.1,0,0,1,371,225c7,6.64,11.08,15.77,14.07,24.82,2.16,6.28,2.28,13.1,5,19.21a29.86,29.86,0,0,0,10.42,13.19,12.47,12.47,0,0,0-7.63,5.52C386.32,297.5,377,306.13,365.4,309c-12.64,3.06-25.73-.86-37.11-6.36-15.14-7.95-22-26.86-18.74-43.15a41,41,0,0,1,24.89-30c6.18-2.41,13.44-2.53,19.42.55,6.25,3.16,11.23,9.38,11.87,16.48a10.07,10.07,0,0,1-3.87,9.3c-4.36,3-10,5.09-15.31,3.78-1.81-.29-2.85-1.92-4-3.13,3.34-.35,7.07.08,10-2,3.44-2.09,6-6.82,3.77-10.65-2.67-4.19-8.15-5.31-12.78-5.4-7.81,0-14.58,5.66-17.5,12.63-3,6.34-2.26,13.69-.18,20.18,2.31,7.38,7,14.35,14.09,17.87,8,4,17.59,3.3,25.9.59,6.28-2,11.87-6.8,13.63-13.31,2.56-9.2-.09-18.76-2.3-27.75C374.34,237.44,368.45,226.63,358.67,220.15Z" transform="translate(-63.24 -54.31)"/><path class="cls-1" d="M87.83,247a209.55,209.55,0,0,1,9.8-20.66c1.19,2.49.14,5.32,1,7.85,3.45,2.86,7.85,4.21,11.78,6.29,4.32,1.88,8.35,4.62,13,5.71,2.49-1,4.19-3.37,6.75-4.31-1.55,4.61-4.09,8.79-6,13.24-1.24,2.51-2,5.49-4.62,7,.1-2.24.41-4.46.29-6.69-1.15-2-3.58-2.78-5.5-3.87-5.88-2.69-11.58-5.76-17.51-8.32C93.12,241.29,91,246.23,87.83,247Z" transform="translate(-63.24 -54.31)"/><path class="cls-1" d="M86.08,249.5c1.77,2.37,2,6.07,5.11,7.19,8.71,4.28,18,7.23,27.19,10.28l.6,3.6Q101.7,276.45,84.4,282.3c6.74,2.12,13.19,5.39,20.19,6.54,3.57.38,4.26-4.75,7.52-4.89-1.36,5.68-3.72,11.07-5.7,16.56-1.38-2-1.06-4.65-2.16-6.75-2.77-2.23-6.29-3.2-9.49-4.61C90,287.37,85.45,285,80.44,284c-3-.42-4.64,2.57-6.53,4.28l-1.63-.67c1.55-4,3-8.11,4.35-12.18,10.49-2.38,20.4-6.75,30.82-9.43-6.29-2-12.45-4.67-19-5.78-3.93-.88-4.21,5.34-8.08,4.94C82.24,259.94,84,254.66,86.08,249.5Z" transform="translate(-63.24 -54.31)"/><path class="cls-1" d="M662.9,258.09a19.58,19.58,0,0,1,15.92,1.12c8.7,4.88,12.36,17.17,7.36,25.89s-17.29,12.64-26.33,8c-8.88-4.56-12.75-16.72-8.24-25.61A19.56,19.56,0,0,1,662.9,258.09Zm7.88,7.67c-6.2,1.42-12.63,4.42-16,10-2.48,3.67-.59,9.49,3.83,10.55s9.12,0,13.34-1.46c4.67-1.81,9.37-4.64,11.73-9.24a7.09,7.09,0,0,0-2.29-9.09C678.19,264.64,674.25,265.08,670.78,265.76Z" transform="translate(-63.24 -54.31)"/><path class="cls-1" d="M419.84,278.71c2.32-5.92,8.25-10.47,14.76-10.13,3.7-.13,6.6,2.41,9.9,3.63,4.12.94,8.13-1.1,11.74-2.86-2,5.22-.61,10.72-.05,16.06.84,6.25-3.76,11.25-7.47,15.67,8.42-5.62,18.88-3.47,28.37-4.15a113.36,113.36,0,0,0,14-2.48c-6,11.51-12.9,22.46-19.92,33.34-5.46-2.88-11.42-5.33-17.71-5.08-9,.15-17.07,5-23.79,10.61-.67-4.51-1.81-9.54-5.88-12.22-5.06-3.65-11.6-2.71-17.35-1.79-2.49.6-6-.84-5.6-3.85.64-4.93,4.79-8.24,7.57-12C413.76,296,416.62,287.18,419.84,278.71Z" transform="translate(-63.24 -54.31)"/><path class="cls-1" d="M262.68,273.7c14.12-9.84,37.08-1.14,40.39,15.95,1.1,3.87-4.84,4.78-7.41,4-3.85-3.52-7.86-7.28-13.17-8.37a15.13,15.13,0,0,0-15.09,4.05c-2.35,2.87-6.19,2.88-9.57,3,7.65-9.89,21.44-12.69,33.16-9.87-4.94-5.61-12.11-8.27-19.33-9.35-8.69,4-14.33,12.94-15.1,22.34-.27,3.42-.65,7.45,1.76,10.25,2.25,2.27,5.88,1.26,8.38,0,1.89-5.55,2.66-11.79,6.51-16.46,2.13-1.64,4.94-1.85,7.47-2.49a45.82,45.82,0,0,0,6.88,18.52c2.2-.83,4.43-1.91,6.85-1.77,2.37,1.63,4.09,4.11,6.72,5.39,7.33,3.56,15.93,2.38,23.34,5.67,7.82,3.45,12.66,11.44,20.86,14.19,4.53,1.43,9.54,1.71,13.5,4.59,13.18,8.91,17.87,25.88,31,34.77,4.95,3.57,11.21,2.85,16.95,3.18-3.55,4.64-9.94,3.72-15,2.77-7.76-1.57-14.42-6.43-19.36-12.48-6.13-7.17-10.9-15.5-18-21.81,6.92,11,9.9,24.32,18.7,34.16a64.5,64.5,0,0,0,41.23,20.41c3.53.4,7.11.05,10.62.61,2,2.75,3.48,5.88,5.31,8.78a23.11,23.11,0,0,1,8.22-2.11,16.87,16.87,0,0,0,6.9,12.92c10.36,7.76,25.41,9.21,36.76,2.73,13.24-7.39,19.3-24.77,14.45-39A19.6,19.6,0,0,0,487,366.94a4.76,4.76,0,0,0-4.27-.19c-9.22,3.86-14.82,13.77-24.87,16-10.83,2.76-23,4-33.37-1.18-7.19-3.5-10.43-11.54-11.44-19-.8-6-.18-12.85,4.24-17.4,2.5-2.71,6.22-3.55,9.69-4.22,4-7.92,13.35-10.28,21.36-11.65,7.1-.87,15.18-1.39,21.31,3,5.8,4.46,6.8,12.29,7.49,19.07,6.74-1.38,14-1.08,20.17,2.27,11.31,5.95,18.43,17.78,21.4,29.9,2.55,10.33,2,21.68-3,31.2-7.49,14.51-21.5,25.2-37,29.84-12.08,3.64-26.05,2.81-36.55-4.65-12.05-8.63-20-22.16-23.56-36.38-.52-1.63-.82-3.74-2.67-4.39-9.45-4.1-20.51-2.29-29.71-7.23-13-6.53-25.08-16.71-30.43-30.6-4.06-10.05-8.57-20.91-18.09-27-9.25-6.25-20.83-5.81-31.14-9-12.78-3.68-24.86-11.65-30.82-23.87-2.05,10.59-1.91,21.39-2.23,32.12q-3,.84-5.94,1.52a42.19,42.19,0,0,1,5.69,3.44c0,4-.24,8.05.44,12,.74,4.52,4.22,8.24,4,13a267.44,267.44,0,0,1-1.72,28.84c-.95,9.06-3.31,18-3,27.18.17,2.47.3,5.56,2.68,7,3.3-.51,6.68-2.86,10-1.17,2,1,5.18,2.27,4.52,5-.38,3.18-.25,6.43,1.45,9.25,5.33-2.47,11.23-3,16.95-4,3.26-.54,5.48,2.45,7.55,4.46-5.25,1.66-11.11,1.15-16,3.79-2.68,1.13-2,4.35-2.38,6.67,4.47,1.2,9.34,2.8,12,6.88,3.08,4.54,0,10.24,1.89,15.13,1.6,5.15,6.78,8.09,11.78,9.12,9.18,1.9,18.66.52,27.74-1.35,19.87-3.95,36.86-15.73,52.66-27.8a15.91,15.91,0,0,1,7,4.7c-7.15,7.95-14.52,15.73-22.35,23-2.92,2.77-6.24,5.16-8.66,8.43-6.54,8.71-10.3,19.22-12.22,29.87a68.74,68.74,0,0,1-10.22,25.64c-6.2,9.31-14.63,16.8-23.05,24-7.92,6.45-15.5,14-19.32,23.65-1.78,4.21-1.73,8.86-1.26,13.33-2.42-1.07-5.3-1.75-6.94-4-1.33-4-.66-8.36.47-12.32,2.66-8.29,8.18-15.38,14.63-21.11,10.67-9.67,21.68-19.61,28.32-32.63,6.36-12.91,8.81-27.28,10.35-41.47-2.33-3.27-5.24-7.65-9.85-7.07-10.46,1.12-21.46,2.16-31.52-1.62a24.27,24.27,0,0,1-14.61-14.57c-1.28-3.81-.43-7.9-1.16-11.78-3-4.22-9.16-4.41-12.25-8.56-1.76-2.18-1.28-5.11-1.39-7.7-4.2-2-8.19-5.39-8-10.47-8.27-.64-18.12-7.15-16.95-16.44,1.28-15.05,3.87-30,5-45,1-12-3.91-23.38-3.92-35.29a23.66,23.66,0,0,1-20-17.23C242.11,301.66,248.19,282.77,262.68,273.7ZM293.5,312a60.82,60.82,0,0,0,10.61,7c6.67,3.31,14.11,4.51,21.4,5.66a49.4,49.4,0,0,0-8.29-5.95C309.88,314.61,301,315.69,293.5,312Zm144.23,23.65c-3.36,2.72-2.82,7.69-1.59,11.36,2.47,6.81,7.11,12.6,12.1,17.74,3.87,3.74,8.63,7.44,14.27,7.41,3.59,0,6.65-2.16,9-4.67,5-5.29,13.28-6.33,20-4.14,5,1.55,8.75,5.34,12,9.24A27.92,27.92,0,0,0,486.69,354c-6-2.33-11.73,1.7-17.63,2.39-.69-6.77-.3-14.32-4.59-20.05-2.78-3.66-7.72-4.11-12-4.3C447.45,332,441.84,332.38,437.73,335.68Z" transform="translate(-63.24 -54.31)"/><path class="cls-1" d="M70.7,294.3a7.8,7.8,0,0,1,1.76-3.57c1.06,1.77.81,4.75,3.05,5.61,7,2.74,14.64,3.74,21.68,6.5a11.55,11.55,0,0,1,7.27,11.67c-.41,6.75-4.29,15-12,15.4-8.13-.25-15.85-3.79-24-3.88-1.78,1.72-3.09,3.92-5.28,5.18,1.25-7.25,2.86-14.43,4.39-21.61,2.9,2,.71,7.4,4.84,8,6.31,1.6,12.72,2.85,19.12,4,6.9,1.21,11.07-7.9,8.1-13.33-2.23-3.37-6.55-3.92-10.18-4.75-4.67-.82-9.25-2.3-14-2.45-3.77-.09-4,5-7.28,6C68.91,302.81,69.87,298.57,70.7,294.3Z" transform="translate(-63.24 -54.31)"/><path class="cls-1" d="M690.86,298.91c.88-2.21,1.43-4.56,2.63-6.65,2.26,7.23,4.21,14.69,4.62,22.27.32,4.39-1.59,9.92-6.49,10.72-4.07,1.11-7.54-1.69-10.18-4.37-3.92,3.19-7.86,6.49-10.79,10.65-1.79,2.45-2.51,5.63-4.86,7.68-1.2-4.91-2.24-10.51.41-15.13,3-5.27,10.24-6.86,11.8-13.06-4,.79-8.35,1-12.09,2.89-2.34,2.15-.5,6.12-2.53,8.47-1.14-1.35-1.35-3.16-1.7-4.82-1-5.89-2.34-11.72-3.62-17.56l1.69-.4c1.11,1.81,2,3.93,3.75,5.19,6,0,11.67-2.1,17.52-3C684.29,300.91,688,300.9,690.86,298.91Zm-11.19,11.6c1.39,2.09,2.51,4.76,5.06,5.68a8.37,8.37,0,0,0,8.61-1.86c1.75-1.85,1.35-4.61,1.62-6.93C689.86,308.42,684.76,309.47,679.67,310.51Z" transform="translate(-63.24 -54.31)"/><path class="cls-1" d="M384.53,316.4c3.1-1.31,6.52-.73,9.68.06-2.82,3.05-6.25,5.65-8.31,9.33-1.51,2.69.39,5.65.76,8.42,1,3.62,0,8.2,3.16,10.92,4.12,3.56,10,2.74,15,2.77-1.45,2.42-3.21,5-6.15,5.62-7.65,2.14-16.61.73-22.64-4.64-5.79-5.2-7.41-14.16-4.35-21.23C373.92,322.14,379.16,318.5,384.53,316.4Z" transform="translate(-63.24 -54.31)"/><path class="cls-1" d="M287.8,351.72c1.89-3.92,7-4.07,10.76-4.05,11.68.55,23.35,1.44,35,2.43-7,1.87-15.26,1.18-21,6.22,7.26,7.4,17.81,9.88,27.33,13.05-4.17.91-8.84,2.83-12.88.56a45.26,45.26,0,0,0-11.72-4.42c-.71,2.45-1.78,5.65-4.9,5.59-3.2.35-4.72-2.9-5.55-5.41-1.16,2.2-1.84,6.38-5.27,5.27-3.77-1.45-6.23-4.95-8.58-8.06C288.81,359.68,286.42,355.7,287.8,351.72Z" transform="translate(-63.24 -54.31)"/><path class="cls-1" d="M76.83,363c8.32-3.47,18.74,1.62,21,10.34,2.83,8.66-3.33,18.79-12.35,20.15C77.05,395.33,68,389,66.89,380.4A15.94,15.94,0,0,1,76.83,363Z" transform="translate(-63.24 -54.31)"/><path class="cls-1" d="M676.85,362.91c8.8-3.54,19.65,2.57,21.14,11.94,2,9-5.28,18.58-14.51,18.87-8.24.83-16.28-5.86-16.93-14.11A15.93,15.93,0,0,1,676.85,362.91Z" transform="translate(-63.24 -54.31)"/><path class="cls-1" d="M291.43,404.89c6.46,1.14,13,9.1,9.07,15.48-3.19,3-9.09,3.78-12.43.53,2.93-1.33,7.15-1.88,8.15-5.48C297.47,411.13,293.57,408,291.43,404.89Z" transform="translate(-63.24 -54.31)"/><path class="cls-1" d="M669.88,418c7.87-1.3,16.54,2.61,20.09,9.9a24,24,0,0,1-5.56,27.51c-7,6.18-18.44,5.61-25.13-.7C647.62,443.87,653.77,420.44,669.88,418ZM664,429c-4.1,1.16-7.71,4.89-7.4,9.37.25,4.18,4,7,7.56,8.52,6.26,2.66,13.91,3.65,20.09.26a8.79,8.79,0,0,0,4.44-9.75c-.87-3.17-3.81-5.12-6.57-6.52C676.5,428.26,669.93,427.2,664,429Z" transform="translate(-63.24 -54.31)"/><path class="cls-1" d="M73.49,426.47c4.45-1.37,8.8-3.09,13.37-4-1.56,3.77-6,4.89-8.33,8-2.58,2.79-3.7,7.24-1.68,10.65,1.87,3.18,7.22,2.75,8.86-.43,2.63-5,2.68-11.14,6.41-15.56,4-4.06,11.34-3.6,14.91.78,4.38,5.05,4.77,12.32,3.36,18.58-3.84.46-7.67,1-11.53,1.24,1.5-3.75,6.48-4,8.35-7.44,1.77-3.29-.61-8.37-4.69-7.8-3,0-4.87,2.74-5.64,5.37-1.62,4.27-2.32,9.09-5.35,12.69-3.77,4.12-11.16,3.93-14.63-.5C72.07,442,71.49,433.66,73.49,426.47Z" transform="translate(-63.24 -54.31)"/><path class="cls-1" d="M110.37,455.25c1.31-2.44,0-5.63,2-7.86,3.86,10.78,7.23,21.74,11.13,32.52l-10,2.11c-.17-.48-.5-1.44-.66-1.92,1.82-1.6,4.79-2.86,4.77-5.67-.08-3.56-1.47-6.9-2.47-10.26-4.06,1.34-8.1,2.73-12.16,4.09,1.17,2.68,1.83,5.75,3.93,7.91,1.49.75,3.22.75,4.84,1.06.14.41.44,1.25.59,1.66-5,1.35-9.72,3.55-14.79,4.59-.25-2.49,2.72-3.38,3.56-5.43.25-2.95-1-5.73-1.77-8.51-3.83,1.38-8,2.11-11.46,4.36-1.88,2.67.06,6.24,1.43,8.77,2.7,4.25,8.21,4.13,12.64,4.29.15.55.44,1.63.58,2.18a96.64,96.64,0,0,1-13.7,2.66c-3.38-11.06-7.66-21.84-10.81-33,2.59,1,3.78,3.69,6,5.18,1.5.43,3.05-.27,4.5-.61,5.55-1.85,11.08-3.77,16.64-5.59C106.92,457.14,108.91,456.6,110.37,455.25Z" transform="translate(-63.24 -54.31)"/><path class="cls-1" d="M656.89,463.06c8.4-2.18,18,3.16,20.58,11.44,1.94,5.7.62,11.89-1.68,17.27-2.69,6.28-4.81,12.78-7.49,19.05-2-2.48,0-6-1.7-8.44-3.83-2.62-8.5-3.63-12.73-5.46-4.37-1.43-8.5-4-13.15-4.32-2.31,1.5-3.78,4-6.11,5.49,2.14-8.34,5-16.64,9.4-24.08C647,469.19,651.24,464.62,656.89,463.06Zm-3,10c-5.15,1-8.72,5.24-11.08,9.64,7.06,2.8,14.17,5.45,21.23,8.26,2,.61,4.14,1.91,6.27,1.22,3.93-2,5.24-7.69,2.75-11.31C669.06,474.82,661,471.75,653.91,473.09Z" transform="translate(-63.24 -54.31)"/><path class="cls-1" d="M104,495c6.09-4.89,15.24-6.21,22.09-2.11,8.38,4.86,11.93,14.7,13,23.86-3.7,1.82-7.32,3.79-11.14,5.34.43-3.67,4-5.65,5.22-9,2.25-5-.89-11.31-5.94-13.14-4.73-1.74-9.94-.3-14.25,1.92-4,2.09-7.79,5.23-9.3,9.62-1.79,5,1.16,10.85,5.92,12.94,2.78,1.4,5.94,1.49,9,1.63a3.64,3.64,0,0,1,3.75,1.88,62.82,62.82,0,0,1-11.91,2.53c-1.92.53-3.07-1.39-4.22-2.55-4.43-5.53-7.88-12.29-7.93-19.52A17.15,17.15,0,0,1,104,495Z" transform="translate(-63.24 -54.31)"/><path class="cls-1" d="M473.88,503c2.69-.69,5.67-1.3,8.37-.29,2.08,1.12,1.62,4.16-.45,5a18.45,18.45,0,0,1-11.23,1.59c-1.9-.19-2.22-2.45-1.2-3.74A8.79,8.79,0,0,1,473.88,503Z" transform="translate(-63.24 -54.31)"/><path class="cls-1" d="M448.17,512.12a18.57,18.57,0,0,1,15.7-6c0,5.95-6.57,7.85-11.25,9.07C450.39,516.16,446,515.16,448.17,512.12Z" transform="translate(-63.24 -54.31)"/><path class="cls-1" d="M625.65,517.92c-.18-2.87-1.47-5.79-.67-8.63,11.19,1.37,22.29,3.47,33.47,4.94,3.37.8,6.18-1.46,9.09-2.71-1.36,4-3.92,7.4-5.83,11.12-1.49,2.63-2.58,5.7-5.23,7.43.14-1.92.41-3.81.46-5.72-2.69-2.51-6.74-2.13-10.11-2.94q-2.62,4.71-5.29,9.39c2.36,2.24,4.4,5.59,7.9,6,2.21-1.21,4-3.1,6.4-4-2.1,4.46-4.78,8.62-7.09,13-.71.9-1,2.45-2.29,2.69-.76-1.65-.47-3.48-.78-5.2-.74-2.35-2.33-4.3-3.79-6.23Q636,529.54,630.23,522A14.78,14.78,0,0,0,625.65,517.92ZM631,519c2.56,2.94,5.14,5.88,7.71,8.82l4-7.07Q636.82,519.87,631,519Z" transform="translate(-63.24 -54.31)"/><path class="cls-1" d="M424.9,523c1.9-6.7,9-10.65,15.67-10.67,3.08.08,2.19,4.25.17,5.34C436.12,520.87,430.65,523.44,424.9,523Z" transform="translate(-63.24 -54.31)"/><path class="cls-1" d="M456.28,519.51c2-4.37,7.74-7.81,12.42-5.23-2.27,3.72-5.75,7.3-10.26,7.9C457.12,522.37,455.26,520.87,456.28,519.51Z" transform="translate(-63.24 -54.31)"/><path class="cls-1" d="M468.67,520.66c2.66-3.36,7.76-6.77,11.75-3.45-2.66,3.52-6.17,7.29-10.88,7.51C467.48,524.34,467.49,521.94,468.67,520.66Z" transform="translate(-63.24 -54.31)"/><path class="cls-1" d="M433.53,530c1.69-6.94,9.26-10.93,16-10.71,2.58.56,1.68,4,0,5.09C444.91,527.73,439.34,530.23,433.53,530Z" transform="translate(-63.24 -54.31)"/><path class="cls-1" d="M141.1,519.71c2.8.63,4.12,3.33,5.76,5.37,4,5.69,8.69,11.16,10.9,17.87,1.21,3.5.82,8.09-2.65,10.16-3.48,2.42-7.81.83-11.28-.74-3.55,7.44-6.46,15.57-5.09,23.94-4.17-1.95-5.85-6.82-7.18-10.91-1.71-5.94,2.32-11.14,4.39-16.37.83-1.64.1-3.45-.1-5.13-3.3,2.31-7,4.27-9.66,7.36-.93,2.89,1.24,5.69,2.16,8.34l-1.48,1.17c-4.56-7.17-10.07-13.73-14.38-21,2.77-.58,4.52,2.6,7,3.36,3.66-1.11,6.5-3.81,9.63-5.88,4.05-3,8.45-5.58,12.27-8.89C144.06,526.05,141.34,522.45,141.1,519.71Zm-3.6,23c2.38,1.7,4.82,4.11,8,3.75a8.18,8.18,0,0,0,6.33-4.72c1-2.76-.67-5.45-1.66-7.93C145.9,536.68,141.69,539.66,137.5,542.69Z" transform="translate(-63.24 -54.31)"/><path class="cls-1" d="M414.91,523a4.16,4.16,0,0,1,3.67-.43c.9,2.52-.78,4.86-2.33,6.69-2.59,3.1-6.43,5.77-10.67,5.19C405.19,529,410.8,525.42,414.91,523Z" transform="translate(-63.24 -54.31)"/><path class="cls-1" d="M457.92,524.83c2-1.16,4.77-1.48,6.42.51a15.05,15.05,0,0,1-8,7.12c-1.74.8-4.72.49-4.16-2.08C453.15,527.78,455.58,526.1,457.92,524.83Z" transform="translate(-63.24 -54.31)"/><path class="cls-1" d="M472.74,525.65a5.53,5.53,0,0,1,4.64-.09c.45,3.13-2.49,5.33-4.51,7.26-1.73,1.46-5.2,3.42-6.6.6C466.74,529.86,469.72,527.22,472.74,525.65Z" transform="translate(-63.24 -54.31)"/><path class="cls-1" d="M419.33,530.3c2.82-1.47,5.94-3.71,9.28-2.77,1.19,2.2-.39,4.5-2.23,5.7-4,2.68-8.3,5.51-13.29,5.66A11.5,11.5,0,0,1,419.33,530.3Z" transform="translate(-63.24 -54.31)"/><path class="cls-1" d="M426.12,542.76c-.47-5.52,4.82-8.66,9.35-10.17,1.93-.66,5.78-1.56,4.46,1.86C437.19,539.31,431.54,542.12,426.12,542.76Z" transform="translate(-63.24 -54.31)"/><path class="cls-1" d="M479.91,534c1.55-.81,4.81-1.05,4.75,1.42a16.05,16.05,0,0,1-7,7.28c-1.46.75-4.1,1-4.25-1.2C474,538,477,535.53,479.91,534Z" transform="translate(-63.24 -54.31)"/><path class="cls-1" d="M448.77,534.76c1.68-.52,4.71-1.85,5.52.59a23.18,23.18,0,0,1-11.09,10.74c-1.64.72-5.82,1.51-4.68-1.57A20.39,20.39,0,0,1,448.77,534.76Z" transform="translate(-63.24 -54.31)"/><path class="cls-1" d="M454.57,543.52c1.79-4.36,6.75-8.57,11.66-6.35-1.74,3.63-4.38,7.12-8.18,8.75C456.36,546.78,453.59,545.76,454.57,543.52Z" transform="translate(-63.24 -54.31)"/><path class="cls-1" d="M387.53,541.42A12.1,12.1,0,0,1,398,537c-1.06,5.07-4.71,9.1-8.72,12.15-1.8,1.19-4.48,2.73-6.46,1.11C382.56,546.71,385.38,543.94,387.53,541.42Z" transform="translate(-63.24 -54.31)"/><path class="cls-1" d="M609.91,539.86c3.14-2.15,7.83-2.35,10.44.75,2.74,2.69,2.09,6.78,1.92,10.24,6.38.75,13,1.52,19.27-.47,1.61-.41,3.19-1.28,4.91-.94l.29.52c-3.51,5.54-9.15,11.31-16.31,10.47-4.63,0-9.7-2.6-13.83.55,3.17,2.56,6.23,5.41,10,7.14,3.56-.18,5.3-4.8,9-4.22-5.33,7.06-10.57,14.22-16.22,21-1.34-3.27,2.9-6.81.19-9.58-3.79-3.62-8.27-6.42-12.32-9.72-2.9-2.07-5.49-4.78-8.92-5.93-2.43.51-4.25,2.42-6.38,3.58-.42-2.83,1.84-4.87,3.26-7C599.67,550.45,603.63,543.91,609.91,539.86Zm-7.33,10.54c4.11,3.16,8.17,6.39,12.43,9.35a27.35,27.35,0,0,0,1.6-6.33c-.13-3.32-3-6.15-6.08-6.91S604.83,548.5,602.58,550.4Z" transform="translate(-63.24 -54.31)"/><path class="cls-1" d="M396.1,550.41c1.79-5.69,7-10.33,13.18-10.31C407.66,545.74,402.26,550.9,396.1,550.41Z" transform="translate(-63.24 -54.31)"/><path class="cls-1" d="M410,552.72c1.38-5.91,7-10.64,13.12-10.55C421.44,547.86,416.1,552.59,410,552.72Z" transform="translate(-63.24 -54.31)"/><path class="cls-1" d="M455.34,554.52c2.9-5.92,9-10.89,15.9-10.53-1.5,5.78-6.58,10.06-11.86,12.38C457.86,557.13,454,557.2,455.34,554.52Z" transform="translate(-63.24 -54.31)"/><path class="cls-1" d="M417.79,558.92c1.52-7,8.64-13.23,16-12.71.31,3.09-2.29,5.25-4.19,7.3C426.49,556.72,422.41,559.19,417.79,558.92Z" transform="translate(-63.24 -54.31)"/><path class="cls-1" d="M441.56,549.34c1.73-.63,5.69-1.34,4.5,1.72-3.29,5.47-9,11.09-15.9,10.33C431.58,555.78,436.32,551.45,441.56,549.34Z" transform="translate(-63.24 -54.31)"/><path class="cls-1" d="M167.38,560.33c-.28-2.63-2-5-1.66-7.68,8.21,8,15.66,16.79,23.72,25-3.2,1.77-5.82,6.06-9.88,5.28.9-2.45,3.47-4.93,2.28-7.68-1.49-3.29-4.19-5.78-6.52-8.46q-4.68,4.35-9.33,8.74c1.89,1.83,3.66,3.89,6,5.23,2.18,1.18,5-1.64,6.86.45-3.49,3.57-7.41,6.71-10.84,10.35l-1.53-1.18a19.66,19.66,0,0,0,2-4.8c-.9-2.95-3.35-5.06-5.25-7.38-3,3-6.85,5.4-8.87,9.22,1,4.81,6.19,9,11.2,8,3.07-.35,6.08-3.09,9.1-1.19a78.37,78.37,0,0,1-11.8,8.59c-7.65-8.64-15.93-16.72-23.44-25.48,2.59-.18,4.74,1.47,7.13,2.14,1.6.12,2.74-1.27,3.93-2.12,4.36-4,8.58-8.08,13-12C164.85,563.8,166.7,562.41,167.38,560.33Z" transform="translate(-63.24 -54.31)"/><path class="cls-1" d="M386.25,556.18c1.92-2.15,4.8-2.75,7.54-3-.84,4.78-4.05,8.82-7.92,11.59a6.09,6.09,0,0,1-4.65,1C380.89,561.9,383.77,558.8,386.25,556.18Z" transform="translate(-63.24 -54.31)"/><path class="cls-1" d="M471.83,555a8.2,8.2,0,0,1,4.87-.86c.85,2.77-2,5-3.61,6.92-2.43,2.2-5.9,5.51-9.37,3.56C464.69,560.33,468.13,557,471.83,555Z" transform="translate(-63.24 -54.31)"/><path class="cls-1" d="M367.65,560.66a13.07,13.07,0,0,1,8.45-4.56c0,4.18-2.76,7.52-5.6,10.28-1.73,1.6-3.94,3.15-6.44,2.59C363.19,565.75,365.83,563,367.65,560.66Z" transform="translate(-63.24 -54.31)"/><path class="cls-1" d="M391.11,569.86c1.24-6.88,7.1-14.42,14.74-13.75C403.5,562.51,398.61,569.61,391.11,569.86Z" transform="translate(-63.24 -54.31)"/><path class="cls-1" d="M438,565.89c3.26-5.32,8.81-9.68,15.3-9.71-.41,4.11-3.52,7-6.5,9.53-2.5,2-5.55,3.83-8.89,3.44A2.76,2.76,0,0,1,438,565.89Z" transform="translate(-63.24 -54.31)"/><path class="cls-1" d="M400.83,571.73c2.47-5.34,7.19-10.18,13.37-10.64-.28,4.37-3.17,7.89-6.19,10.81-1.92,1.8-4.32,3.4-7.06,3.32A2.81,2.81,0,0,1,400.83,571.73Z" transform="translate(-63.24 -54.31)"/><path class="cls-1" d="M411.13,577.49c.77-7.46,7.68-13.74,15.09-14.36-.46,4.85-4,8.51-7.53,11.52C416.61,576.54,413.83,577.18,411.13,577.49Z" transform="translate(-63.24 -54.31)"/><path class="cls-1" d="M445.85,574.88c1.33-6.61,7.82-11.35,14.4-11.68C459.1,569.73,452.39,574.78,445.85,574.88Z" transform="translate(-63.24 -54.31)"/><path class="cls-1" d="M468.92,568a9.77,9.77,0,0,1,5.94-1c.22,2.9-2.23,4.94-4.06,6.82-2.61,2.27-5.9,4.94-9.59,4C460.85,573.39,465.47,570.12,468.92,568Z" transform="translate(-63.24 -54.31)"/><path class="cls-1" d="M570.12,583.07c3.83-7.56,11.43-12.05,18.63-15.93,2.78,2.85,5.61,5.66,8.22,8.68-3.62,1-6.81-1.79-10.4-1.64-6.77-.28-12.59,6.63-11.33,13.25,1.82,9.79,12.64,17.2,22.41,14.5,2.85-.68,4.86-2.92,6.61-5.12-2.5-2.55-4.69-5.55-7.81-7.38-2.68-.56-4.87,1.88-7.12,3L588.18,591c5.24-4.93,10.23-10.12,15.65-14.86,0,2.06-.23,4.11-.21,6.18,1.52,2.49,3.85,4.35,5.83,6.47l3.11-2.4c-.18,4.24-2.89,7.71-5.25,11-4.17,5.44-9.31,10.81-16.22,12.47a18.66,18.66,0,0,1-21-26.83Z" transform="translate(-63.24 -54.31)"/><path class="cls-1" d="M368.81,571.91a9.14,9.14,0,0,1,4.94-.46c.19,3.54-2.83,6-5.05,8.28-3,2.63-6.82,5.85-11.07,4.59-.46-2.13.92-4,2.17-5.52A21.8,21.8,0,0,1,368.81,571.91Z" transform="translate(-63.24 -54.31)"/><path class="cls-1" d="M344.07,584.77c1.56-7,8.45-13,15.81-12.56C357.71,578.86,351.39,584.92,344.07,584.77Z" transform="translate(-63.24 -54.31)"/><path class="cls-1" d="M417.15,584.66c2.38-7,9.14-13.15,16.85-12.53C431.52,578.88,424.81,585.5,417.15,584.66Z" transform="translate(-63.24 -54.31)"/><path class="cls-1" d="M381.92,574a11.47,11.47,0,0,1,4.77-.45c.61,2.49-1.5,4.36-3,6-3.08,3.08-6.79,6.15-11.33,6.42l-1.78-1.38A20.25,20.25,0,0,1,381.92,574Z" transform="translate(-63.24 -54.31)"/><path class="cls-1" d="M435.87,578.72c2.54-1.82,5.73-3.26,8.91-2.46-.28,3.94-3.69,6.57-6.4,9a14.57,14.57,0,0,1-9.63,3.6C429.21,584.48,432.51,581.24,435.87,578.72Z" transform="translate(-63.24 -54.31)"/><path class="cls-1" d="M390.81,579.81a9.51,9.51,0,0,1,6-.73c0,3.57-3.16,5.91-5.53,8.14-2.86,2.28-6.48,5-10.35,3.74C381.15,585.66,386.53,582.1,390.81,579.81Z" transform="translate(-63.24 -54.31)"/><path class="cls-1" d="M394.23,593.6c.94-6.94,6.88-14,14.28-14C407,586.31,401.51,593.16,394.23,593.6Z" transform="translate(-63.24 -54.31)"/><path class="cls-1" d="M452.88,579.88c1.38-.26,3.47-1,4.35.56-.73,3.07-3.14,5.31-5.35,7.4-2.78,2.41-6.21,4.91-10.11,4.29-1-1.8.39-3.56,1.41-5C445.71,584,448.92,581.1,452.88,579.88Z" transform="translate(-63.24 -54.31)"/><path class="cls-1" d="M183.33,590.56c3.14-3.69,6.76-6.91,10.14-10.37,3.24,5.14,8.63,8.22,13.08,12.16,4.56,3.41,8.43,8,13.92,9.92-2.62,4.06-5.06,8.26-8.08,12.05-1.3-3.57,1.14-7.24.07-10.84-.73-2.49-2.75-4.28-4.34-6.22-5.52,6.76-11.19,13.41-16.52,20.31-2.86,3.34,1,6.89,2.31,10l-1.17.48c-6.73-5.1-13.18-10.61-19.66-16,3.65-1.28,7.74,3.38,10.83-.06,5.94-6.61,11.28-13.74,17-20.55-2.34-1.3-4.64-3.06-7.44-3.09C189.9,588.2,186.91,591,183.33,590.56Z" transform="translate(-63.24 -54.31)"/><path class="cls-1" d="M326.64,599.7c1.06-6.55,6.24-13.11,13.22-13.7-.6,4.71-3.43,8.77-6.88,11.88C331.28,599.36,328.93,600.91,326.64,599.7Z" transform="translate(-63.24 -54.31)"/><path class="cls-1" d="M342.15,594.42c2.22-4.81,7.19-8.7,12.7-8.23a17.41,17.41,0,0,1-9.68,9.89C344,596.64,340.85,596.47,342.15,594.42Z" transform="translate(-63.24 -54.31)"/><path class="cls-1" d="M405.49,590.29c2.26-1.86,5.11-3.2,8.1-2.76.24,3.22-2.18,5.68-4.08,8-2.73,3.2-6.43,5.92-10.83,5.77C399,596.72,402.16,593.1,405.49,590.29Z" transform="translate(-63.24 -54.31)"/><path class="cls-1" d="M363.81,588.87c1-.4,4.57-.34,3,1.58-2.21,4.57-6.77,10.11-12.39,9.19C354.85,594.63,359.27,590.53,363.81,588.87Z" transform="translate(-63.24 -54.31)"/><path class="cls-1" d="M412.06,601.48c2-5.36,6.7-10.56,12.85-10.43-.9,4.85-4.34,8.84-8.36,11.5C415,603.51,411.27,604.53,412.06,601.48Z" transform="translate(-63.24 -54.31)"/><path class="cls-1" d="M371.83,594a7.64,7.64,0,0,1,3.88-.52c.63,3.35-2,6-3.84,8.49-2.23,2.47-5.1,5.43-8.76,4.71C362.68,601.24,367.38,596.45,371.83,594Z" transform="translate(-63.24 -54.31)"/><path class="cls-1" d="M433.15,594c1.39-.54,4.43-1.16,3.67,1.4-2.14,5.18-6.68,10.55-12.77,10.58A16.4,16.4,0,0,1,433.15,594Z" transform="translate(-63.24 -54.31)"/><path class="cls-1" d="M452,594c1.54-.55,4.34.21,3.15,2.31-1.46,3.75-4.58,6.62-7.61,9.15-2.18,1.54-5.25,3.59-7.82,1.77C440.49,601,446.17,595.83,452,594Z" transform="translate(-63.24 -54.31)"/><path class="cls-1" d="M374.84,605.7c1.53-5.6,7.17-10.3,13.16-9.65a18.24,18.24,0,0,1-9.27,9.68A5.18,5.18,0,0,1,374.84,605.7Z" transform="translate(-63.24 -54.31)"/><path class="cls-1" d="M541.37,607.25c2.51-6.46,9.18-10.13,15.65-11.54,1.73,3.47,5.82,6.61,4.88,10.81-2.71-1.86-5.13-4.38-8.39-5.23-3-.49-6.55,2-6.5,5.19a5.65,5.65,0,0,0,5.4,5.21c5.23.15,10.44-1.72,15.65-.65,5.57,1.3,8.85,8.15,6.4,13.32-3.27,6.87-10.59,11.52-18.1,12.18a49.72,49.72,0,0,1-9.06-9.94l1.42-.46c3.89,1.75,7.38,4.78,11.85,4.92,3.5.2,7.77-1.86,8.28-5.65,0-2.81-2.31-5.82-5.3-5.69-5.35-.11-10.66,2-16,.81C542.21,619,539.31,612.36,541.37,607.25Z" transform="translate(-63.24 -54.31)"/><path class="cls-1" d="M332,602c1.67-1.43,3.81-2.7,6.1-2.1.39,3.58-1.88,6.69-3.73,9.55-2.06,3.12-5.2,5.88-9.2,5.58A21.38,21.38,0,0,1,332,602Z" transform="translate(-63.24 -54.31)"/><path class="cls-1" d="M317.32,607.43a13,13,0,0,1,7.65-7.07c.61,5.79-2.73,12.86-8.56,14.61C314.71,612.61,316.39,609.73,317.32,607.43Z" transform="translate(-63.24 -54.31)"/><path class="cls-1" d="M337.09,612.85c1.4-5.35,6.3-11.83,12.43-10.48C347.94,607.79,343,612.78,337.09,612.85Z" transform="translate(-63.24 -54.31)"/><path class="cls-1" d="M350.16,612a13.18,13.18,0,0,1,10.15-7c-1,5-5.24,9.68-10.47,10.28A3.27,3.27,0,0,1,350.16,612Z" transform="translate(-63.24 -54.31)"/><path class="cls-1" d="M381.13,614.88c.7-5.85,7.05-10.65,12.92-9.94C391.75,609.94,387.15,615.35,381.13,614.88Z" transform="translate(-63.24 -54.31)"/><path class="cls-1" d="M401.17,607.13c1.61-.48,4.94-.77,3.87,1.85-2.89,4.84-8,9.26-14,8.82C392.2,612.77,396.46,608.91,401.17,607.13Z" transform="translate(-63.24 -54.31)"/><path class="cls-1" d="M414.76,607.79a7.45,7.45,0,0,1,3.86-.42c.38,3.29-2.21,5.8-4.16,8.09-2.09,2.09-4.76,4.69-8,3.93-.78-1.72.28-3.44,1.15-4.87C409.43,611.79,411.7,609.14,414.76,607.79Z" transform="translate(-63.24 -54.31)"/><path class="cls-1" d="M364.34,618.47a13.12,13.12,0,0,1,11.07-10.39A12.42,12.42,0,0,1,364.34,618.47Z" transform="translate(-63.24 -54.31)"/><path class="cls-1" d="M421.05,622c.8-6.48,6.26-12.51,13-12.87C433,615.44,427.67,621.5,421.05,622Z" transform="translate(-63.24 -54.31)"/><path class="cls-1" d="M231.38,614c3.09-.17,6.16-.58,9.24-.82-2,11.51-4.53,22.93-6.46,34.45-.75,3.19,1.48,5.87,2.68,8.61-6.55-3.09-12.52-7.26-18.65-11.07,2.07-.47,4.2-.23,6.31-.33,2.21-2.75,2.16-6.53,3-9.81-3.09-1.85-6.15-3.73-9.22-5.61-2.23,2.16-5.11,4-6.19,7.06.19,2.7,3.25,4.17,3.62,6.86-5.49-2.48-10.43-6-15.53-9.22,1.23-2.26,5.15,0,7.24-1.64,8.1-4.88,15.45-11,23.29-16.27C230.92,615.42,231.15,614.68,231.38,614Zm-10,12.7,6.91,4.23c.73-3.87,1.47-7.74,2.18-11.62Q226,622.94,221.42,626.65Z" transform="translate(-63.24 -54.31)"/><path class="cls-1" d="M518.84,618.92a19.71,19.71,0,0,1,15.35,1.92c7.91,4.68,11.53,15.53,7.57,23.93-4.6,9.69-16.65,15.48-27,12.39-8.57-2.6-14.2-12-12.85-20.76S510.67,621.15,518.84,618.92Zm-3.94,5c-4.12,1.51-5.74,6.36-4.77,10.39,1.55,7.49,6.09,15.11,13.46,18,4.56,2,10.74-.93,11.44-6,.62-6.54-2.5-12.93-6.71-17.76C525.07,625,519.81,621.82,514.9,624Z" transform="translate(-63.24 -54.31)"/><path class="cls-1" d="M251.9,624c5.56,1.33,10.75,3.78,16,6,4.58,2.11,9.45,4.39,12.48,8.61a7.48,7.48,0,0,1-1,9.8c-2.2,2.17-5.45,2.34-8.31,2.87.76,8,2.59,16.07,7.64,22.49-.24.28-.71.85-.94,1.14-5.9-2.13-12.53-5.81-13.88-12.49-1.3-4.74.32-10.78-4.12-14.16-1.54,3.7-3.62,7.26-4.36,11.24,1.11,3.34,5,4.7,7,7.53-4.32-.52-8.07-2.8-12-4.45-4.31-2-8.84-3.47-13-5.83,2.56-1.57,5.72.18,8.31-1,2.61-3.05,3.59-7.11,5.31-10.67,1.89-4.89,4.72-9.47,5.75-14.65C255.4,628.07,253.17,626.38,251.9,624Zm14.9,8.1c-2.13,4.75-4.25,9.51-6.15,14.36,2.67,0,5.66.8,8.11-.68a8.25,8.25,0,0,0,3.7-7.24C272.06,635.37,269.07,633.76,266.8,632.06Z" transform="translate(-63.24 -54.31)"/><path class="cls-1" d="M299.9,639.67c3.91-3.17,8.15-5.89,12.25-8.79l2.39,5.91C309.7,637.66,304.86,641.5,299.9,639.67Z" transform="translate(-63.24 -54.31)"/><path class="cls-1" d="M460.55,644.47c9.08-3.34,18-8.38,27.88-8.45,7.67-.22,11.5,9.84,7,15.48-2.63,3.18-6.18,6.9-10.64,6.68,1.33-2.48,3.64-4.72,3.57-7.71a11,11,0,0,0-5-9.12c-2-1.2-4.47-.68-6.69-.69,3.1,8.77,6.13,17.58,9.58,26.22,1.93,4.74,7.78.28,11,2.93-7.93,3.26-16.15,5.8-24.11,9l-.6-1.75c1.85-1.39,4.09-2.53,5.19-4.67-.61-4.84-3-9.21-4.43-13.8-1.63-4-2.5-8.4-5-12-2.07-1.38-4.71-.45-7-.41C461.13,645.77,460.74,644.9,460.55,644.47Z" transform="translate(-63.24 -54.31)"/><path class="cls-1" d="M290.78,639.9c8,2.13,15.86,4.54,23.71,7.05-2.2,2.27-5.84.51-8.19,2.32-2.05,3.42-2.65,7.47-3.9,11.22-1.26,5-3.55,9.82-3.9,15,1.35,2.41,4.12,3.5,6.15,5.25-2.75,1.15-5.47-.44-8.1-1.13-5.34-1.88-10.94-3-16.19-5.1,2.85-2,8.19.29,9.28-4,2.41-7.26,4.58-14.61,6.58-22C297.94,644.14,291.57,643.57,290.78,639.9Z" transform="translate(-63.24 -54.31)"/><path class="cls-1" d="M334.28,649l1.71,0c2.14,11,4,22.09,6.2,33.1.45,3.5,3.38,5.71,5.67,8.07-4.52-.47-8.95-1.51-13.43-2.2-2.65-.48-5.57-.55-7.69-2.42,1.82-.48,3.69-.82,5.48-1.4,1.44-3.36-.25-7.05-.57-10.49L321,671.67c-1.23,2.79-3.27,5.49-3.19,8.67.7,2.38,3.56,2.88,5.44,4-.05.38-.14,1.14-.19,1.52-6-1.24-12-2.09-17.94-3.43,2.77-1.68,6.23-2.56,8.09-5.4,4-5.73,7.6-11.78,11.57-17.56a18.89,18.89,0,0,0,3.25-7C330.14,651.36,332.25,650.22,334.28,649ZM322.89,668l8,1.44c-.73-3.87-1.45-7.74-2.19-11.6C326.75,661.22,324.82,664.62,322.89,668Z" transform="translate(-63.24 -54.31)"/><path class="cls-1" d="M409.79,654.12q16.57-2.5,33.09-5.41c.16,3.43.32,6.86.43,10.29l-2,.15c-1.31-2-2.1-5.17-4.9-5.54-3.5-.48-7,.31-10.46.78.68,4.22,1.38,8.44,2.07,12.66,2.84-.73,6-.9,8.46-2.6a20.13,20.13,0,0,0,1.87-4.64l1.69-.23c.62,5.2,1.67,10.34,2.4,15.53-2.28-.84-3.34-3.08-5-4.65-2.91-.67-5.87.06-8.77.37.93,4.18.59,8.9,2.9,12.65,3.12,1.26,6.78.37,9.6-1.25,3.71-2.39,4.26-7.11,5.11-11.05l2.19-.42a85.76,85.76,0,0,1,.49,14.06c-11.43,1.57-22.75,3.93-34.19,5.39,1.27-2.53,4.3-3.18,6.05-5.19.74-3-.29-6.08-.66-9.06-1.15-5.71-1.54-11.56-3.12-17.17-1-2.95-4.81-2.33-7.25-3Z" transform="translate(-63.24 -54.31)"/><path class="cls-1" d="M365.25,656.29c4.17-1.8,8.8-1.3,13.22-1.6,8.58-.28,18,.28,25.08,5.72,8,6.18,7.49,19.6,0,26-4.6,4.16-11,5.19-17,5.09-6.74-.16-13.48.43-20.21.22,1.68-3.13,7.42-2.12,7.48-6.24.19-8,0-16.05-.47-24.05C373,657.43,367.92,657.76,365.25,656.29Zm17.39,1.26c.17,8.63.16,17.28.57,25.91-.25,3.45,3.45,5.14,6.39,4.78,4.25,0,7.21-3.89,8.29-7.64,2-6.69.69-15-5-19.49C390,658.68,386.2,658.09,382.64,657.55Z" transform="translate(-63.24 -54.31)"/></svg>