<svg id="Layer_1" data-name="Layer 1" xmlns="http://www.w3.org/2000/svg" viewBox="0 0 1443.92 437.47"><defs><style>.cls-1{fill:#b0221e;}.cls-2{fill:#52656f;}</style></defs><path class="cls-1" d="M174.25,73.76c8.18-6.52,19.35-7.74,29.37-5.87,15.53,2.88,29.6,10.71,42.62,19.35,11.47,7.89,23.15,15.92,32.12,26.73,5.86,7.08,10.42,15.67,11,25,.31,3.88-.39,8,1.51,11.63,2.63,5.18,7.6,8.8,9.82,14.24,2.67,6,1.9,12.82,1.45,19.21a68.74,68.74,0,0,1-6.22,24c-4.92-.32-9.58,1.56-14.43,1.94s-9.64.17-14.45.27c1.38-6.16-2-12.42.24-18.44,1.58-3.1-1.5-6.89-4.8-6.5-3.08.66-5.73,3.08-9,2.82-3.76-1.75-7.63-3.89-12-3.31-6.38.23-11.64,4.55-15,9.67-.86-4.53-1.54-9.13-3.17-13.46-3-8.26-11.38-13.37-13.31-22.14-3.1-13.39-2.07-27.3-1.17-40.9.3-7.17,0-14.69-3-21.33-.7-1.9-2.42-3-4.16-3.84-.31,5.24,2.74,9.93,2.58,15.16-.1,14-.82,28-.66,42a40.87,40.87,0,0,0,6.32,21.52c4.94,8,11.73,15.17,14.12,24.5,1.41,4.36-1.63,8.35-2.9,12.35-1-1.22-2-2.42-2.89-3.72-.46-2,.35-4.54-1.59-5.86-2.74-2.23-5.66-4.43-7.29-7.65-3.58-5.91-3.42-13-5.6-19.42-2.76-8.66-6.72-17.25-13.24-23.75-4.33-4.26-10.71-7.37-16.85-5.69-3.13,1.23-3.39,5-2.26,7.74-8.64-3.46-18.56-1.35-26.09,3.76a42.13,42.13,0,0,0-19.24,33.87,71.71,71.71,0,0,1-23.66.23c5.41-15.74,14.44-30.1,25.49-42.48,7.43-7.76,14.72-15.92,19.41-25.69,4.64-9.15,6.18-19.59,11.53-28.41A69.63,69.63,0,0,1,174.25,73.76Z" transform="translate(-73.97 -67.09)"/><path class="cls-1" d="M175.59,146.5c5.87,0,11,3.48,14.33,8.07,6.17,8.26,9.74,18.24,11.42,28.35,1.35,7.54,5.23,15,11.82,19.16a9.16,9.16,0,0,0-7.09,4.54c-5.85,8.8-14.23,16.64-24.76,19.15-10.7,2.5-21.77-.59-31.51-5.06-16.55-7.61-22.84-29.36-16.15-45.63,4.33-10.76,14.13-19.74,25.73-21.67,10-1.72,20.72,5.55,22.33,15.65a9.32,9.32,0,0,1-4.84,10.23c-4.71,2.74-12,4.63-15.92-.35,3.4-.4,7.27-.07,10-2.56,3.11-2.26,4.5-7.3,1.37-10.15-5.62-4.77-14.75-4.53-20.33.25a21.11,21.11,0,0,0-7.24,18.57c1,8.61,5,17.5,12.63,22.12,6.66,4.05,15,3.93,22.3,2,5.17-1.36,10.31-4.22,12.89-9.09,3.18-5.86,2.61-12.87,1.46-19.19-1.81-9-4.13-18.27-9.67-25.81C182,151.65,178.78,149.05,175.59,146.5Z" transform="translate(-73.97 -67.09)"/><path class="cls-1" d="M230.38,198c2.87-7,12.15-10.77,18.7-6.43,4.08,3.08,9.28,1,13.29-1.09-1.64,4.73-.4,9.65.09,14.45.7,5.27-3.18,9.42-6.13,13.29,5.52-3.12,12-3.24,18.12-3,6.47.26,12.86-.94,19.14-2.41-5.34,10.26-11.49,20.05-17.8,29.73-4.72-2.49-9.83-4.6-15.26-4.52-8.2,0-15.62,4.34-21.7,9.49-.57-3.73-1.4-7.83-4.5-10.34-4-3.32-9.52-3.34-14.34-2.42-2.31.41-5.49.81-6.76-1.72-.65-3.55,2-6.51,4.05-9.06C224,216.62,226.77,206.91,230.38,198Z" transform="translate(-73.97 -67.09)"/><path class="cls-1" d="M777.28,388.34c1.49-1.22,3-2.45,4.43-3.7,4.92,14.84,9.85,29.67,14.91,44.46.79,3.25,3.61,5.09,6.62,6.07,0,.17.07.51.1.68-6.36,1.09-12.94.45-19.37.3,1.91-1.54,5.43-2.17,5.65-5.06-.24-5.33-2.54-10.28-4-15.32-4.83,0-9.65,0-14.47,0-1.51,5-3.83,9.95-4,15.27.61,3.89,5.51,3.27,8.08,5.11a142.44,142.44,0,0,1-19.27,0c2.86-1.81,6.72-2.94,7.83-6.53,3.52-9.45,6.61-19.05,9.83-28.6C775,396.8,776.59,392.69,777.28,388.34Zm.76,6c-2,6-3.9,12-5.84,18.05h12.48C782.45,406.36,780.59,400.21,778,394.32Z" transform="translate(-73.97 -67.09)"/><path class="cls-1" d="M1139.16,388.33c1.47-1.16,2.91-2.36,4.44-3.45,5.43,15.06,10,30.45,15.52,45.47.88,3.09,4.27,3.64,6.46,5.41-6.36,1.17-13,.74-19.46.18,1.88-1.46,5.37-2,5.49-4.91-.35-5.31-2.54-10.26-4.1-15.28-4.81.25-9.82-.54-14.5.38-1.73,4.8-3.73,9.73-3.87,14.88.59,3.8,5.44,3.41,8.08,5-6.36.42-12.84.74-19.16-.18,2.71-1.59,6.37-2.55,7.48-5.88,3.19-8,5.66-16.36,8.56-24.52C1135.82,399.77,1138.24,394.24,1139.16,388.33ZM1140,394c-1.94,6.12-3.92,12.22-5.87,18.33h12.48C1144.42,406.26,1142.37,400.1,1140,394Z" transform="translate(-73.97 -67.09)"/><path class="cls-1" d="M1268.89,388.34c1.52-1.2,3-2.46,4.47-3.74q7.31,22.31,14.89,44.5c.86,3.46,4,5.29,7.12,6.36,2.68-1,6.66-1.22,7.61-4.48,1.14-6.25.46-12.64.64-19-.17-6.33.48-12.74-.61-19-1-3.36-5.14-3.64-7.75-5,5.38-.78,10.84-.59,16.27-.91,8.2-.38,17.06.86,23.56,6.29,11.32,9.78,10.27,30.61-2.56,38.68-6.78,4.43-15.18,4.71-23,4.42-11.27-.32-22.55.25-33.8-.3,2.13-1.65,6.29-2.66,5.5-6.19-.61-4.9-2.57-9.49-4-14.18-4.86,0-9.7,0-14.55,0-1.4,5-3.75,9.88-3.89,15.15.38,3.55,4.71,3.71,7.37,4.41l0,1.06c-6.15-.11-12.31.25-18.44-.25,2.68-1.89,6.49-2.87,7.63-6.32,3.14-8.11,5.67-16.45,8.57-24.65C1265.58,399.56,1267.9,394.13,1268.89,388.34Zm40.49.17c0,12.48-.05,25,0,37.45-.09,3.07.86,6.79,4.13,7.88,8.14,2.78,17.55-2.55,20.1-10.61,3.12-9.32,2.27-21.09-5.29-28.1C1323.3,390.32,1316.12,388.86,1309.38,388.51Zm-45.55,23.87h12.48c-2.16-6-4.21-12-6.45-18C1267.48,400.24,1265.84,406.37,1263.83,412.38Z" transform="translate(-73.97 -67.09)"/><path class="cls-1" d="M657.91,388.41c5.22-3.34,11.9-2.35,17.1.51-.2,4-.25,8-.78,11.91-2.18-3.7-2-9-6.07-11.4-4.79-2.71-11.35,1-11.26,6.58-.6,6,5,9.42,9.25,12.3,4.89,3.28,11,7.13,11,13.8.69,6.63-4.29,12.75-10.57,14.36-4.2,1.43-8.63.48-12.79-.52l.27-1.32a4,4,0,0,0-3.45,2.31c-4.62-.47-9.93,0-13.7-3.27-5.17-4.89-8.06-11.55-11.34-17.73-1.51-3.05-5.36-2.52-8.16-3,.14,5.87-.42,11.79.46,17.62,1,4.24,6.35,3.55,9.37,5.54a194.91,194.91,0,0,1-24.41,0c2.24-1.09,4.69-1.71,6.87-2.95,2-1.74,1.7-4.7,1.93-7.09.06-9.32,0-18.63,0-27.95-.16-2.54,0-5.44-1.71-7.52-2-1.26-4.39-1.76-6.6-2.61,5-.68,10.13-.6,15.2-.82,4.83-.11,10.1-.17,14.25,2.69,4.91,3,5.78,10,3.31,14.86-1.31,2.8-4,4.47-6.5,6.11,4.9,9.53,10,20.35,20.45,24.84.15-5.14-1.67-10.14-1.63-15.29,2.33,3.39,3.06,7.7,5.94,10.75,3,3.67,8.66,5.06,12.77,2.52,4.7-3,4.94-10.51,1.13-14.32-4.69-4.79-11.56-7.06-15.48-12.67C649.13,400.47,651.68,391.82,657.91,388.41Zm-40.52.14c0,7.74,0,15.48,0,23.23,4-.55,8.32-1.53,11.08-4.74,3.69-4.65,2.7-12.45-2.26-15.85C623.67,389.26,620.41,389,617.39,388.55Z" transform="translate(-73.97 -67.09)"/><path class="cls-1" d="M1091.37,400.93c-.63-7.07,5.19-13.47,12-14.46,4.13-.83,8.2.68,11.86,2.46-.2,4-.24,8-.82,11.91-2.17-3.75-2-9.23-6.2-11.5-4.81-2.55-11.22,1.23-11.09,6.72-.53,4.76,3.22,8.2,6.82,10.58,4,2.87,8.51,5.28,11.49,9.32a13.63,13.63,0,0,1-2.15,16.8c-6,5.73-16.07,5.78-22.63,1-1.43-4.28-1.7-8.91-2-13.39,2.38,3.33,3,7.68,5.89,10.7,2.91,3.66,8.51,5.08,12.64,2.68,4.51-2.67,5-9.45,2.13-13.47-3.39-4.08-8.37-6.26-12.41-9.56C1093.75,408.41,1091.31,404.93,1091.37,400.93Z" transform="translate(-73.97 -67.09)"/><path class="cls-1" d="M1369,386.66c6.92-1,14.56.28,19.9,5.08,5.67,5,8,12.85,8,20.25,0,6.7-2.07,13.68-6.89,18.51-7.47,7.66-20.31,8.82-29.33,3.3-11.34-7.09-13.58-23.29-8.23-34.78A22,22,0,0,1,1369,386.66Zm.12,2.06c-4.23,1.19-7.41,4.71-9.15,8.62-3.44,7.58-3.29,16.41-.79,24.25,1.48,4.54,3.94,9.05,8.06,11.71,4.77,3.19,11.84,2.55,15.74-1.77,4.86-5.17,6.43-12.63,6.29-19.53-.39-7.21-2.52-14.77-7.74-20A12.54,12.54,0,0,0,1369.07,388.72Z" transform="translate(-73.97 -67.09)"/><path class="cls-1" d="M383.42,387.54a212.31,212.31,0,0,1,23.8,0c-2.8,2-7.74,1.38-8.82,5.28-.93,5.32-.37,10.77-.53,16.15.09,6.28-.72,13.22,2.89,18.76,3.77,5.92,12.11,7.47,18.31,4.9,4.73-2.23,6.32-7.82,6.63-12.63.36-6.3.14-12.6.14-18.9-.22-3.58.08-7.94-3-10.47-2.27-1.49-5-1.89-7.45-3.05a174.33,174.33,0,0,1,20.19-.12c-1.82,1-3.82,1.86-5.29,3.39-1.28,2.15-1.44,4.74-1.65,7.17-.45,7.36-.32,14.73-.67,22.09-.31,5-1.82,10.35-5.9,13.57-4.62,3.79-11.05,4-16.71,3.25-5.19-.56-10.26-3.87-12-8.94-2.94-11.39-.05-23.39-1.79-34.94C390.87,389.18,386.18,389.25,383.42,387.54Z" transform="translate(-73.97 -67.09)"/><path class="cls-1" d="M436.56,387.51a88.42,88.42,0,0,1,11.51-.19c10.35,12.5,20.87,24.87,31.31,37.3,0-8.21-.16-16.42-.23-24.63-.11-2.7,0-5.65-1.5-8-2-2.6-5.53-2.88-8.36-4,6.24-1.49,12.81-.46,19.18-.54a26.06,26.06,0,0,0-4.62,3c-1.52,2.17-1.68,4.94-2,7.49-.92,13.43,0,26.9-.3,40.35-10.82-13.38-21.92-26.55-33.16-39.58-.08,8.11-.17,16.22.09,24.32.18,3.2.33,6.8,2.61,9.31,2.11,1.64,4.72,2.45,7,3.77a155.07,155.07,0,0,1-20.9,0,34.92,34.92,0,0,0,6.12-3.2c2.26-2.44,2.52-6,2.8-9.12.33-7.91.12-15.83.18-23.74-.09-3.11-.16-6.89-2.9-8.94C441.27,389.7,438.79,388.84,436.56,387.51Z" transform="translate(-73.97 -67.09)"/><path class="cls-1" d="M490.08,387.56c8.79-.7,17.62-.11,26.43-.3,5.81.08,11.64-.29,17.44.31-2,.9-4.25,1.47-6,2.87-1.86,2.06-.63,4.94.07,7.21q5.47,14.79,10.91,29.58c3.62-9.76,7.41-19.47,10.81-29.31.64-2.42,1.86-5.76-.52-7.61-2.15-1.09-4.5-1.69-6.64-2.8,17.78-.59,35.58-.12,53.37-.24a82.55,82.55,0,0,1-1.21,12.06c-1.09-3.38-1.4-7.86-5.26-9.31-4.62-1.49-9.59-.86-14.36-1q0,10.25,0,20.51c3.76-.05,7.57.27,11.3-.47,3.24-.59,3.89-4.3,5.25-6.74a116.7,116.7,0,0,1-.15,17.34c-1.18-2.17-1.55-5.32-4.14-6.34-4-1.07-8.19-.57-12.26-.66.13,5.44-.32,10.92.23,16.35.2,3.14,3.31,5,6.18,5.31,4.45.6,9.72.21,13-3.29,2.6-2.72,2.77-6.72,4.73-9.81.37,5.13-.75,10.19-1.94,15.15-12.21-.09-24.45.37-36.64-.24,2.85-1.84,8-1.84,8.28-6.15.94-9.61.19-19.32.44-29-.26-3.38.45-7.29-1.66-10.19-2.79-2.19-7.25-3.33-10.24-.89-2.56,2.09-3.87,5.25-5.13,8.21-5.33,13.43-10,27.12-15.39,40.5-2.22-4.08-3.51-8.57-5.19-12.88-3.84-10.2-7.51-20.46-11.46-30.61-1.15-3.38-3.94-6.62-7.74-6.68-2.42.34-5.19.85-6.78,2.89-1.2,2-1,4.43-1.16,6.66,0,9.33,0,18.67,0,28,.17,2.39-.05,5.26,1.83,7.07,2.13,1.28,4.63,1.77,6.77,3a189.73,189.73,0,0,1-23.12,0c2.16-1,4.47-1.77,6.59-2.89,1.91-1.44,1.77-4.1,2-6.23.32-8.66.09-17.33.15-26-.16-3.08.1-6.32-1-9.24C496.11,389.13,492.62,389,490.08,387.56Z" transform="translate(-73.97 -67.09)"/><path class="cls-1" d="M681.33,387.76c7.68-1,15.52-.56,23.25-.22-2.74,1.71-7.38,1.63-8.16,5.41-1.07,6.26-.33,12.67-.54,19,.22,6.31-.58,12.72.61,19,1,3.55,5.47,3.48,8.12,5.16a183.42,183.42,0,0,1-23.21,0c2.85-1.77,8-1.84,8.27-6.11.94-7.94.23-16,.46-23.93-.12-4.62.37-9.34-.81-13.85C688,389,684,389.12,681.33,387.76Z" transform="translate(-73.97 -67.09)"/><path class="cls-1" d="M707.38,387.92a163.82,163.82,0,0,1,24.16-.63c7.91.69,16.19,4.33,20.18,11.54,5.08,9.14,4.33,21.69-2.79,29.59-5.86,6.47-15,8.31-23.43,8.09-6.21-.27-12.44.16-18.63-.46,2.24-1,4.64-1.7,6.8-2.9,1.8-1.49,1.72-4,1.94-6.16.31-7,.06-14,.15-21-.06-4.29.19-8.64-.65-12.87C714.22,389.66,710,389.41,707.38,387.92Zm14.14.59q0,18.76,0,37.53c-.12,3.06.88,6.67,4.09,7.8,8.17,2.8,17.65-2.57,20.16-10.7,3-9.1,2.24-20.47-4.84-27.54C735.89,390.45,728.46,388.86,721.52,388.51Z" transform="translate(-73.97 -67.09)"/><path class="cls-1" d="M803.64,388a161,161,0,0,1,24-.69c8.16.67,16.73,4.48,20.66,12,5.26,10,3.69,23.84-5.24,31.22-7.1,5.83-16.74,6.33-25.5,5.91-4.36-.32-8.84.55-13.1-.62,1.92-2,6.27-1.46,6.93-4.86,1.17-6.25.47-12.66.66-19-.18-6.3.48-12.68-.62-18.91C810.51,389.63,806.25,389.44,803.64,388Zm14.09.61c.07,12.5,0,25,0,37.52,0,3,.82,6.51,3.9,7.68,8.1,2.94,17.65-2.3,20.27-10.36,3.13-9.23,2.42-20.89-4.94-28C832,390.4,824.61,388.81,817.73,388.56Z" transform="translate(-73.97 -67.09)"/><path class="cls-1" d="M874.34,388.11c5.31-1.1,10.78-.65,16.16-1.05,8.44-.41,17.61,1,24.12,6.79,10.47,9.88,9.54,29.57-2.55,37.78-6.55,4.56-14.82,5.12-22.54,4.84-5.26-.25-10.53.18-15.77-.37,2.67-1.88,7.35-1.59,8.23-5.38,1-6.18.31-12.49.51-18.72-.21-6.31.51-12.7-.53-18.95C881.17,389.61,876.91,389.48,874.34,388.11Zm14,.4c0,12.83-.09,25.65,0,38.47-.1,2.86,1.3,5.95,4.17,6.92,7.87,2.58,17-2.34,19.73-10.06,3.48-9.42,2.63-21.51-5-28.69C902.26,390.35,895.11,388.84,888.38,388.51Z" transform="translate(-73.97 -67.09)"/><path class="cls-1" d="M926.43,387.53c11.75-.64,23.54-.08,35.3-.3-.25,4-.2,8.09-1.24,12-1-3.32-1.35-7.63-5-9.14-4.67-1.6-9.75-.92-14.6-1.08,0,6.83,0,13.66,0,20.49,3.84-.1,7.77.35,11.56-.52,3.09-.77,3.72-4.35,5.11-6.74a155.68,155.68,0,0,1,0,17.55c-1.39-2.34-1.9-6-5-6.71-3.84-.73-7.77-.4-11.65-.46.12,5.45-.34,10.93.29,16.36.2,3.26,3.46,5.07,6.4,5.34,4.22.51,9.13.18,12.37-2.93,2.89-2.65,3-6.87,5.08-10.06.38,5.11-.68,10.16-2,15.07-12.2-.23-24.43.37-36.62-.33,2.92-1.71,8-1.81,8.38-6.11.78-6.62.18-13.31.36-19.95-.2-5.67.5-11.41-.5-17C933.84,389.21,929.18,389.22,926.43,387.53Z" transform="translate(-73.97 -67.09)"/><path class="cls-1" d="M986.79,387.5c11.75-.55,23.54-.13,35.32-.23-.28,4-.46,8-1,11.92-1.37-3.3-1.74-7.9-5.65-9.25-4.59-1.35-9.48-.8-14.2-.95V409.5c4-.1,8.14.4,12.07-.7,2.49-.82,3.07-3.61,3.89-5.77l.83.11c-.13,5.48.13,11-.22,16.44-1.24-2.22-1.88-5.31-4.45-6.36-4-1-8.09-.52-12.12-.59.14,5.48-.34,11,.26,16.45.28,3,3.21,4.89,6,5.19,4.25.59,9.15.31,12.53-2.67,3.06-2.71,3.3-7.1,5.37-10.45.3,5.15-.78,10.23-2,15.2-12.21-.11-24.45.36-36.64-.24,2.14-1.28,4.66-1.76,6.79-3.06,2.11-2.08,1.67-5.36,1.92-8.06,0-9,.06-18,0-27-.25-2.45.09-5.33-1.69-7.29C991.67,389.2,989,388.82,986.79,387.5Z" transform="translate(-73.97 -67.09)"/><path class="cls-1" d="M1029.08,387.56a189.52,189.52,0,0,1,23.23,0c-2.76,1.74-7.41,1.71-8.24,5.51-.87,5.6-.29,11.3-.44,16.94.18,7.86-.58,15.81.82,23.6,5.12.16,10.48,1.73,15.48-.09,4.91-2.18,6.18-8,9.55-11.7-.68,5-2.39,9.74-3.64,14.6-12.24-.2-24.51.4-36.73-.33,2.16-1,4.46-1.71,6.57-2.83,2.25-1.67,1.85-4.84,2.14-7.3.11-9.28.07-18.56,0-27.84-.27-2.52.12-5.57-1.85-7.51C1033.84,389.24,1031.34,388.67,1029.08,387.56Z" transform="translate(-73.97 -67.09)"/><path class="cls-1" d="M1165,387.72c7.68-.89,15.48-.5,23.21-.24-2.79,1.88-7.67,1.85-8.19,6-.69,7.82-.12,15.72-.3,23.57,0,5.52-.3,11.09.76,16.55,5.1.18,10.42,1.71,15.4,0,5-2.14,6.28-7.93,9.56-11.77-.53,5-2.33,9.76-3.56,14.62-10.13,0-20.25,0-30.37,0a15.17,15.17,0,0,1-4.87-.56c.31-1.94,3.76-1.2,5.06-2.58,2.66-2.21,1.9-6.18,2.16-9.25-.06-9,0-18,0-27-.21-2.21,0-4.88-1.85-6.49C1169.91,389.12,1167.31,388.72,1165,387.72Z" transform="translate(-73.97 -67.09)"/><path class="cls-1" d="M1202.68,387.6a159.46,159.46,0,0,1,21.75-.1c-3.15,1.34-8.33,2.86-6.64,7.41,3.61,10.85,7.85,21.5,11.75,32.26,3.59-9.56,7.23-19.1,10.64-28.72.66-2.48,2-5.7,0-7.87-2.18-1.39-4.78-1.9-7.09-3a149.9,149.9,0,0,1,19.77-.1c-3.28,1.48-6.72,3.26-8.13,6.79-4.42,9.58-7.61,19.68-11.45,29.5-2.06,4.91-3.3,10.18-6,14.8-5.85-14.73-10.91-29.78-16.81-44.49C1209.28,390.53,1205.78,389,1202.68,387.6Z" transform="translate(-73.97 -67.09)"/><path class="cls-1" d="M1401.76,387.94c5.87-.73,11.81-.66,17.73-.84,5-.12,10.61.81,14.06,4.81a12.59,12.59,0,0,1,1.14,12.36c-1.3,3-4.11,4.85-6.72,6.59,3.78,7.15,7.35,14.69,13.38,20.27,2.57,2.51,6.1,3.57,9,5.6-5.39,0-11.78.4-15.88-3.79s-6.78-9.43-9.27-14.64c-.9-1.66-1.66-3.71-3.52-4.47a34.23,34.23,0,0,0-5.83-.88c.19,5.86-.43,11.77.36,17.59,1,4.19,6.34,3.44,9.23,5.57a204,204,0,0,1-24.1-.05c2.27-1.19,4.9-1.72,7-3.22,2-2.44,1.44-5.88,1.64-8.81-.22-10,.34-20-.29-30C1409.72,389.61,1404.82,389.28,1401.76,387.94Zm14.15,23.88c3.16-.61,6.53-1.13,9.16-3.15,5.73-4,5.14-13.8-.58-17.56-2.49-1.79-5.62-2.12-8.53-2.63C1415.8,396.26,1415.87,404,1415.91,411.82Z" transform="translate(-73.97 -67.09)"/><path class="cls-1" d="M278,398.68c2.56-.67,5.46-1.36,8-.18,2.14,1.67.29,4.46-1.87,4.89-3.22.88-7.12,2.05-10.18.15C272.91,400.85,275.82,399.25,278,398.68Z" transform="translate(-73.97 -67.09)"/><path class="cls-1" d="M264,401.64c1.58-.4,3.38-.74,4.85.22a3.84,3.84,0,0,1-2,4.47c-3.28,2.05-7.18,3.8-11.13,3.28-1.42-.71-1.06-2.47-.1-3.4C257.88,403.87,261,402.56,264,401.64Z" transform="translate(-73.97 -67.09)"/><path class="cls-1" d="M234.67,416.54c1.36-6.15,8.1-9.61,14-9.59,2.38.07,1.93,3.37.45,4.42C245,414.46,239.91,416.73,234.67,416.54Z" transform="translate(-73.97 -67.09)"/><path class="cls-1" d="M262.58,413c2.08-3.58,7-6.85,11-4.15-2,3-4.61,5.7-8.11,6.73C263.82,416.26,261.35,415,262.58,413Z" transform="translate(-73.97 -67.09)"/><path class="cls-1" d="M275.12,412.69c2.32-2.16,6.52-4.21,8.86-.95-2.78,2.78-5.89,6.68-10.3,6.07C271.71,416.2,273.67,413.83,275.12,412.69Z" transform="translate(-73.97 -67.09)"/><path class="cls-1" d="M242.41,422.74c1-6.1,7.54-9.2,13.1-9.74,3.08-.38,2.93,3.68.8,4.83C252.24,420.65,247.46,422.86,242.41,422.74Z" transform="translate(-73.97 -67.09)"/><path class="cls-1" d="M225.75,416.35c1-.78,3.56-1.08,3.38.83-.16,3.38-3.1,5.88-5.59,7.82-1.83,1-4.57,2.65-6.44,1.08C217.67,421.53,222,418.44,225.75,416.35Z" transform="translate(-73.97 -67.09)"/><path class="cls-1" d="M263.06,418.57c2-1.6,4.62-1.35,6.94-.66-1.82,3.89-6,8-10.6,7C257.65,422.19,261.09,419.9,263.06,418.57Z" transform="translate(-73.97 -67.09)"/><path class="cls-1" d="M273.81,421.25c2-2.35,5.16-3.6,8.19-2.43-1.69,3.75-4.83,8.21-9.37,8.13C270.08,425.67,272.45,422.55,273.81,421.25Z" transform="translate(-73.97 -67.09)"/><path class="cls-1" d="M234.24,420.67c1.3-.39,3.29-1.09,3.95.63.41,2-1.18,3.55-2.68,4.54-3.46,2.24-7.11,4.62-11.38,4.76C224.49,425.16,229.78,422.43,234.24,420.67Z" transform="translate(-73.97 -67.09)"/><path class="cls-1" d="M235.71,433.85c-.34-6.41,7.2-9,12.37-9.68.47,4-3.27,6.34-6.28,8.07A13.33,13.33,0,0,1,235.71,433.85Z" transform="translate(-73.97 -67.09)"/><path class="cls-1" d="M257,426.53c1.35-.29,4-1,3.56,1.36-2.88,5-8.17,10.51-14.51,9.47A17.37,17.37,0,0,1,257,426.53Z" transform="translate(-73.97 -67.09)"/><path class="cls-1" d="M282.87,426.56c1.44-.91,4.25-1.55,5,.46-1.52,3.63-5.26,8.09-9.6,7.14C276.81,430.93,280.52,428.19,282.87,426.56Z" transform="translate(-73.97 -67.09)"/><path class="cls-1" d="M198.24,436.65c2.62-4.19,6.68-8,11.94-8,.11,4-2.85,7-5.47,9.57-2,1.74-4.58,3.83-7.39,2.94C196.36,439.63,197.53,438,198.24,436.65Z" transform="translate(-73.97 -67.09)"/><path class="cls-1" d="M265.84,429.28c1.47-1.46,6.42-1.31,4.61,1.67s-5.11,6.81-9.13,6C259.86,433.66,263.44,430.9,265.84,429.28Z" transform="translate(-73.97 -67.09)"/><path class="cls-1" d="M210.25,437.69c2.32-3.43,6.12-6.35,10.51-5.64-1.91,4.44-6,9-11.17,8.86A3.4,3.4,0,0,1,210.25,437.69Z" transform="translate(-73.97 -67.09)"/><path class="cls-1" d="M221.4,442c1.68-4.77,6.4-8.82,11.68-8.35a15.43,15.43,0,0,1-7.48,8.39C224.3,442.75,222.58,443.15,221.4,442Z" transform="translate(-73.97 -67.09)"/><path class="cls-1" d="M261,446.4c1.9-5.95,7.69-11.46,14.22-11.14.83,2.08-1.05,3.75-2.22,5.23C270,443.81,265.92,447.29,261,446.4Z" transform="translate(-73.97 -67.09)"/><path class="cls-1" d="M228.1,448.33c1.64-6.06,7.72-11.74,14.24-11.16.59,2.13-1.18,3.75-2.41,5.23C236.9,445.73,232.91,449,228.1,448.33Z" transform="translate(-73.97 -67.09)"/><path class="cls-1" d="M240.25,447.68c3-4.6,8-8.93,13.84-8.13-2,5.36-6.9,10.25-12.63,11.18C239.33,451.4,239.24,448.86,240.25,447.68Z" transform="translate(-73.97 -67.09)"/><path class="cls-1" d="M196,451.6c2.07-4.14,5.73-8.67,10.91-8.05-1.36,4.73-4.68,9.64-9.58,11.09C195.37,455.42,195.21,452.78,196,451.6Z" transform="translate(-73.97 -67.09)"/><path class="cls-1" d="M276.93,444.65a4.5,4.5,0,0,1,4.1-.09c-1.33,4.83-6.37,10-11.71,9.32C269.58,449.64,273.39,446.46,276.93,444.65Z" transform="translate(-73.97 -67.09)"/><path class="cls-1" d="M188,446.64c1-.38,4.13-.66,2.93,1.28-1.71,4.36-5.44,9.76-10.67,9.5C180,452.76,184,448.59,188,446.64Z" transform="translate(-73.97 -67.09)"/><path class="cls-1" d="M213.68,446.24c1.7-.76,4.34-.88,3.11,1.78a20,20,0,0,1-8.61,9.53c-1.31.81-4.21.78-3.36-1.46A17,17,0,0,1,213.68,446.24Z" transform="translate(-73.97 -67.09)"/><path class="cls-1" d="M255.92,446.56a11.08,11.08,0,0,1,3.3-.31c1.2,2-.93,3.75-2,5.26-2.75,2.85-6.1,6.05-10.3,6.09-2.23-.15-1-2.47-.34-3.6A18.85,18.85,0,0,1,255.92,446.56Z" transform="translate(-73.97 -67.09)"/><path class="cls-1" d="M212.4,463c.94-6.19,6.2-12.21,12.75-12.4C223.82,456.47,219,462.93,212.4,463Z" transform="translate(-73.97 -67.09)"/><path class="cls-1" d="M223,461.39c2.65-4.65,7.12-9.29,12.93-8.88-1.76,5.79-6.71,12-13.17,12.28A3.21,3.21,0,0,1,223,461.39Z" transform="translate(-73.97 -67.09)"/><path class="cls-1" d="M253,462.37c1.82-5.54,7.14-10.11,13.16-9.9C264.73,458,259,463.13,253,462.37Z" transform="translate(-73.97 -67.09)"/><path class="cls-1" d="M266.18,465.28c1.89-5.49,7.11-10.09,13.14-9.88C278,461,272.12,466.09,266.18,465.28Z" transform="translate(-73.97 -67.09)"/><path class="cls-1" d="M163.25,468.75c2.67-4.62,7.56-9.15,13.32-8.23a17.37,17.37,0,0,1-11.17,10.82A1.7,1.7,0,0,1,163.25,468.75Z" transform="translate(-73.97 -67.09)"/><path class="cls-1" d="M174.11,471.32c1.19-5.25,5.66-9.31,10.5-11.31,1.63-.87,5.9-1,4,1.91C185.47,466.79,180.44,472,174.11,471.32Z" transform="translate(-73.97 -67.09)"/><path class="cls-1" d="M238,460.67a6.73,6.73,0,0,1,4.16-.21c.19,2.71-2.14,4.61-3.81,6.42-2.68,2.46-6.07,5.35-10,4.51-.74-1.54.47-3,1.25-4.15A18.77,18.77,0,0,1,238,460.67Z" transform="translate(-73.97 -67.09)"/><path class="cls-1" d="M186,472.37c1.9-6.27,8.35-11.58,15.09-10.83C198.82,467.5,192.71,473.08,186,472.37Z" transform="translate(-73.97 -67.09)"/><path class="cls-1" d="M238,475.2c1-6.53,8-12.18,14.64-11.33C250.34,469.8,244.69,475.11,238,475.2Z" transform="translate(-73.97 -67.09)"/><path class="cls-1" d="M205.89,466.47a10.18,10.18,0,0,1,3.35-.13c.75,1.8-.77,3.27-1.82,4.55-2.69,2.9-5.9,5.8-9.95,6.46q-2.92.42-2-2.29A18.16,18.16,0,0,1,205.89,466.47Z" transform="translate(-73.97 -67.09)"/><path class="cls-1" d="M207.15,479.31c1-6.23,6.2-12.26,12.77-12.57C218.71,472.77,213.7,479.06,207.15,479.31Z" transform="translate(-73.97 -67.09)"/><path class="cls-1" d="M256.13,468.69c2.11-1.23,4.75-2.6,7.18-1.45-1.69,6-8,11-14.33,11C249.55,474.06,252.78,470.94,256.13,468.69Z" transform="translate(-73.97 -67.09)"/><path class="cls-1" d="M146.94,485.47c.64-6.1,5.34-12.41,11.84-12.83C157.66,478.5,153.35,484.92,146.94,485.47Z" transform="translate(-73.97 -67.09)"/><path class="cls-1" d="M160.45,480.9c1.75-4.67,6.4-8.53,11.59-8.21-1.58,4.51-5.56,8.59-10.42,9.25Z" transform="translate(-73.97 -67.09)"/><path class="cls-1" d="M212.4,482c2.66-4.37,7-8.32,12.4-8.23-.67,4.11-3.61,7.31-6.65,9.94-1.85,1.43-4.16,3-6.61,2.25C210.85,484.54,211.78,483.13,212.4,482Z" transform="translate(-73.97 -67.09)"/><path class="cls-1" d="M179.62,475.27c1.44-.58,4.29-.75,3,1.65-2.16,3.79-6.09,8.94-11,7.68C172.17,480.35,175.87,476.93,179.62,475.27Z" transform="translate(-73.97 -67.09)"/><path class="cls-1" d="M230.94,477.61c1.22-.44,3.9-.91,3.23,1.22a17.52,17.52,0,0,1-7.25,8.63c-1,.53-4.34,1.84-3.82-.52C223.93,482.89,227.25,479.38,230.94,477.61Z" transform="translate(-73.97 -67.09)"/><path class="cls-1" d="M187.82,479.44c1.85-1,4.18.37,2.68,2.47-2.23,4-5.8,9.7-11.09,9C179.25,485.93,183.55,481.45,187.82,479.44Z" transform="translate(-73.97 -67.09)"/><path class="cls-1" d="M233.87,490.44c.79-5.55,5.76-11.88,11.9-10.82C243.84,484.72,239.89,490.33,233.87,490.44Z" transform="translate(-73.97 -67.09)"/><path class="cls-1" d="M247.47,491.83c1.32-6.49,7.46-12.74,14.44-12.2-.74,4.93-4.71,8.52-8.58,11.23C251.63,492.15,249.46,492,247.47,491.83Z" transform="translate(-73.97 -67.09)"/><path class="cls-1" d="M189.86,490.68c1.08-5.22,6.12-9.51,11.54-9.24C200,486.44,195.18,490.65,189.86,490.68Z" transform="translate(-73.97 -67.09)"/><path class="cls-1" d="M153.82,485.4a3,3,0,0,1,3.49-.13c-.48,4.83-3.6,9.24-7.35,12.19-1,.78-4.22,2-4-.38A16.83,16.83,0,0,1,153.82,485.4Z" transform="translate(-73.97 -67.09)"/><path class="cls-1" d="M137.15,498.56c-.06-5.42,2.83-11.95,8.72-13C145.51,490.89,143,497.41,137.15,498.56Z" transform="translate(-73.97 -67.09)"/><path class="cls-1" d="M163.74,487.31a3.23,3.23,0,0,1,3.64.09,14.06,14.06,0,0,1-9,9l-1.83-.43C157.23,492.11,160.34,489,163.74,487.31Z" transform="translate(-73.97 -67.09)"/><path class="cls-1" d="M195,498.36c1.61-4.72,5.91-9.2,11.19-9,.79,1.79-.82,3.24-1.84,4.51C202,496.54,198.82,498.86,195,498.36Z" transform="translate(-73.97 -67.09)"/><path class="cls-1" d="M167.71,496.17a11.54,11.54,0,0,1,9.33-6.53,12.89,12.89,0,0,1-7.61,8.83Q166.16,499.19,167.71,496.17Z" transform="translate(-73.97 -67.09)"/><path class="cls-1" d="M213,491.57c1.4-.54,3.07-.77,4.28.37-.88,3-3.42,5.09-5.81,6.92-1.9,1.33-4.33,2.74-6.68,1.69C205.05,496.23,209.35,493.28,213,491.57Z" transform="translate(-73.97 -67.09)"/><path class="cls-1" d="M224.85,492.32a5.46,5.46,0,0,1,3.89-.68c.92,1.78-.68,3.48-1.57,4.92-2.23,2.76-4.92,6.09-8.83,6C217,498.36,221.67,494.49,224.85,492.32Z" transform="translate(-73.97 -67.09)"/><path class="cls-1" d="M186.76,493.35c.94-.62,4.26-1.48,3.44.68-1.56,3.46-4.75,7.19-8.8,7.32l-.65-.7C181.45,497.48,184,494.88,186.76,493.35Z" transform="translate(-73.97 -67.09)"/><path class="cls-1" d="M232.2,500.61c2.26-3.77,5.88-7.75,10.75-7-1.4,4.69-4.81,9.11-9.47,10.84C230.58,505.29,231.18,502.1,232.2,500.61Z" transform="translate(-73.97 -67.09)"/><path class="cls-2" d="M1217.08,138.13c5.75-7.22,11.45-14.47,17.22-21.67,2.54,3.22,5.11,6.42,7.67,9.64-7.36,5-14.7,10-22.08,14.88C1218.94,140,1218,139.08,1217.08,138.13Z" transform="translate(-73.97 -67.09)"/><path class="cls-2" d="M1029.75,141.25h3.5c7.37,19.61,14.82,39.2,22.18,58.82,1.4,3.66,3,7.43,5.91,10.18,1.94,1.86,4.65,2.44,7.16,3.17,0,.77,0,2.32,0,3.09-13-.36-25.93-.2-38.89,0,0-.9,0-2.69,0-3.58,3.47-.74,9.15-1.11,9.07-5.9-.74-6-3.7-11.48-5.39-17.26-7.07-.05-14.14,0-21.21-.05-1.44,5.66-4.4,11.3-3.48,17.27,1.56,5.22,7.85,5.07,12.11,6.53.09.74.26,2.24.35,3-11.45-.14-22.89-.39-34.33,0,0-.86,0-2.6,0-3.47,6.46-.72,10.71-6.14,13.05-11.75q9.55-22.5,19-45c1-1.88-.24-3.82-.77-5.62C1022.32,148,1026.73,145.37,1029.75,141.25Zm-7.68,19.1q-3.87,11-7.72,21.89h16.12C1027.67,175,1025,167.6,1022.07,160.35Z" transform="translate(-73.97 -67.09)"/><path class="cls-2" d="M1313.07,141.33l3.52-.17c7.76,20.23,15.29,40.54,23,60.78,1.8,4.65,4.72,9.58,10,10.81,2.25.14,2.75,1.74,2.65,3.75-13.07-.3-26.14-.21-39.21,0,0-.89,0-2.67,0-3.56,3.49-.75,9.21-1.1,9.12-5.95-.78-6-3.64-11.51-5.43-17.26-7.08,0-14.15,0-21.22,0-1.38,5.84-4.63,11.67-3.25,17.79,1.94,4.64,7.73,4.82,12,5.73l.08,3.25c-11.34-.18-22.69-.39-34,0,0-.87,0-2.61,0-3.48,6.31-.72,10.52-5.94,12.84-11.43,6.39-15,12.66-30,19-44.93,1.05-2-.15-4.11-.33-6.15C1305.8,147.83,1310.21,145.43,1313.07,141.33Zm-15.27,40.92h16.1c-2.75-7.22-5.42-14.47-8.28-21.65C1302.69,167.7,1300.4,175,1297.8,182.25Z" transform="translate(-73.97 -67.09)"/><path class="cls-2" d="M892,142.86c3,.28,5.45,2.34,8.47,2.27q25.47,0,51,0c3.07.14,5.64-1.87,8.62-2.33,1,8.87,2,17.76,2.95,26.64l-3.71.31c-2.13-5.56-4.63-11.4-9.58-15-4.17-3.27-9.71-3.46-14.74-4q0,24.14,0,48.27c.15,3.1,0,6.77,2.62,9,3.38,3.26,8.21,4,12.62,4.93,0,.9,0,2.71,0,3.61q-24.19-.37-48.37,0c0-.9,0-2.7,0-3.61,4.4-.92,9.2-1.68,12.61-4.88,2.52-2.23,2.51-5.88,2.63-9,0-16.11,0-32.22,0-48.34-5.05.57-10.61.75-14.79,4-4.94,3.66-7.43,9.5-9.57,15.06l-3.65-.37C890.1,160.57,891,151.71,892,142.86Z" transform="translate(-73.97 -67.09)"/><path class="cls-2" d="M401.46,147.83c11.36-6.59,26.2-5.47,37.5.75-.63,6.84-1.14,13.7-1.71,20.54h-3.87c-1.07-4.86-2.24-9.8-4.74-14.15-3-5.64-11.53-7.32-16.45-3.29-3.67,3-4.06,8.63-2.12,12.74,1.54,3,4.64,4.78,7.4,6.56,7.53,4.63,16.32,7.87,22,15,5.24,7.51,4.13,19-2.91,25.06-6.3,5.39-14.94,6.83-23,6.92a45.22,45.22,0,0,1-23.36-6.48c-.88-8.34-1.89-16.68-2.9-25l3.83-.14c2.79,7.57,5.66,15.64,11.94,21.08,4.36,4.06,11,5.81,16.68,3.77,6.87-2.61,7.87-13.23,2.19-17.55-8.43-6.48-19.58-9.12-26.63-17.42C388.66,167.36,391.87,153.25,401.46,147.83Z" transform="translate(-73.97 -67.09)"/><path class="cls-2" d="M591.05,151.66c8.43-6.15,19.12-8.44,29.41-8.16,8.62.17,16.92,2.8,25,5.46v22.43l-3.8,0c-2-6.47-4.51-13.24-9.9-17.66-7.42-6.21-19.46-5.39-26.24,1.41-6.11,5.89-8.39,14.62-8.87,22.86-.42,9,1.13,18.63,6.64,26,6.9,9.7,22.16,10.66,30.7,2.62,5.81-4.73,9.14-11.64,12.12-18.34l4.12.85c-1.07,8.41-4.19,16.33-6.44,24.46-11,4.49-23.2,5.19-34.83,3.65-13.35-2-26.76-10.07-31.3-23.32C573,179,578.11,160.89,591.05,151.66Z" transform="translate(-73.97 -67.09)"/><path class="cls-2" d="M474.12,145c21.9.1,43.79.18,65.68,0-.77,6.54-1.49,13.09-2.3,19.62l-4.09,0c-1.21-4.33-1.8-10-6.48-12-6.82-2.7-14.37-1.95-21.55-2.14q0,12.51,0,25c5.13-.19,10.41.12,15.4-1.31,4-1.16,5.18-5.62,6.31-9.14l3.79-.13c-.14,9.82-.27,19.63,0,29.44l-4.08,0c-1-3.42-1.19-8.11-5.08-9.58-5.22-1.94-10.91-1.43-16.37-1.51.13,6.95-.25,13.91.17,20.84a6.19,6.19,0,0,0,4.78,6c6.61,1.49,14.39,1.1,19.78-3.47,5-4.4,7.1-11.07,9.14-17.22l4.41-.13a136.62,136.62,0,0,1-3.51,27.17q-33-.37-66,0l0-3.65c3.6-.87,7.5-1.32,10.55-3.6,2.81-2.15,2.59-6.06,2.79-9.22,0-12.68,0-25.35,0-38-.19-3.23.14-7.1-2.43-9.52-3-2.6-7.22-3-11-3.87Z" transform="translate(-73.97 -67.09)"/><path class="cls-2" d="M681.62,145.15c13.59-.62,27.22-1.23,40.81-.41,7.69.78,16.05,2,22.09,7.26,5.23,4.41,5.78,12.71,2.25,18.34-2.57,4.47-7.27,7-11.71,9.26,7.61,13.5,16.56,27.81,31.28,34.35-.14,1.1-.29,2.21-.47,3.31-10.45.18-22-.15-30.57-7-7.21-6.29-10-15.9-15.58-23.43-1.77-2.2-4.83-2.33-7.33-3.05.17,7.13-.5,14.32.49,21.4.23,2.49,2.36,4.17,4.55,5,3.81,1.52,7.92,2,11.94,2.67,0,.91,0,2.73,0,3.64-16.25-.23-32.51-.28-48.76,0V212.9c4.18-1,9-1.32,12.21-4.53,2.13-3,1.47-6.89,1.69-10.31-.23-13.72.37-27.47-.31-41.17-.48-6.21-7.82-7-12.61-8.06C681.6,147.6,681.61,146.38,681.62,145.15Zm30.74,4.16c0,9.91,0,19.82,0,29.73,5.82-1.13,12.48-3,15.42-8.66,2.58-5.44,2.51-13.11-2.47-17.2C721.77,150.09,716.88,149.48,712.36,149.31Z" transform="translate(-73.97 -67.09)"/><path class="cls-2" d="M789.37,145c21.89.1,43.78.18,65.67,0-.76,6.51-1.55,13-2.24,19.53l-4.16.16c-1.24-4.42-1.85-10.24-6.76-12.17-6.77-2.53-14.19-1.86-21.27-2,0,8.34,0,16.68,0,25,5.29-.23,10.79.23,15.88-1.48,3.73-1.42,4.73-5.67,5.89-9l3.75,0c-.18,9.79-.34,19.57,0,29.35l-4.06,0c-1.06-3.44-1.28-8.24-5.23-9.69-5.18-1.9-10.82-1.36-16.23-1.47.09,6.95-.22,13.91.13,20.86a6.2,6.2,0,0,0,4.79,6c6.79,1.56,14.84,1.07,20.22-3.85,4.78-4.43,6.69-10.91,8.74-16.89h4.43a143.87,143.87,0,0,1-3.59,27.1c-22-.29-44-.24-66,0v-3.64c3.74-.93,7.93-1.36,11-4,2.43-2.26,2.15-5.87,2.39-8.9.06-12.31,0-24.63,0-36.95-.22-3.61.33-8-2.64-10.69-3-2.44-7.08-2.86-10.74-3.69C789.37,147.42,789.36,146.21,789.37,145Z" transform="translate(-73.97 -67.09)"/><path class="cls-2" d="M1092,145.15c12.16-.61,24.33-1,36.51-.66,8.76.52,18.32,1.29,25.56,6.82,5.3,3.83,6.66,11.5,4,17.28-2.29,5.38-7.52,8.57-12.6,10.93,5.26,9.8,11.41,19.34,19.66,26.91a37.52,37.52,0,0,0,12,7.48L1176,217c-10.63.77-22.57-.17-31-7.38-6.52-6.28-9.44-15.17-14.56-22.47-1.73-2.45-5-2.66-7.61-3.37,0,6.1-.16,12.21.09,18.3.16,2.41.38,5.32,2.61,6.8,4.22,2.75,9.43,3.08,14.27,3.95,0,.92,0,2.75,0,3.66-16.25-.24-32.51-.3-48.76,0v-3.63c3.74-.84,7.76-1.3,11-3.48,2.82-1.8,2.6-5.53,2.81-8.46.05-13.31,0-26.63,0-39.94-.22-3,.06-6.73-2.65-8.73-3-2.2-6.75-2.65-10.23-3.45C1092,147.6,1092,146.37,1092,145.15Zm30.74,4.14c0,9.92,0,19.84,0,29.75,4-.9,8.17-1.76,11.54-4.24,5.71-4,7-12.55,3.94-18.57C1135.17,150.81,1128.48,149.41,1122.73,149.29Z" transform="translate(-73.97 -67.09)"/><path class="cls-2" d="M1200.75,145q22.82.17,45.65,0c0,1.21,0,2.42,0,3.63-4.28,1-9.35,1.24-12.43,4.77-1.78,2.82-1.28,6.39-1.45,9.58.16,13.7-.23,27.42.2,41.12.32,6.85,8.49,7.68,13.69,8.75,0,.91,0,2.73,0,3.64-15.22-.22-30.43-.34-45.64,0,0-.91,0-2.72,0-3.63,3.75-.84,7.81-1.27,11.06-3.54,3-2.09,2.52-6.17,2.78-9.37,0-13,.05-25.94,0-38.91-.25-3,.13-6.65-2.46-8.72-3.29-2.43-7.52-2.86-11.39-3.71C1200.73,147.43,1200.73,146.22,1200.75,145Z" transform="translate(-73.97 -67.09)"/><path class="cls-2" d="M90.49,193.9c13.3-8.67,34.15.43,35.93,16.5-2.58,1.35-6.49,3.31-8.64.28-4.73-5.12-12.45-8.32-19.23-5.59-3.4,1.19-5.18,5.26-9,5.48-1.62.2-3.25.24-4.88.28-.07,3.69-1.05,7.74.82,11.15,1.69,2.81,6,2.19,8.18.4,1.5-4.76,2.33-9.9,5.32-14,1.81-1.85,4.62-1.94,7-2.47a39.85,39.85,0,0,0,6.11,16.35c2-.63,4.1-1.77,6.31-1.44,2.1,1.67,3.79,3.93,6.34,5,6.61,2.93,14.27,1.9,20.81,5,6.1,2.92,10.12,8.85,16.28,11.69,3.88,1.86,8.44,1.68,12.21,3.86,10.16,5.83,14.89,17.17,22.34,25.69,3,3.44,6.48,6.66,10.86,8.12,3.51,1.19,7.27.61,10.9.77-1,1.26-2,2.77-3.71,3-8.37,1.38-17.21-1.87-23.2-7.79-7.18-6.76-11.53-16-19-22.46,5.47,9.51,8.38,20.49,15.46,29a57.42,57.42,0,0,0,36.73,18.91c3.34.4,6.72.21,10.07.52,1.89,2.42,3.16,5.26,4.8,7.85a22.41,22.41,0,0,1,7.35-1.81,15.2,15.2,0,0,0,6.7,11.91c9.61,6.83,23.46,7.78,33.48,1.27,10.77-6.83,15.62-21.28,11.82-33.34a17.38,17.38,0,0,0-9.29-10.87c-1.41-.83-3-.2-4.35.43-6.47,3.26-11,9.4-17.45,12.6a52.09,52.09,0,0,1-25.13,2.88c-6.66-.89-13.51-4.49-16.14-11-2.88-6.95-4.23-15.55-.13-22.29,2.12-3.59,6.24-5,10.12-5.65,3.58-7,11.91-9.15,19.06-10.36,6.26-.78,13.33-1.23,18.79,2.51,5.34,3.92,6.24,11,6.9,17.13,7.17-1.59,15-.5,21,3.86,11.58,8.2,17.54,22.81,17.32,36.75-.08,11.4-6.22,21.92-14.38,29.54-8.67,8-19.79,13.59-31.6,14.67-8.4.79-17.2-1.13-24.06-6.17-9.18-6.74-15.62-16.74-19.21-27.46-.93-2.57-1.24-5.39-2.56-7.8-5.12-3.18-11.5-3-17.27-4.12-7.1-.71-13.44-4.36-19.22-8.3-7.13-5.15-13.73-11.57-17.27-19.76-3.54-8-6.44-16.77-12.94-23-6.23-6.2-15.15-8.23-23.56-9.42-14.33-2.35-29.17-9.5-35.77-23.13-2,9.3-1.84,18.84-2,28.29q-2.4.87-4.82,1.68c1.5,1,3.28,1.69,4.37,3.17.37,3.62-.17,7.31.61,10.89.76,3.75,3.57,6.9,3.47,10.86a228.71,228.71,0,0,1-3.31,38.12c-.64,5.47-1.78,11.22-.11,16.6,1,2.85,3.82,1.06,5.81.58,3.15-1.28,6.58.66,8.72,2.94-.06,3.35-.52,6.82,1.19,9.9,5.07-2.34,10.72-2.41,16-3.94a12.89,12.89,0,0,1,5.78,4.48c-4.77,1.39-10.14.87-14.5,3.52-2,1.06-1.31,3.74-1.81,5.62,4.57,1.25,9.87,3.14,11.68,8,1.09,4.41-1,9.34,1.55,13.48,3.19,5.63,10.31,6.88,16.23,7.11a85.17,85.17,0,0,0,42.21-11.18c7.57-4.2,14.54-9.36,21.49-14.49,2.81-2.24,5.77,1.24,7.72,3.09a296.33,296.33,0,0,1-25.27,25.35c-7.68,8.13-11.44,19.17-13.43,30a60.11,60.11,0,0,1-12.55,27c-6.69,8.32-15.24,14.8-23.09,21.95-7.33,7.12-14.14,16.76-12.24,27.56-2.61-1.12-6.6-2-6.68-5.56-1-11.55,6.81-21.61,15.07-28.8,9.82-8.92,19.93-18.29,25.36-30.65a104.52,104.52,0,0,0,7.77-34.5c-1.76-3.35-5.1-7-9.27-6.12-8.66,1-17.69,1.67-26.12-1.05-6.3-2-11.87-6.73-14.13-13-1.3-3.44-.54-7.19-1.1-10.75-2.61-3.9-8.26-4.06-11-7.84-1.47-1.91-.91-4.46-1.4-6.67-3.37-2.21-7.22-4.8-6.83-9.43-7.62-.54-16.65-6.77-15.14-15.33C93,306.93,95.17,294,96.2,281c1-10.83-3.37-21.19-3.5-32a21.15,21.15,0,0,1-17.64-15C71.38,219.29,77.14,201.94,90.49,193.9Zm-5.4,15.24c1.08,1.52,2.38-.6,3.32-1.21,7-6.73,17.57-7.91,26.77-6a27.07,27.07,0,0,0-16.89-8.1C91.39,196.06,87.39,202.66,85.09,209.14ZM118.19,229c7.67,6.65,17.71,9.5,27.62,10.61-4.1-3.62-8.85-6.76-14.32-7.7A90.12,90.12,0,0,1,118.19,229Zm126.06,22.82c-1.74,5.65,1.48,11.27,4.56,15.82,4.11,5.61,8.85,11.41,15.58,13.87a10.36,10.36,0,0,0,11.29-3.24c4.38-4.89,11.77-6,17.85-4.17,4.53,1.29,8,4.68,11,8.11a24.75,24.75,0,0,0-15.49-16.48c-5.25-1.73-10,1.76-15.14,2.31-.6-5.94-.31-12.47-3.88-17.59-3.07-4.21-8.89-4.15-13.57-4.11C252,246.56,246.48,247.4,244.25,251.78Z" transform="translate(-73.97 -67.09)"/><path class="cls-2" d="M190.2,237.63c4.36-4.28,10.71-7.49,16.89-5.38-2.6,3.25-6.36,5.74-7.85,9.75.11,2.76,1.29,5.35,1.55,8.1.42,2.73.18,6.08,2.64,8,3.71,3,8.8,2.35,13.24,2.33-1.24,2-2.54,4.14-4.92,4.81-7.09,2.29-15.64.92-21.15-4.27C184.32,254.91,184.12,243.84,190.2,237.63Z" transform="translate(-73.97 -67.09)"/><path class="cls-2" d="M1214.56,253.6a38.91,38.91,0,0,0,7.21-5.51c7.46,20.3,15.08,40.54,22.58,60.83,1.18,3,2.25,6.25,4.49,8.7s5.5,2.86,8.35,4l.25,1.21c-10.27.45-20.62.4-30.9,0,.16-2.32,3.31-2,4.84-3.08,2.86-.86,3.85-4.17,3.15-6.84-1.3-6.81-4.1-13.21-6.42-19.71-7.81,0-15.62,0-23.43,0-2.23,6.88-5.51,13.56-6.32,20.82-.48,4.49,4.35,6.47,8,6.79,1.27.58,4-.21,4,1.89-4.24.75-8.55.26-12.82.37-5.36-.12-10.73.32-16.06-.28.09-.31.27-.93.37-1.23,3.13-1.5,7-2.11,9.23-5,2.08-2.86,3.24-6.26,4.56-9.52,5.06-13.51,10.31-26.95,15.17-40.53C1212.27,262.31,1214.42,258.18,1214.56,253.6Zm1.47,8.09c-3.15,8.95-6.41,17.86-9.56,26.81h20.3C1223.14,279.58,1219.84,270.53,1216,261.69Z" transform="translate(-73.97 -67.09)"/><path class="cls-2" d="M794.62,251.22c11.14-1.53,23.35.1,32.37,7.28,12.07,9.63,15.43,27.1,11.1,41.43a33.75,33.75,0,0,1-20.85,21.72c-13.75,5-30.63,3.29-41.78-6.65-13.41-12.11-15.08-34.35-5.16-49.08C775.78,257.78,785,252.65,794.62,251.22Zm-.8,3.24a23.54,23.54,0,0,0-13.19,11.67c-4.79,9.13-5.51,20-3.14,30,1.9,8.35,5.93,16.74,13.17,21.7A22.52,22.52,0,0,0,810,320.66c5.87-1.84,10.34-6.64,13.18-11.94C828.69,298,829,285.12,825,273.9c-2.41-6.9-6.63-13.44-12.9-17.39A22,22,0,0,0,793.82,254.46Z" transform="translate(-73.97 -67.09)"/><path class="cls-2" d="M887,263.39c3.9-8.42,13.49-13.12,22.53-12.78a32.93,32.93,0,0,1,14.34,4c-.31,5.32-.55,10.65-.85,16l-1.73-.18c-1.26-4.92-2.43-10.35-6.27-14-5.82-4.55-15.91-3.05-19.2,3.9a13,13,0,0,0,4.47,15.92c7.26,5.88,16.33,9.31,22.87,16.12,4.07,4.19,4.8,10.57,3.6,16.06-1.6,6.51-7.11,11.39-13.18,13.75-9.69,3.91-21,2.36-29.81-3.13-.89-6.22-2.34-12.37-2.88-18.64,2.33.9,2.61,3.49,3.54,5.48,2.53,6.24,7.09,12.34,13.78,14.39,4.78,1.33,10.37,1,14.43-2.05,6.12-4.64,6.06-15,.36-19.9-6.94-6.28-16.15-9.39-22.86-16C885,277.66,884.34,269.55,887,263.39Z" transform="translate(-73.97 -67.09)"/><path class="cls-2" d="M978.43,265.94c7.25-9.06,18.62-14.28,30.09-15.09a74.58,74.58,0,0,1,28.22,3.91c-.25,6.33-.13,12.68-.58,19-1.89-1.64-2.19-4.25-3.13-6.43a21.66,21.66,0,0,0-14.59-13.09c-10.21-2.61-22,.68-28.65,9.08-9.43,12.12-9,30.32-.48,42.81,7.31,11,21.6,16.54,34.44,13.94,4-1,3.34-5.9,3.51-9-.22-5.2.72-10.93-2-15.64-3-4.33-9.17-2.51-12.83-5.69,5.68-.66,11.41-.21,17.12-.33,5.12.1,10.29-.36,15.39.43-2.65,2.06-7.26,2.45-8.07,6.26-1,6.2-.33,12.52-.51,18.77,1.89,0,3.8.06,5.71.14-1.39,2.79-4.77,3.14-7.31,4.35-12.61,5.14-27.11,7-40.19,2.5a34.88,34.88,0,0,1-20.74-18.09C968.45,291.57,970,276.36,978.43,265.94Z" transform="translate(-73.97 -67.09)"/><path class="cls-2" d="M1441.69,251.21c11.32-1.55,23.76.2,32.79,7.68,11.64,9.67,14.84,26.72,10.69,40.8a33.74,33.74,0,0,1-21,22c-13.33,4.87-29.54,3.38-40.73-5.78-13.79-11.37-16.14-33.11-7.33-48.18C1421.48,258.57,1431.36,252.71,1441.69,251.21Zm-.83,3.23c-6.53,2.1-11.51,7.53-14.2,13.69-4.89,10.93-4.31,23.68-.12,34.73,2.27,5.84,5.86,11.37,11.12,14.94a22.5,22.5,0,0,0,19.36,2.86c5.87-1.84,10.36-6.63,13.2-11.94a44,44,0,0,0,2.18-33.49c-2.34-7.4-6.67-14.51-13.35-18.72A22,22,0,0,0,1440.86,254.44Z" transform="translate(-73.97 -67.09)"/><path class="cls-2" d="M386,252.57c14.85,0,29.85-2.28,44.58.44,9.64,2,19.49,6.45,25.11,14.87,9.31,13.58,7.44,34.1-5.23,45-8.47,7.33-20,10.1-30.92,10.36-11.52.1-23-.08-34.56-.19,1.72-3.16,6.17-1.92,8.9-3.78,4.27-1.94,4.21-7.23,4.39-11.23.07-13,0-26,0-39.07-.14-3.41,0-7-1.55-10.17-2.23-3.51-6.8-3.78-10.45-4.71C386.18,253.7,386,253,386,252.57Zm21.55,1.36q0,26.54,0,53.06c.14,3.27.2,6.92,2.38,9.58,2.33,2.83,6.12,3.77,9.62,4,9.24.54,19-3.38,24.33-11.17,5.42-8,6.36-18.19,4.88-27.5a31,31,0,0,0-14.64-21.45C426.12,255.67,416.67,254,407.5,253.93Z" transform="translate(-73.97 -67.09)"/><path class="cls-2" d="M502.68,252.14c18.74-.32,37.49,0,56.23-.14q-.63,8.12-1.22,16.23l-1.52,0c-.39-5.23-2.69-11-8.19-12.55-7.39-1.78-15.08-1-22.6-1.21q0,14.87,0,29.74c6.44-.21,13,.63,19.36-1,4.36-1.23,5.35-6,7-9.63,1.43,8.2.47,16.66.54,25-2.4-1.67-2.18-5.1-4.21-7.06a8.57,8.57,0,0,0-5.42-2.44c-5.72-.63-11.48-.26-17.22-.35.09,7.42-.19,14.84.11,22.25a8.69,8.69,0,0,0,5.87,8.11,32.93,32.93,0,0,0,18.07.33A16.63,16.63,0,0,0,561,308.39c1-2.3,1-5.33,3.26-6.88.48,7.36-1.14,14.67-3.37,21.65-19.14-.08-38.27,0-57.41,0-.12-.39-.35-1.16-.46-1.54,4.1-1,9.49-1.15,11.79-5.32,1.58-4.2,1.23-8.83,1.37-13.24-.07-12,.09-24-.08-36.06-.24-4-.13-9.26-4.47-11.13C508.83,254.07,504.65,255,502.68,252.14Z" transform="translate(-73.97 -67.09)"/><path class="cls-2" d="M667.1,252.57c10.43-.15,20.88-1.27,31.32-.7,7.19.59,14.92,2.72,19.81,8.38,5.63,6.36,5.58,17-.41,23.13-4.59,4.95-11.26,7.14-17.69,8.44-1.78.2-4,1.17-5.12-.78,5.57-1.35,11.8-3.28,14.76-8.65a19.17,19.17,0,0,0-2.19-20.53c-4.67-5.49-12.11-7.41-19.05-7.61-.07,17.25,0,34.49,0,51.74.26,3.91-.5,8.53,2.3,11.73,3.3,2.88,8,2.85,12,3.95-1.05,2-3.52,1.3-5.34,1.49-10.53-.12-21,.09-31.57-.13.85-2.31,3.56-1.93,5.49-2.59,3.31-.6,6.8-2.68,7.21-6.33,1.29-8.66.54-17.45.74-26.17-.19-9,.52-18.15-.79-27.11-.91-5.26-6.81-6.29-11.22-6.7C667.3,253.74,667.16,253,667.1,252.57Z" transform="translate(-73.97 -67.09)"/><path class="cls-2" d="M1082.08,252.72c8.46-.56,16.94-.62,25.42-.95,7.67-.15,16,.16,22.49,4.79,6.71,4.38,7.88,14.34,3.89,20.93-2.33,4-6.42,6.47-10.41,8.55,6.61,11.26,13,23.37,23.83,31.18,3.32,2.58,7.38,3.81,11.29,5.22l0,1.37c-8.21-.36-17.73.37-24.29-5.53-7.14-6.89-12.07-15.65-16.73-24.31-2.62-5-8.84-4.19-13.53-4.73.23,8.26-.52,16.59.5,24.8.49,4,4.58,5.76,8.08,6.31,2.15.75,5.34.1,6.39,2.68-10.82.24-21.64,0-32.45.13-1.87-.06-4.06.31-5.3-1.4,3.72-1.07,8.08-1.12,11.07-3.91,2.46-2.62,2.13-6.53,2.43-9.85.06-13.66,0-27.33,0-41-.21-3.54-.1-7.73-2.9-10.35S1084.5,255.62,1082.08,252.72Zm21.93,1.2c0,11.16,0,22.33,0,33.49,6.45-.43,13.34-2.08,18-6.9,5.6-6.36,4.13-17.45-2.86-22.22C1114.8,255,1109.26,254.25,1104,253.92Z" transform="translate(-73.97 -67.09)"/><path class="cls-2" d="M1290.9,253.83c1.17-2,3.63-1.21,5.52-1.46,14.18-.05,28.62-2.21,42.57,1.32,7.09,1.92,14.1,5.15,19.19,10.59,12,12.82,11.59,35.15-1.06,47.39-8.36,8.08-20.32,11.2-31.67,11.54-11,.12-22,0-33.06-.17l-2.25-1.2c4.07-1.33,9.41-1.21,12-5.2,1.59-3.3,1.32-7.12,1.57-10.68,0-12.63.1-25.27,0-37.9-.32-3.4,0-7.27-2.16-10.12C1298.76,255.06,1294.5,254.91,1290.9,253.83Zm22,.13c0,17,0,34.06,0,51.09.08,3.35,0,6.85,1.4,10,1.71,3.44,5.64,5,9.29,5.39,9.77,1.09,20.4-3,25.91-11.37,5.36-8.17,6.18-18.57,4.5-28a31.11,31.11,0,0,0-16.13-21.56C1330.19,255.49,1321.45,254,1312.87,254Z" transform="translate(-73.97 -67.09)"/><path class="cls-2" d="M113.11,262.57c2.55-2.58,6.54-2.44,9.91-2.4,10,.66,20,1.19,29.88,2.21-6.18,1.68-13.42,1.05-18.53,5.5,6.44,6.66,15.9,8.62,24.26,11.78-3.85.71-8.26,2.51-11.88.13a38.31,38.31,0,0,0-9.82-3.69c-.78,2.07-1.63,5-4.4,4.93-3,.47-4.23-2.55-4.9-4.86-1.11,2.08-1.87,6-5.11,4.67-3.71-1.67-6.09-5.27-8.3-8.54C112.54,269.5,110.73,265.5,113.11,262.57Z" transform="translate(-73.97 -67.09)"/><path class="cls-2" d="M115.71,311.1c3.8.78,6.7,3.76,8.4,7.1,1.3,2.68.86,6.88-2.22,8.11s-6.77,1.73-9.23-.8c2.67-1.31,6.84-1.93,7.31-5.53C120.61,316.37,117.36,313.88,115.71,311.1Z" transform="translate(-73.97 -67.09)"/><path class="cls-2" d="M382.26,347.62H1517.87c0,2.29,0,4.57,0,6.86q-567.84,0-1135.66,0Z" transform="translate(-73.97 -67.09)"/></svg>